G04 Layer_Color=16711935*
%FSLAX44Y44*%
%MOMM*%
G71*
G01*
G75*
%ADD111C,2.2000*%
%ADD112C,2.0000*%
%ADD113C,1.7600*%
%ADD114R,1.7600X1.7600*%
%ADD115O,1.7600X1.7200*%
%ADD116R,1.7600X1.7600*%
%ADD117C,6.2000*%
%ADD118C,2.7600*%
%ADD119R,2.7600X2.7600*%
%ADD120C,0.4500*%
%ADD122C,0.4500*%
D111*
X155250Y94250D02*
D03*
D112*
Y49250D02*
D03*
D113*
X566300Y512300D02*
D03*
X540900D02*
D03*
X515500D02*
D03*
X490100D02*
D03*
X464700D02*
D03*
X413900D02*
D03*
X439300D02*
D03*
X363100D02*
D03*
X388500D02*
D03*
X312300D02*
D03*
X337700D02*
D03*
X261500D02*
D03*
X286900D02*
D03*
X210700D02*
D03*
X236100D02*
D03*
X159900D02*
D03*
X185300D02*
D03*
X134500D02*
D03*
X109100D02*
D03*
X134500Y537700D02*
D03*
X83700D02*
D03*
X185300D02*
D03*
X236100D02*
D03*
X286900D02*
D03*
X337700D02*
D03*
X388500D02*
D03*
X439300D02*
D03*
X490100D02*
D03*
X540900D02*
D03*
X16000Y470000D02*
D03*
X161650Y485300D02*
D03*
Y459900D02*
D03*
X136000Y485400D02*
D03*
Y460000D02*
D03*
D114*
X83700Y512300D02*
D03*
D115*
X109100Y537700D02*
D03*
X159900D02*
D03*
X210700D02*
D03*
X261500D02*
D03*
X312300D02*
D03*
X363100D02*
D03*
X413900D02*
D03*
X464700D02*
D03*
X515500D02*
D03*
X566300D02*
D03*
D116*
X16000Y444600D02*
D03*
X161650Y434500D02*
D03*
X136000Y434600D02*
D03*
D117*
X615000Y35000D02*
D03*
X35000D02*
D03*
X615000Y525000D02*
D03*
X35000D02*
D03*
D118*
X308750Y41250D02*
D03*
X408750D02*
D03*
X508750D02*
D03*
D119*
X258750D02*
D03*
X358750D02*
D03*
X458750D02*
D03*
D120*
X351500Y386500D02*
D03*
X363000D02*
D03*
X374500D02*
D03*
X397500D02*
D03*
X386100Y421500D02*
D03*
X374600D02*
D03*
X363100D02*
D03*
X351600D02*
D03*
X397500Y409833D02*
D03*
X386100D02*
D03*
X374600D02*
D03*
X363100D02*
D03*
X351600D02*
D03*
X397500Y398167D02*
D03*
X386100D02*
D03*
X374600D02*
D03*
X363100D02*
D03*
X351600D02*
D03*
X397500Y421500D02*
D03*
X386000Y386500D02*
D03*
X88500Y361000D02*
D03*
D122*
Y350000D02*
D03*
X99000Y361000D02*
D03*
Y350000D02*
D03*
X93750Y355500D02*
D03*
M02*
