G04 Layer_Color=65535*
%FSLAX44Y44*%
%MOMM*%
G71*
G01*
G75*
%ADD33C,0.2500*%
%ADD34C,0.3000*%
%ADD40C,0.4000*%
%ADD47C,0.2000*%
%ADD60C,0.2032*%
%ADD61C,0.2540*%
%ADD62C,0.1000*%
%ADD63C,0.0762*%
%ADD64C,0.1500*%
%ADD65C,0.1200*%
%ADD66C,0.1600*%
D33*
X412250Y367500D02*
G03*
X412250Y367500I-1250J0D01*
G01*
X244500Y125499D02*
X246499Y123500D01*
X250498D01*
X252497Y125499D01*
Y133497D01*
X250498Y135496D01*
X246499D01*
X244500Y133497D01*
Y131497D01*
X246499Y129498D01*
X252497D01*
X256496Y135496D02*
Y127499D01*
X260495Y123500D01*
X264494Y127499D01*
Y135496D01*
X268492Y129498D02*
X276490D01*
X280488Y123500D02*
X284487D01*
X282488D01*
Y135496D01*
X280488Y133497D01*
X298482Y135496D02*
X290485D01*
Y129498D01*
X294484Y131497D01*
X296483D01*
X298482Y129498D01*
Y125499D01*
X296483Y123500D01*
X292484D01*
X290485Y125499D01*
X302481Y135496D02*
Y127499D01*
X306480Y123500D01*
X310479Y127499D01*
Y135496D01*
D34*
X146000Y162000D02*
G03*
X146000Y162000I-1500J0D01*
G01*
X144500Y154000D02*
G03*
X144500Y170000I0J8000D01*
G01*
X123000Y161998D02*
X129664D01*
X126332Y165331D02*
Y158666D01*
X162987Y161998D02*
X169652D01*
D40*
X249500Y111998D02*
X257497D01*
X253499Y115997D02*
Y107999D01*
X297484Y111998D02*
X305482D01*
D47*
X227500Y468500D02*
X247500D01*
X227500Y432750D02*
X247500D01*
X227500D02*
Y436000D01*
X247500Y432750D02*
Y436000D01*
Y465000D02*
Y468500D01*
X227500Y465000D02*
Y468500D01*
X11988Y89584D02*
Y91616D01*
Y89584D02*
X77012D01*
Y140384D02*
Y142162D01*
X12000D02*
X77012D01*
X11988Y140384D02*
Y142162D01*
X11990Y127684D02*
Y129716D01*
Y114984D02*
Y117016D01*
Y102284D02*
Y104316D01*
X77012Y89584D02*
Y91616D01*
Y102284D02*
Y104316D01*
Y114984D02*
Y117016D01*
Y127684D02*
Y129716D01*
X419500Y367000D02*
Y372250D01*
X411500Y359000D02*
X419500Y367000D01*
Y435750D02*
Y449000D01*
X406250Y359000D02*
X411500D01*
X406250Y449000D02*
X419500D01*
X329500Y435750D02*
Y449000D01*
X342750D01*
X329500Y359000D02*
Y372250D01*
Y359000D02*
X342750D01*
X632512Y478634D02*
Y480666D01*
X567488D02*
X632512D01*
X567488Y428088D02*
Y429866D01*
Y428088D02*
X632500D01*
X632512D02*
Y429866D01*
X632510Y440534D02*
Y442566D01*
Y453234D02*
Y455266D01*
Y465934D02*
Y467966D01*
X567488Y478634D02*
Y480666D01*
Y465934D02*
Y467966D01*
Y453234D02*
Y455266D01*
Y440534D02*
Y442566D01*
X625592Y403000D02*
X635589D01*
Y398002D01*
X633923Y396335D01*
X630591D01*
X628924Y398002D01*
Y403000D01*
Y393003D02*
Y389671D01*
Y391337D01*
X635589D01*
Y393003D01*
X638921Y384673D02*
X628924D01*
Y379674D01*
X630591Y378008D01*
X632257D01*
X633923D01*
X635589Y379674D01*
Y384673D01*
X628924Y369677D02*
Y373010D01*
X630591Y374676D01*
X633923D01*
X635589Y373010D01*
Y369677D01*
X633923Y368011D01*
X632257D01*
Y374676D01*
X635589Y363013D02*
Y359681D01*
X633923Y358014D01*
X628924D01*
Y363013D01*
X630591Y364679D01*
X632257Y363013D01*
Y358014D01*
X628924Y354682D02*
X635589D01*
Y349684D01*
X633923Y348018D01*
X628924D01*
Y344686D02*
Y341353D01*
Y343019D01*
X635589D01*
Y344686D01*
X628924Y331356D02*
Y334689D01*
X630591Y336355D01*
X633923D01*
X635589Y334689D01*
Y331356D01*
X633923Y329690D01*
X632257D01*
Y336355D01*
X608796Y403000D02*
Y398002D01*
X610462Y396335D01*
X612128Y398002D01*
Y401334D01*
X613795Y403000D01*
X615461Y401334D01*
Y396335D01*
X617127Y391337D02*
X615461D01*
Y393003D01*
Y389671D01*
Y391337D01*
X610462D01*
X608796Y389671D01*
Y379674D02*
Y383006D01*
X610462Y384673D01*
X613795D01*
X615461Y383006D01*
Y379674D01*
X613795Y378008D01*
X612128D01*
Y384673D01*
X615461Y374676D02*
X608796D01*
X612128D01*
X613795Y373010D01*
X615461Y371344D01*
Y369677D01*
X608796Y359681D02*
Y363013D01*
X610462Y364679D01*
X613795D01*
X615461Y363013D01*
Y359681D01*
X613795Y358014D01*
X612128D01*
Y364679D01*
X608796Y353016D02*
Y349684D01*
X610462Y348018D01*
X613795D01*
X615461Y349684D01*
Y353016D01*
X613795Y354682D01*
X610462D01*
X608796Y353016D01*
Y344686D02*
Y341353D01*
Y343019D01*
X618793D01*
X617127Y344686D01*
X618793Y329690D02*
Y336355D01*
X613795D01*
X615461Y333023D01*
Y331356D01*
X613795Y329690D01*
X610462D01*
X608796Y331356D01*
Y334689D01*
X610462Y336355D01*
X598665Y403000D02*
X592000D01*
X595332D01*
X596998Y401334D01*
X598665Y399668D01*
Y398002D01*
X592000Y388005D02*
Y391337D01*
X593666Y393003D01*
X596998D01*
X598665Y391337D01*
Y388005D01*
X596998Y386339D01*
X595332D01*
Y393003D01*
X598665Y383006D02*
X592000Y379674D01*
X598665Y376342D01*
X592000Y363013D02*
Y359681D01*
Y361347D01*
X601997D01*
X600331Y363013D01*
X592000Y354682D02*
X593666D01*
Y353016D01*
X592000D01*
Y354682D01*
Y346352D02*
Y343019D01*
Y344686D01*
X601997D01*
X600331Y346352D01*
X123000Y175166D02*
X124666Y173500D01*
X127998D01*
X129664Y175166D01*
Y181831D01*
X127998Y183497D01*
X124666D01*
X123000Y181831D01*
Y180165D01*
X124666Y178498D01*
X129664D01*
X132997Y183497D02*
Y176832D01*
X136329Y173500D01*
X139661Y176832D01*
Y183497D01*
X142994Y178498D02*
X149658D01*
X152990Y173500D02*
X156323D01*
X154656D01*
Y183497D01*
X152990Y181831D01*
X167985Y183497D02*
X161321D01*
Y178498D01*
X164653Y180165D01*
X166319D01*
X167985Y178498D01*
Y175166D01*
X166319Y173500D01*
X162987D01*
X161321Y175166D01*
X171318Y183497D02*
Y176832D01*
X174650Y173500D01*
X177982Y176832D01*
Y183497D01*
X61498Y439997D02*
X58166D01*
X56500Y438331D01*
Y431666D01*
X58166Y430000D01*
X61498D01*
X63165Y431666D01*
Y438331D01*
X61498Y439997D01*
X66497D02*
Y431666D01*
X68163Y430000D01*
X71495D01*
X73161Y431666D01*
Y439997D01*
X76494D02*
X83158D01*
X79826D01*
Y430000D01*
X100164Y488331D02*
X98498Y489997D01*
X95166D01*
X93500Y488331D01*
Y481666D01*
X95166Y480000D01*
X98498D01*
X100164Y481666D01*
Y484998D01*
X96832D01*
X103497Y480000D02*
Y489997D01*
X110161Y480000D01*
Y489997D01*
X113493D02*
Y480000D01*
X118492D01*
X120158Y481666D01*
Y488331D01*
X118492Y489997D01*
X113493D01*
X93500Y458998D02*
X100164D01*
X96832Y462331D02*
Y455666D01*
X103497Y462331D02*
X105163Y463997D01*
X108495D01*
X110161Y462331D01*
Y460664D01*
X108495Y458998D01*
X106829D01*
X108495D01*
X110161Y457332D01*
Y455666D01*
X108495Y454000D01*
X105163D01*
X103497Y455666D01*
X113493Y463997D02*
Y457332D01*
X116826Y454000D01*
X120158Y457332D01*
Y463997D01*
X55500Y484498D02*
X62165D01*
X58832Y487831D02*
Y481166D01*
X65497Y487831D02*
X67163Y489497D01*
X70495D01*
X72161Y487831D01*
Y486165D01*
X70495Y484498D01*
X68829D01*
X70495D01*
X72161Y482832D01*
Y481166D01*
X70495Y479500D01*
X67163D01*
X65497Y481166D01*
X75493Y489497D02*
Y482832D01*
X78826Y479500D01*
X82158Y482832D01*
Y489497D01*
X62165Y462331D02*
X60498Y463997D01*
X57166D01*
X55500Y462331D01*
Y455666D01*
X57166Y454000D01*
X60498D01*
X62165Y455666D01*
Y458998D01*
X58832D01*
X65497Y454000D02*
Y463997D01*
X72161Y454000D01*
Y463997D01*
X75493D02*
Y454000D01*
X80492D01*
X82158Y455666D01*
Y462331D01*
X80492Y463997D01*
X75493D01*
X98498Y439997D02*
X95166D01*
X93500Y438331D01*
Y431666D01*
X95166Y430000D01*
X98498D01*
X100164Y431666D01*
Y438331D01*
X98498Y439997D01*
X103497D02*
Y431666D01*
X105163Y430000D01*
X108495D01*
X110161Y431666D01*
Y439997D01*
X113493D02*
X120158D01*
X116826D01*
Y430000D01*
D60*
X346500Y307000D02*
G03*
X346500Y307000I-40000J0D01*
G01*
X255000Y361000D02*
G03*
X255000Y361000I-40000J0D01*
G01*
X581000Y360000D02*
G03*
X581000Y360000I-40000J0D01*
G01*
X483500Y307000D02*
G03*
X483500Y307000I-40000J0D01*
G01*
X82250Y29250D02*
Y149250D01*
Y29250D02*
X228250D01*
Y149250D01*
X82250D02*
X228250D01*
X17250Y416750D02*
X24500D01*
X17250Y370250D02*
Y416750D01*
X63750Y370250D02*
Y416750D01*
X56500D02*
X63750D01*
X56500Y370250D02*
X63750D01*
X17250D02*
X24500D01*
X110250Y188250D02*
X232250D01*
Y299250D01*
X110250Y188250D02*
Y299250D01*
X232250D01*
X239500Y261000D02*
X361500D01*
X239500Y150000D02*
Y261000D01*
X361500Y150000D02*
Y261000D01*
X239500Y150000D02*
X361500D01*
X389917Y261000D02*
X511917D01*
X389917Y150000D02*
Y261000D01*
X511917Y150000D02*
Y261000D01*
X389917Y150000D02*
X511917D01*
X518750Y299250D02*
X640750D01*
X518750Y188250D02*
Y299250D01*
X640750Y188250D02*
Y299250D01*
X518750Y188250D02*
X640750D01*
X264500Y317160D02*
Y348000D01*
X349000Y317160D02*
Y333500D01*
Y279500D02*
Y296840D01*
X335000Y265500D02*
X349000Y279500D01*
X334500Y348000D02*
X349000Y333500D01*
X363150Y285640D02*
Y295800D01*
X264500Y348000D02*
X334500D01*
X264000Y265500D02*
X335000D01*
X357953Y290796D02*
X368113D01*
X264000Y265500D02*
Y296840D01*
X174000Y319000D02*
X204840D01*
X188500Y403500D02*
X204840D01*
X225160D02*
X242500D01*
X256500Y389500D01*
X174000Y389000D02*
X188500Y403500D01*
X226200Y417650D02*
X236360D01*
X174000Y319000D02*
Y389000D01*
X256500Y318500D02*
Y389500D01*
X231204Y412453D02*
Y422613D01*
X225160Y318500D02*
X256500D01*
X500000Y318000D02*
X530840D01*
X514500Y402500D02*
X530840D01*
X551160D02*
X568500D01*
X582500Y388500D01*
X500000Y388000D02*
X514500Y402500D01*
X552200Y416650D02*
X562360D01*
X500000Y318000D02*
Y388000D01*
X582500Y317500D02*
Y388500D01*
X557204Y411453D02*
Y421613D01*
X551160Y317500D02*
X582500D01*
X485500Y266000D02*
Y296840D01*
X401000Y280500D02*
Y296840D01*
Y317160D02*
Y334500D01*
X415000Y348500D01*
X401000Y280500D02*
X415500Y266000D01*
X386850Y318200D02*
Y328360D01*
X415500Y266000D02*
X485500D01*
X415000Y348500D02*
X486000D01*
X381887Y323204D02*
X392047D01*
X486000Y317160D02*
Y348500D01*
X247500Y446500D02*
Y454500D01*
X3300Y431900D02*
X28700D01*
X3300D02*
Y482700D01*
X28700Y431900D02*
Y482700D01*
X3300D02*
X28700D01*
D61*
X235000Y460000D02*
G03*
X235000Y460000I-1031J0D01*
G01*
X31988Y135100D02*
G03*
X31988Y135100I-1239J0D01*
G01*
X614989Y435150D02*
G03*
X614989Y435150I-1239J0D01*
G01*
D62*
X15500Y174500D02*
Y183500D01*
X28500Y174500D02*
Y183500D01*
X15500D02*
X28500D01*
X15500Y174500D02*
X28500D01*
X18571Y175952D02*
Y181997D01*
X53500Y77500D02*
Y86500D01*
X40500Y77500D02*
Y86500D01*
Y77500D02*
X53500D01*
X40500Y86500D02*
X53500D01*
X50429Y79003D02*
Y85048D01*
X218000Y462000D02*
Y464500D01*
X220500D01*
X218000Y436500D02*
Y439000D01*
Y436500D02*
X220500D01*
X254500D02*
X257000D01*
Y439000D01*
Y462000D02*
Y464500D01*
X254500D02*
X257000D01*
X125840Y424440D02*
X146160D01*
X125840D02*
Y495560D01*
X146160Y424440D02*
Y495560D01*
X125840D02*
X146160D01*
D63*
X49050Y146500D02*
Y156500D01*
X24950D02*
X49050D01*
X24950Y146500D02*
Y156500D01*
Y146500D02*
X49050D01*
X63450Y207000D02*
Y221500D01*
X94550D01*
X63450Y207000D02*
X94550D01*
Y221500D01*
Y249500D02*
Y264000D01*
X63450Y249500D02*
X94550D01*
X63450Y264000D02*
X94550D01*
X63450Y249500D02*
Y264000D01*
X316000Y94950D02*
X331000D01*
X316000D02*
Y122050D01*
X331000Y94950D02*
Y122050D01*
X316000D02*
X331000D01*
X418500Y94700D02*
X433500D01*
X418500D02*
Y121800D01*
X433500Y94700D02*
Y121800D01*
X418500D02*
X433500D01*
X438500Y94950D02*
X453500D01*
X438500D02*
Y122050D01*
X453500Y94950D02*
Y122050D01*
X438500D02*
X453500D01*
X333450Y95000D02*
X357550D01*
X333450D02*
Y105000D01*
X357550D01*
Y95000D02*
Y105000D01*
X364550Y108750D02*
Y123250D01*
X333450Y108750D02*
X364550D01*
X333450Y123250D02*
X364550D01*
X333450Y108750D02*
Y123250D01*
X390950Y95000D02*
X415050D01*
X390950D02*
Y105000D01*
X415050D01*
Y95000D02*
Y105000D01*
Y108750D02*
Y123250D01*
X383950Y108750D02*
X415050D01*
X383950Y123250D02*
X415050D01*
X383950Y108750D02*
Y123250D01*
X455950Y105000D02*
X480050D01*
Y95000D02*
Y105000D01*
X455950Y95000D02*
X480050D01*
X455950D02*
Y105000D01*
X486550Y108750D02*
Y123250D01*
X455450Y108750D02*
X486550D01*
X455450Y123250D02*
X486550D01*
X455450Y108750D02*
Y123250D01*
X509450Y95000D02*
X533550D01*
X509450D02*
Y105000D01*
X533550D01*
Y95000D02*
Y105000D01*
X534050Y108500D02*
Y123000D01*
X502950Y108500D02*
X534050D01*
X502950Y123000D02*
X534050D01*
X502950Y108500D02*
Y123000D01*
X536000Y94700D02*
X551000D01*
X536000D02*
Y121800D01*
X551000Y94700D02*
Y121800D01*
X536000D02*
X551000D01*
X246500Y470950D02*
X256500D01*
Y495050D01*
X246500D02*
X256500D01*
X246500Y470950D02*
Y495050D01*
X220450Y470500D02*
Y480500D01*
Y470500D02*
X244550D01*
Y480500D01*
X220450D02*
X244550D01*
X11450Y87500D02*
X32550D01*
Y76500D02*
Y87500D01*
X11450Y76500D02*
X32550D01*
X11450D02*
Y87500D01*
X561000Y153000D02*
Y181000D01*
X520000Y153000D02*
Y181000D01*
Y153000D02*
X561000D01*
X520000Y181000D02*
X561000D01*
X231500Y153500D02*
Y181500D01*
X190500Y153500D02*
Y181500D01*
Y153500D02*
X231500D01*
X190500Y181500D02*
X231500D01*
X38450Y160000D02*
X59550D01*
X38450D02*
Y171000D01*
X59550D01*
Y160000D02*
Y171000D01*
X9950Y160500D02*
X34050D01*
X9950D02*
Y170500D01*
X34050D01*
Y160500D02*
Y170500D01*
X53450Y146000D02*
X74550D01*
X53450D02*
Y157000D01*
X74550D01*
Y146000D02*
Y157000D01*
X258500Y436450D02*
Y460550D01*
X268500D01*
Y436450D02*
Y460550D01*
X258500Y436450D02*
X268500D01*
X91950Y331000D02*
X113050D01*
Y320000D02*
Y331000D01*
X91950Y320000D02*
X113050D01*
X91950D02*
Y331000D01*
X68950D02*
X90050D01*
Y320000D02*
Y331000D01*
X68950Y320000D02*
X90050D01*
X68950D02*
Y331000D01*
X140250Y362450D02*
X154750D01*
X140250D02*
Y393550D01*
X154750Y362450D02*
Y393550D01*
X140250D02*
X154750D01*
X348000Y470950D02*
Y492050D01*
X337000Y470950D02*
X348000D01*
X337000D02*
Y492050D01*
X348000D01*
X320000Y470950D02*
Y492050D01*
X309000Y470950D02*
X320000D01*
X309000D02*
Y492050D01*
X320000D01*
X334000Y470950D02*
Y492050D01*
X323000Y470950D02*
X334000D01*
X323000D02*
Y492050D01*
X334000D01*
X272450Y469000D02*
X293550D01*
Y458000D02*
Y469000D01*
X272450Y458000D02*
X293550D01*
X272450D02*
Y469000D01*
X277000Y471950D02*
Y493050D01*
X266000Y471950D02*
X277000D01*
X266000D02*
Y493050D01*
X277000D01*
X290750Y472200D02*
Y493300D01*
X279750Y472200D02*
X290750D01*
X279750D02*
Y493300D01*
X290750D01*
X362250Y470950D02*
Y492050D01*
X351250Y470950D02*
X362250D01*
X351250D02*
Y492050D01*
X362250D01*
X401250Y468450D02*
Y489550D01*
X390250Y468450D02*
X401250D01*
X390250D02*
Y489550D01*
X401250D01*
X404250Y468450D02*
Y489550D01*
X415250D01*
Y468450D02*
Y489550D01*
X404250Y468450D02*
X415250D01*
X418450Y478000D02*
X439550D01*
Y467000D02*
Y478000D01*
X418450Y467000D02*
X439550D01*
X418450D02*
Y478000D01*
X458700Y406250D02*
X479800D01*
Y395250D02*
Y406250D01*
X458700Y395250D02*
X479800D01*
X458700D02*
Y406250D01*
X471000Y411450D02*
Y432550D01*
X482000D01*
Y411450D02*
Y432550D01*
X471000Y411450D02*
X482000D01*
X440500Y424450D02*
Y445550D01*
X451500D01*
Y424450D02*
Y445550D01*
X440500Y424450D02*
X451500D01*
X535450Y427250D02*
X556550D01*
X535450D02*
Y438250D01*
X556550D01*
Y427250D02*
Y438250D01*
X535450Y481750D02*
X556550D01*
Y470750D02*
Y481750D01*
X535450Y470750D02*
X556550D01*
X535450D02*
Y481750D01*
Y468000D02*
X556550D01*
Y457000D02*
Y468000D01*
X535450Y457000D02*
X556550D01*
X535450D02*
Y468000D01*
Y452000D02*
X556550D01*
Y441000D02*
Y452000D01*
X535450Y441000D02*
X556550D01*
X535450D02*
Y452000D01*
X281250Y398950D02*
Y423050D01*
X291250D01*
Y398950D02*
Y423050D01*
X281250Y398950D02*
X291250D01*
X316500Y424950D02*
Y449050D01*
X306500Y424950D02*
X316500D01*
X306500D02*
Y449050D01*
X316500D01*
X288250Y456050D02*
X302750D01*
Y424950D02*
Y456050D01*
X288250Y424950D02*
Y456050D01*
Y424950D02*
X302750D01*
X294250Y398950D02*
Y423050D01*
X304250D01*
Y398950D02*
Y423050D01*
X294250Y398950D02*
X304250D01*
X266000Y388700D02*
Y412800D01*
X276000D01*
Y388700D02*
Y412800D01*
X266000Y388700D02*
X276000D01*
X344950Y340500D02*
X369050D01*
X344950D02*
Y350500D01*
X369050D01*
Y340500D02*
Y350500D01*
X307500Y364450D02*
Y388550D01*
X317500D01*
Y364450D02*
Y388550D01*
X307500Y364450D02*
X317500D01*
X363000Y260950D02*
Y285050D01*
X373000D01*
Y260950D02*
Y285050D01*
X363000Y260950D02*
X373000D01*
X388000D02*
Y285050D01*
X378000Y260950D02*
X388000D01*
X378000D02*
Y285050D01*
X388000D01*
X364200Y481500D02*
X388300D01*
X364200D02*
Y491500D01*
X388300D01*
Y481500D02*
Y491500D01*
X438250Y364450D02*
Y388550D01*
X428250Y364450D02*
X438250D01*
X428250D02*
Y388550D01*
X438250D01*
X364200Y468500D02*
X388300D01*
X364200D02*
Y478500D01*
X388300D01*
Y468500D02*
Y478500D01*
X379950Y340500D02*
X404050D01*
X379950D02*
Y350500D01*
X404050D01*
Y340500D02*
Y350500D01*
X499250Y388700D02*
Y412800D01*
X489250Y388700D02*
X499250D01*
X489250D02*
Y412800D01*
X499250D01*
X460450Y461000D02*
X484550D01*
Y451000D02*
Y461000D01*
X460450Y451000D02*
X484550D01*
X460450D02*
Y461000D01*
X458950Y465000D02*
Y479500D01*
X490050D01*
X458950Y465000D02*
X490050D01*
Y479500D01*
X426700Y395500D02*
X450800D01*
X426700D02*
Y405500D01*
X450800D01*
Y395500D02*
Y405500D01*
X457450Y437000D02*
X481550D01*
X457450D02*
Y447000D01*
X481550D01*
Y437000D02*
Y447000D01*
X427200Y450000D02*
X451300D01*
X427200D02*
Y460000D01*
X451300D01*
Y450000D02*
Y460000D01*
X457500Y410950D02*
Y435050D01*
X467500D01*
Y410950D02*
Y435050D01*
X457500Y410950D02*
X467500D01*
X427750Y423950D02*
Y448050D01*
X437750D01*
Y423950D02*
Y448050D01*
X427750Y423950D02*
X437750D01*
X582950Y415750D02*
X607050D01*
X582950D02*
Y425750D01*
X607050D01*
Y415750D02*
Y425750D01*
X118250Y362450D02*
X132750D01*
X118250D02*
Y393550D01*
X132750Y362450D02*
Y393550D01*
X118250D02*
X132750D01*
X73950Y383750D02*
Y398250D01*
X105050D01*
X73950Y383750D02*
X105050D01*
Y398250D01*
X140000Y333950D02*
Y358050D01*
X130000Y333950D02*
X140000D01*
X130000D02*
Y358050D01*
X140000D01*
X116750Y326700D02*
Y350800D01*
X126750D01*
Y326700D02*
Y350800D01*
X116750Y326700D02*
X126750D01*
X190950Y436000D02*
Y446000D01*
Y436000D02*
X215050D01*
Y446000D01*
X190950D02*
X215050D01*
X73950Y404750D02*
Y419250D01*
X105050D01*
X73950Y404750D02*
X105050D01*
Y419250D01*
X174500Y460450D02*
X184500D01*
Y484550D01*
X174500D02*
X184500D01*
X174500Y460450D02*
Y484550D01*
X201000Y483050D02*
X212000D01*
X201000Y461950D02*
Y483050D01*
Y461950D02*
X212000D01*
Y483050D01*
X187500Y461950D02*
X198500D01*
Y483050D01*
X187500D02*
X198500D01*
X187500Y461950D02*
Y483050D01*
D64*
X87500Y423750D02*
Y496250D01*
X74250Y336000D02*
X113000D01*
X74250D02*
Y368250D01*
X81000Y375000D01*
X113250D01*
Y336000D02*
Y375000D01*
X32150Y423750D02*
Y496250D01*
X172400D01*
Y423750D02*
Y496250D01*
X32150Y423750D02*
X172400D01*
X151150D02*
Y496250D01*
X35500Y191498D02*
Y184500D01*
X38999D01*
X40165Y185666D01*
Y190331D01*
X38999Y191498D01*
X35500D01*
X47163Y184500D02*
X42498D01*
X47163Y189165D01*
Y190331D01*
X45997Y191498D01*
X43664D01*
X42498Y190331D01*
X42500Y74998D02*
Y68000D01*
X45999D01*
X47165Y69166D01*
Y73831D01*
X45999Y74998D01*
X42500D01*
X49498Y68000D02*
X51830D01*
X50664D01*
Y74998D01*
X49498Y73831D01*
X8665Y153832D02*
X7499Y154998D01*
X5166D01*
X4000Y153832D01*
Y149166D01*
X5166Y148000D01*
X7499D01*
X8665Y149166D01*
X10998Y153832D02*
X12164Y154998D01*
X14497D01*
X15663Y153832D01*
Y152665D01*
X14497Y151499D01*
X13330D01*
X14497D01*
X15663Y150333D01*
Y149166D01*
X14497Y148000D01*
X12164D01*
X10998Y149166D01*
X17996D02*
X19162Y148000D01*
X21494D01*
X22661Y149166D01*
Y153832D01*
X21494Y154998D01*
X19162D01*
X17996Y153832D01*
Y152665D01*
X19162Y151499D01*
X22661D01*
X36000Y397498D02*
Y390500D01*
X40665D01*
X42998D02*
X45330D01*
X44164D01*
Y397498D01*
X42998Y396331D01*
X56000Y361498D02*
Y355666D01*
X57166Y354500D01*
X59499D01*
X60665Y355666D01*
Y361498D01*
X67663Y354500D02*
X62998D01*
X67663Y359165D01*
Y360331D01*
X66497Y361498D01*
X64164D01*
X62998Y360331D01*
X79165Y274331D02*
X77999Y275498D01*
X75666D01*
X74500Y274331D01*
Y269666D01*
X75666Y268500D01*
X77999D01*
X79165Y269666D01*
X81498Y275498D02*
X86163D01*
Y274331D01*
X81498Y269666D01*
Y268500D01*
X439332Y310165D02*
X437999Y311497D01*
X435333D01*
X434000Y310165D01*
Y304833D01*
X435333Y303500D01*
X437999D01*
X439332Y304833D01*
X441997Y303500D02*
X444663D01*
X443330D01*
Y311497D01*
X441997Y310165D01*
X448662Y311497D02*
X453994D01*
Y310165D01*
X448662Y304833D01*
Y303500D01*
X538168Y162665D02*
X537002Y161499D01*
Y159166D01*
X538168Y158000D01*
X542834D01*
X544000Y159166D01*
Y161499D01*
X542834Y162665D01*
X544000Y164998D02*
Y167330D01*
Y166164D01*
X537002D01*
X538168Y164998D01*
X542834Y170829D02*
X544000Y171996D01*
Y174328D01*
X542834Y175494D01*
X538168D01*
X537002Y174328D01*
Y171996D01*
X538168Y170829D01*
X539335D01*
X540501Y171996D01*
Y175494D01*
X518665Y141832D02*
X517499Y142998D01*
X515166D01*
X514000Y141832D01*
Y137166D01*
X515166Y136000D01*
X517499D01*
X518665Y137166D01*
X525663Y136000D02*
X520998D01*
X525663Y140665D01*
Y141832D01*
X524497Y142998D01*
X522164D01*
X520998Y141832D01*
X527995Y136000D02*
X530328D01*
X529162D01*
Y142998D01*
X527995Y141832D01*
X518165Y131832D02*
X516999Y132998D01*
X514666D01*
X513500Y131832D01*
Y127166D01*
X514666Y126000D01*
X516999D01*
X518165Y127166D01*
X525163Y126000D02*
X520498D01*
X525163Y130665D01*
Y131832D01*
X523997Y132998D01*
X521664D01*
X520498Y131832D01*
X532161Y126000D02*
X527495D01*
X532161Y130665D01*
Y131832D01*
X530994Y132998D01*
X528662D01*
X527495Y131832D01*
X466665Y141832D02*
X465499Y142998D01*
X463166D01*
X462000Y141832D01*
Y137166D01*
X463166Y136000D01*
X465499D01*
X466665Y137166D01*
X473663Y136000D02*
X468998D01*
X473663Y140665D01*
Y141832D01*
X472497Y142998D01*
X470164D01*
X468998Y141832D01*
X480661Y142998D02*
X475995D01*
Y139499D01*
X478328Y140665D01*
X479494D01*
X480661Y139499D01*
Y137166D01*
X479494Y136000D01*
X477162D01*
X475995Y137166D01*
X466665Y131832D02*
X465499Y132998D01*
X463166D01*
X462000Y131832D01*
Y127166D01*
X463166Y126000D01*
X465499D01*
X466665Y127166D01*
X473663Y126000D02*
X468998D01*
X473663Y130665D01*
Y131832D01*
X472497Y132998D01*
X470164D01*
X468998Y131832D01*
X480661Y132998D02*
X478328Y131832D01*
X475995Y129499D01*
Y127166D01*
X477162Y126000D01*
X479494D01*
X480661Y127166D01*
Y128333D01*
X479494Y129499D01*
X475995D01*
X537332Y364664D02*
X535999Y365997D01*
X533333D01*
X532000Y364664D01*
Y359333D01*
X533333Y358000D01*
X535999D01*
X537332Y359333D01*
X545329Y358000D02*
X539997D01*
X545329Y363332D01*
Y364664D01*
X543996Y365997D01*
X541330D01*
X539997Y364664D01*
X547995Y359333D02*
X549328Y358000D01*
X551994D01*
X553326Y359333D01*
Y364664D01*
X551994Y365997D01*
X549328D01*
X547995Y364664D01*
Y363332D01*
X549328Y361999D01*
X553326D01*
X211832Y364165D02*
X210499Y365497D01*
X207833D01*
X206500Y364165D01*
Y358833D01*
X207833Y357500D01*
X210499D01*
X211832Y358833D01*
X214497Y364165D02*
X215830Y365497D01*
X218496D01*
X219829Y364165D01*
Y362832D01*
X218496Y361499D01*
X217163D01*
X218496D01*
X219829Y360166D01*
Y358833D01*
X218496Y357500D01*
X215830D01*
X214497Y358833D01*
X222495Y364165D02*
X223828Y365497D01*
X226494D01*
X227826Y364165D01*
Y362832D01*
X226494Y361499D01*
X225161D01*
X226494D01*
X227826Y360166D01*
Y358833D01*
X226494Y357500D01*
X223828D01*
X222495Y358833D01*
X208668Y163665D02*
X207502Y162499D01*
Y160166D01*
X208668Y159000D01*
X213334D01*
X214500Y160166D01*
Y162499D01*
X213334Y163665D01*
X208668Y165998D02*
X207502Y167164D01*
Y169497D01*
X208668Y170663D01*
X209835D01*
X211001Y169497D01*
Y168330D01*
Y169497D01*
X212167Y170663D01*
X213334D01*
X214500Y169497D01*
Y167164D01*
X213334Y165998D01*
X207502Y177661D02*
Y172995D01*
X211001D01*
X209835Y175328D01*
Y176494D01*
X211001Y177661D01*
X213334D01*
X214500Y176494D01*
Y174162D01*
X213334Y172995D01*
X397665Y141832D02*
X396499Y142998D01*
X394166D01*
X393000Y141832D01*
Y137166D01*
X394166Y136000D01*
X396499D01*
X397665Y137166D01*
X399998Y141832D02*
X401164Y142998D01*
X403497D01*
X404663Y141832D01*
Y140665D01*
X403497Y139499D01*
X402330D01*
X403497D01*
X404663Y138333D01*
Y137166D01*
X403497Y136000D01*
X401164D01*
X399998Y137166D01*
X406996Y142998D02*
X411661D01*
Y141832D01*
X406996Y137166D01*
Y136000D01*
X397665Y131832D02*
X396499Y132998D01*
X394166D01*
X393000Y131832D01*
Y127166D01*
X394166Y126000D01*
X396499D01*
X397665Y127166D01*
X399998Y131832D02*
X401164Y132998D01*
X403497D01*
X404663Y131832D01*
Y130665D01*
X403497Y129499D01*
X402330D01*
X403497D01*
X404663Y128333D01*
Y127166D01*
X403497Y126000D01*
X401164D01*
X399998Y127166D01*
X406996Y131832D02*
X408162Y132998D01*
X410494D01*
X411661Y131832D01*
Y130665D01*
X410494Y129499D01*
X411661Y128333D01*
Y127166D01*
X410494Y126000D01*
X408162D01*
X406996Y127166D01*
Y128333D01*
X408162Y129499D01*
X406996Y130665D01*
Y131832D01*
X408162Y129499D02*
X410494D01*
X344165Y141832D02*
X342999Y142998D01*
X340666D01*
X339500Y141832D01*
Y137166D01*
X340666Y136000D01*
X342999D01*
X344165Y137166D01*
X349997Y136000D02*
Y142998D01*
X346498Y139499D01*
X351163D01*
X353495Y136000D02*
X355828D01*
X354662D01*
Y142998D01*
X353495Y141832D01*
X344165Y131832D02*
X342999Y132998D01*
X340666D01*
X339500Y131832D01*
Y127166D01*
X340666Y126000D01*
X342999D01*
X344165Y127166D01*
X349997Y126000D02*
Y132998D01*
X346498Y129499D01*
X351163D01*
X358161Y126000D02*
X353495D01*
X358161Y130665D01*
Y131832D01*
X356994Y132998D01*
X354662D01*
X353495Y131832D01*
X303332Y312164D02*
X301999Y313497D01*
X299333D01*
X298000Y312164D01*
Y306833D01*
X299333Y305500D01*
X301999D01*
X303332Y306833D01*
X309996Y305500D02*
Y313497D01*
X305997Y309499D01*
X311329D01*
X317994Y305500D02*
Y313497D01*
X313995Y309499D01*
X319326D01*
X418000Y359998D02*
Y354166D01*
X419166Y353000D01*
X421499D01*
X422665Y354166D01*
Y359998D01*
X428497Y353000D02*
Y359998D01*
X424998Y356499D01*
X429663D01*
X573000Y258497D02*
Y250500D01*
X578332D01*
X580997Y257164D02*
X582330Y258497D01*
X584996D01*
X586329Y257164D01*
Y255832D01*
X584996Y254499D01*
X583663D01*
X584996D01*
X586329Y253166D01*
Y251833D01*
X584996Y250500D01*
X582330D01*
X580997Y251833D01*
X442500Y222497D02*
Y214500D01*
X447832D01*
X454496D02*
Y222497D01*
X450497Y218499D01*
X455829D01*
X297000Y221997D02*
Y214000D01*
X302332D01*
X310329Y221997D02*
X304997D01*
Y217999D01*
X307663Y219332D01*
X308996D01*
X310329Y217999D01*
Y215333D01*
X308996Y214000D01*
X306330D01*
X304997Y215333D01*
X166000Y251997D02*
Y244000D01*
X171332D01*
X179329Y251997D02*
X176663Y250665D01*
X173997Y247999D01*
Y245333D01*
X175330Y244000D01*
X177996D01*
X179329Y245333D01*
Y246666D01*
X177996Y247999D01*
X173997D01*
X547500Y126000D02*
X540502D01*
Y129499D01*
X541669Y130665D01*
X544001D01*
X545167Y129499D01*
Y126000D01*
Y128333D02*
X547500Y130665D01*
Y132998D02*
Y135330D01*
Y134164D01*
X540502D01*
X541669Y132998D01*
Y138829D02*
X540502Y139995D01*
Y142328D01*
X541669Y143494D01*
X546334D01*
X547500Y142328D01*
Y139995D01*
X546334Y138829D01*
X541669D01*
X449500Y126000D02*
X442502D01*
Y129499D01*
X443669Y130665D01*
X446001D01*
X447167Y129499D01*
Y126000D01*
Y128333D02*
X449500Y130665D01*
Y132998D02*
Y135330D01*
Y134164D01*
X442502D01*
X443669Y132998D01*
X449500Y143494D02*
Y138829D01*
X444835Y143494D01*
X443669D01*
X442502Y142328D01*
Y139995D01*
X443669Y138829D01*
X429500Y126000D02*
X422502D01*
Y129499D01*
X423669Y130665D01*
X426001D01*
X427167Y129499D01*
Y126000D01*
Y128333D02*
X429500Y130665D01*
Y132998D02*
Y135330D01*
Y134164D01*
X422502D01*
X423669Y132998D01*
X422502Y143494D02*
Y138829D01*
X426001D01*
X424835Y141162D01*
Y142328D01*
X426001Y143494D01*
X428334D01*
X429500Y142328D01*
Y139995D01*
X428334Y138829D01*
X327000Y125500D02*
X320002D01*
Y128999D01*
X321169Y130165D01*
X323501D01*
X324667Y128999D01*
Y125500D01*
Y127833D02*
X327000Y130165D01*
Y132498D02*
Y134830D01*
Y133664D01*
X320002D01*
X321169Y132498D01*
X320002Y142994D02*
X321169Y140662D01*
X323501Y138329D01*
X325834D01*
X327000Y139495D01*
Y141828D01*
X325834Y142994D01*
X324667D01*
X323501Y141828D01*
Y138329D01*
X520500Y74500D02*
Y82497D01*
X524499D01*
X525832Y81165D01*
Y78499D01*
X524499Y77166D01*
X520500D01*
X533829Y74500D02*
X528497D01*
X533829Y79832D01*
Y81165D01*
X532496Y82497D01*
X529830D01*
X528497Y81165D01*
X409000Y75000D02*
Y82997D01*
X412999D01*
X414332Y81664D01*
Y78999D01*
X412999Y77666D01*
X409000D01*
X416997Y81664D02*
X418330Y82997D01*
X420996D01*
X422329Y81664D01*
Y80332D01*
X420996Y78999D01*
X419663D01*
X420996D01*
X422329Y77666D01*
Y76333D01*
X420996Y75000D01*
X418330D01*
X416997Y76333D01*
X277000Y75000D02*
Y82997D01*
X280999D01*
X282332Y81664D01*
Y78999D01*
X280999Y77666D01*
X277000D01*
X288996Y75000D02*
Y82997D01*
X284997Y78999D01*
X290329D01*
X209500Y138000D02*
Y144998D01*
X212999D01*
X214165Y143832D01*
Y141499D01*
X212999Y140333D01*
X209500D01*
X221163Y144998D02*
X216498D01*
Y141499D01*
X218830Y142665D01*
X219997D01*
X221163Y141499D01*
Y139166D01*
X219997Y138000D01*
X217664D01*
X216498Y139166D01*
X48165Y131666D02*
Y136332D01*
X46999Y137498D01*
X44666D01*
X43500Y136332D01*
Y131666D01*
X44666Y130500D01*
X46999D01*
X45833Y132833D02*
X48165Y130500D01*
X46999D02*
X48165Y131666D01*
X50498Y130500D02*
X52830D01*
X51664D01*
Y137498D01*
X50498Y136332D01*
X13000Y67000D02*
Y73998D01*
X16499D01*
X17665Y72832D01*
Y70499D01*
X16499Y69333D01*
X13000D01*
X15333D02*
X17665Y67000D01*
X24663D02*
X19998D01*
X24663Y71665D01*
Y72832D01*
X23497Y73998D01*
X21164D01*
X19998Y72832D01*
X30494Y67000D02*
Y73998D01*
X26995Y70499D01*
X31661D01*
X76165Y231831D02*
X74999Y232998D01*
X72666D01*
X71500Y231831D01*
Y227166D01*
X72666Y226000D01*
X74999D01*
X76165Y227166D01*
X83163Y226000D02*
X78498D01*
X83163Y230665D01*
Y231831D01*
X81997Y232998D01*
X79664D01*
X78498Y231831D01*
X85496D02*
X86662Y232998D01*
X88994D01*
X90161Y231831D01*
Y227166D01*
X88994Y226000D01*
X86662D01*
X85496Y227166D01*
Y231831D01*
X39665Y179832D02*
X38499Y180998D01*
X36166D01*
X35000Y179832D01*
Y175166D01*
X36166Y174000D01*
X38499D01*
X39665Y175166D01*
X41998Y179832D02*
X43164Y180998D01*
X45497D01*
X46663Y179832D01*
Y178665D01*
X45497Y177499D01*
X44330D01*
X45497D01*
X46663Y176333D01*
Y175166D01*
X45497Y174000D01*
X43164D01*
X41998Y175166D01*
X53661Y180998D02*
X51328Y179832D01*
X48995Y177499D01*
Y175166D01*
X50162Y174000D01*
X52494D01*
X53661Y175166D01*
Y176333D01*
X52494Y177499D01*
X48995D01*
X77500Y151500D02*
Y158498D01*
X80999D01*
X82165Y157331D01*
Y154999D01*
X80999Y153833D01*
X77500D01*
X79833D02*
X82165Y151500D01*
X84498Y157331D02*
X85664Y158498D01*
X87997D01*
X89163Y157331D01*
Y156165D01*
X87997Y154999D01*
X86830D01*
X87997D01*
X89163Y153833D01*
Y152666D01*
X87997Y151500D01*
X85664D01*
X84498Y152666D01*
X91496Y157331D02*
X92662Y158498D01*
X94994D01*
X96161Y157331D01*
Y152666D01*
X94994Y151500D01*
X92662D01*
X91496Y152666D01*
Y157331D01*
X62500Y162000D02*
Y168998D01*
X65999D01*
X67165Y167831D01*
Y165499D01*
X65999Y164333D01*
X62500D01*
X64833D02*
X67165Y162000D01*
X69498Y167831D02*
X70664Y168998D01*
X72997D01*
X74163Y167831D01*
Y166665D01*
X72997Y165499D01*
X71830D01*
X72997D01*
X74163Y164333D01*
Y163166D01*
X72997Y162000D01*
X70664D01*
X69498Y163166D01*
X76495Y162000D02*
X78828D01*
X77662D01*
Y168998D01*
X76495Y167831D01*
D65*
X232750Y92250D02*
X340750D01*
X232750Y250D02*
X340750D01*
X232750D02*
Y92250D01*
X340750Y250D02*
Y92250D01*
X332750D02*
X440750D01*
X332750Y250D02*
X440750D01*
X332750D02*
Y92250D01*
X440750Y250D02*
Y92250D01*
X432750D02*
X540750D01*
X432750Y250D02*
X540750D01*
X432750D02*
Y92250D01*
X540750Y250D02*
Y92250D01*
X195500Y486000D02*
X189502D01*
Y488999D01*
X190502Y489999D01*
X192501D01*
X193501Y488999D01*
Y486000D01*
Y487999D02*
X195500Y489999D01*
Y495997D02*
Y491998D01*
X191501Y495997D01*
X190502D01*
X189502Y494997D01*
Y492998D01*
X190502Y491998D01*
X189502Y501995D02*
X190502Y499995D01*
X192501Y497996D01*
X194500D01*
X195500Y498996D01*
Y500995D01*
X194500Y501995D01*
X193501D01*
X192501Y500995D01*
Y497996D01*
X209500Y485000D02*
X203502D01*
Y487999D01*
X204502Y488999D01*
X206501D01*
X207501Y487999D01*
Y485000D01*
Y486999D02*
X209500Y488999D01*
Y494997D02*
Y490998D01*
X205501Y494997D01*
X204502D01*
X203502Y493997D01*
Y491998D01*
X204502Y490998D01*
X203502Y500995D02*
Y496996D01*
X206501D01*
X205501Y498996D01*
Y499995D01*
X206501Y500995D01*
X208500D01*
X209500Y499995D01*
Y497996D01*
X208500Y496996D01*
X177502Y444999D02*
X176502Y443999D01*
Y442000D01*
X177502Y441000D01*
X181500D01*
X182500Y442000D01*
Y443999D01*
X181500Y444999D01*
X182500Y450997D02*
Y446998D01*
X178501Y450997D01*
X177502D01*
X176502Y449997D01*
Y447998D01*
X177502Y446998D01*
X182500Y455995D02*
X176502D01*
X179501Y452996D01*
Y456995D01*
X112499Y414498D02*
X111499Y415498D01*
X109500D01*
X108500Y414498D01*
Y410500D01*
X109500Y409500D01*
X111499D01*
X112499Y410500D01*
X118497Y415498D02*
X114498D01*
Y412499D01*
X116497Y413499D01*
X117497D01*
X118497Y412499D01*
Y410500D01*
X117497Y409500D01*
X115498D01*
X114498Y410500D01*
X120496Y414498D02*
X121496Y415498D01*
X123495D01*
X124495Y414498D01*
Y410500D01*
X123495Y409500D01*
X121496D01*
X120496Y410500D01*
Y414498D01*
X198500Y432998D02*
Y427000D01*
X202499D01*
X208497D02*
X204498D01*
X208497Y430999D01*
Y431998D01*
X207497Y432998D01*
X205498D01*
X204498Y431998D01*
X233000Y453498D02*
Y448500D01*
X234000Y447500D01*
X235999D01*
X236999Y448500D01*
Y453498D01*
X238998Y452498D02*
X239998Y453498D01*
X241997D01*
X242997Y452498D01*
Y451499D01*
X241997Y450499D01*
X240997D01*
X241997D01*
X242997Y449499D01*
Y448500D01*
X241997Y447500D01*
X239998D01*
X238998Y448500D01*
X259502Y482999D02*
X258502Y481999D01*
Y480000D01*
X259502Y479000D01*
X263500D01*
X264500Y480000D01*
Y481999D01*
X263500Y482999D01*
X258502Y488997D02*
X259502Y486997D01*
X261501Y484998D01*
X263500D01*
X264500Y485998D01*
Y487997D01*
X263500Y488997D01*
X262501D01*
X261501Y487997D01*
Y484998D01*
X230499Y488498D02*
X229499Y489498D01*
X227500D01*
X226500Y488498D01*
Y484500D01*
X227500Y483500D01*
X229499D01*
X230499Y484500D01*
X236497Y489498D02*
X232498D01*
Y486499D01*
X234497Y487499D01*
X235497D01*
X236497Y486499D01*
Y484500D01*
X235497Y483500D01*
X233498D01*
X232498Y484500D01*
X120002Y316499D02*
X119002Y315499D01*
Y313500D01*
X120002Y312500D01*
X124000D01*
X125000Y313500D01*
Y315499D01*
X124000Y316499D01*
X125000Y321497D02*
X119002D01*
X122001Y318498D01*
Y322497D01*
X133502Y322499D02*
X132502Y321499D01*
Y319500D01*
X133502Y318500D01*
X137500D01*
X138500Y319500D01*
Y321499D01*
X137500Y322499D01*
X133502Y324498D02*
X132502Y325498D01*
Y327497D01*
X133502Y328497D01*
X134501D01*
X135501Y327497D01*
Y326497D01*
Y327497D01*
X136501Y328497D01*
X137500D01*
X138500Y327497D01*
Y325498D01*
X137500Y324498D01*
X112499Y402998D02*
X111499Y403998D01*
X109500D01*
X108500Y402998D01*
Y399000D01*
X109500Y398000D01*
X111499D01*
X112499Y399000D01*
X118497Y398000D02*
X114498D01*
X118497Y401999D01*
Y402998D01*
X117497Y403998D01*
X115498D01*
X114498Y402998D01*
X126502Y400999D02*
X125502Y399999D01*
Y398000D01*
X126502Y397000D01*
X130500D01*
X131500Y398000D01*
Y399999D01*
X130500Y400999D01*
X131500Y402998D02*
Y404997D01*
Y403998D01*
X125502D01*
X126502Y402998D01*
X615999Y422498D02*
X614999Y423498D01*
X613000D01*
X612000Y422498D01*
Y418500D01*
X613000Y417500D01*
X614999D01*
X615999Y418500D01*
X617998Y422498D02*
X618998Y423498D01*
X620997D01*
X621997Y422498D01*
Y421499D01*
X620997Y420499D01*
X621997Y419499D01*
Y418500D01*
X620997Y417500D01*
X618998D01*
X617998Y418500D01*
Y419499D01*
X618998Y420499D01*
X617998Y421499D01*
Y422498D01*
X618998Y420499D02*
X620997D01*
X431002Y415499D02*
X430002Y414499D01*
Y412500D01*
X431002Y411500D01*
X435000D01*
X436000Y412500D01*
Y414499D01*
X435000Y415499D01*
Y417498D02*
X436000Y418498D01*
Y420497D01*
X435000Y421497D01*
X431002D01*
X430002Y420497D01*
Y418498D01*
X431002Y417498D01*
X432001D01*
X433001Y418498D01*
Y421497D01*
X449502Y411499D02*
X448502Y410499D01*
Y408500D01*
X449502Y407500D01*
X453500D01*
X454500Y408500D01*
Y410499D01*
X453500Y411499D01*
X454500Y413498D02*
Y415497D01*
Y414498D01*
X448502D01*
X449502Y413498D01*
Y418496D02*
X448502Y419496D01*
Y421495D01*
X449502Y422495D01*
X453500D01*
X454500Y421495D01*
Y419496D01*
X453500Y418496D01*
X449502D01*
X446999Y467498D02*
X445999Y468498D01*
X444000D01*
X443000Y467498D01*
Y463500D01*
X444000Y462500D01*
X445999D01*
X446999Y463500D01*
X448998Y462500D02*
X450997D01*
X449998D01*
Y468498D01*
X448998Y467498D01*
X453996Y462500D02*
X455996D01*
X454996D01*
Y468498D01*
X453996Y467498D01*
X488999Y443498D02*
X487999Y444498D01*
X486000D01*
X485000Y443498D01*
Y439500D01*
X486000Y438500D01*
X487999D01*
X488999Y439500D01*
X490998Y438500D02*
X492997D01*
X491998D01*
Y444498D01*
X490998Y443498D01*
X499995Y438500D02*
X495996D01*
X499995Y442499D01*
Y443498D01*
X498995Y444498D01*
X496996D01*
X495996Y443498D01*
X446499Y391998D02*
X445499Y392998D01*
X443500D01*
X442500Y391998D01*
Y388000D01*
X443500Y387000D01*
X445499D01*
X446499Y388000D01*
X448498Y387000D02*
X450497D01*
X449498D01*
Y392998D01*
X448498Y391998D01*
X453496D02*
X454496Y392998D01*
X456495D01*
X457495Y391998D01*
Y390999D01*
X456495Y389999D01*
X455496D01*
X456495D01*
X457495Y388999D01*
Y388000D01*
X456495Y387000D01*
X454496D01*
X453496Y388000D01*
X497999Y473498D02*
X496999Y474498D01*
X495000D01*
X494000Y473498D01*
Y469500D01*
X495000Y468500D01*
X496999D01*
X497999Y469500D01*
X499998Y468500D02*
X501997D01*
X500998D01*
Y474498D01*
X499998Y473498D01*
X507995Y468500D02*
Y474498D01*
X504996Y471499D01*
X508995D01*
X492999Y457998D02*
X491999Y458998D01*
X490000D01*
X489000Y457998D01*
Y454000D01*
X490000Y453000D01*
X491999D01*
X492999Y454000D01*
X494998Y453000D02*
X496997D01*
X495998D01*
Y458998D01*
X494998Y457998D01*
X503995Y458998D02*
X499996D01*
Y455999D01*
X501996Y456999D01*
X502995D01*
X503995Y455999D01*
Y454000D01*
X502995Y453000D01*
X500996D01*
X499996Y454000D01*
X494502Y419499D02*
X493502Y418499D01*
Y416500D01*
X494502Y415500D01*
X498500D01*
X499500Y416500D01*
Y418499D01*
X498500Y419499D01*
X499500Y421498D02*
Y423497D01*
Y422498D01*
X493502D01*
X494502Y421498D01*
X493502Y430495D02*
X494502Y428496D01*
X496501Y426496D01*
X498500D01*
X499500Y427496D01*
Y429496D01*
X498500Y430495D01*
X497501D01*
X496501Y429496D01*
Y426496D01*
X384499Y335998D02*
X383499Y336998D01*
X381500D01*
X380500Y335998D01*
Y332000D01*
X381500Y331000D01*
X383499D01*
X384499Y332000D01*
X386498Y331000D02*
X388497D01*
X387498D01*
Y336998D01*
X386498Y335998D01*
X391496D02*
X392496Y336998D01*
X394495D01*
X395495Y335998D01*
Y334999D01*
X394495Y333999D01*
X395495Y332999D01*
Y332000D01*
X394495Y331000D01*
X392496D01*
X391496Y332000D01*
Y332999D01*
X392496Y333999D01*
X391496Y334999D01*
Y335998D01*
X392496Y333999D02*
X394495D01*
X371999Y464998D02*
X370999Y465998D01*
X369000D01*
X368000Y464998D01*
Y461000D01*
X369000Y460000D01*
X370999D01*
X371999Y461000D01*
X377997Y460000D02*
X373998D01*
X377997Y463999D01*
Y464998D01*
X376997Y465998D01*
X374998D01*
X373998Y464998D01*
X379996Y465998D02*
X383995D01*
Y464998D01*
X379996Y461000D01*
Y460000D01*
X443502Y368499D02*
X442502Y367499D01*
Y365500D01*
X443502Y364500D01*
X447500D01*
X448500Y365500D01*
Y367499D01*
X447500Y368499D01*
X448500Y374497D02*
Y370498D01*
X444501Y374497D01*
X443502D01*
X442502Y373497D01*
Y371498D01*
X443502Y370498D01*
Y376496D02*
X442502Y377496D01*
Y379495D01*
X443502Y380495D01*
X444501D01*
X445501Y379495D01*
X446501Y380495D01*
X447500D01*
X448500Y379495D01*
Y377496D01*
X447500Y376496D01*
X446501D01*
X445501Y377496D01*
X444501Y376496D01*
X443502D01*
X445501Y377496D02*
Y379495D01*
X372999Y498498D02*
X371999Y499498D01*
X370000D01*
X369000Y498498D01*
Y494500D01*
X370000Y493500D01*
X371999D01*
X372999Y494500D01*
X374998Y498498D02*
X375998Y499498D01*
X377997D01*
X378997Y498498D01*
Y497499D01*
X377997Y496499D01*
X376997D01*
X377997D01*
X378997Y495499D01*
Y494500D01*
X377997Y493500D01*
X375998D01*
X374998Y494500D01*
X380996Y498498D02*
X381996Y499498D01*
X383995D01*
X384995Y498498D01*
Y494500D01*
X383995Y493500D01*
X381996D01*
X380996Y494500D01*
Y498498D01*
X380502Y244999D02*
X379502Y243999D01*
Y242000D01*
X380502Y241000D01*
X384500D01*
X385500Y242000D01*
Y243999D01*
X384500Y244999D01*
X380502Y246998D02*
X379502Y247998D01*
Y249997D01*
X380502Y250997D01*
X381501D01*
X382501Y249997D01*
Y248997D01*
Y249997D01*
X383501Y250997D01*
X384500D01*
X385500Y249997D01*
Y247998D01*
X384500Y246998D01*
X385500Y252996D02*
Y254995D01*
Y253996D01*
X379502D01*
X380502Y252996D01*
X366502Y244999D02*
X365502Y243999D01*
Y242000D01*
X366502Y241000D01*
X370500D01*
X371500Y242000D01*
Y243999D01*
X370500Y244999D01*
X366502Y246998D02*
X365502Y247998D01*
Y249997D01*
X366502Y250997D01*
X367501D01*
X368501Y249997D01*
Y248997D01*
Y249997D01*
X369501Y250997D01*
X370500D01*
X371500Y249997D01*
Y247998D01*
X370500Y246998D01*
X371500Y256995D02*
Y252996D01*
X367501Y256995D01*
X366502D01*
X365502Y255995D01*
Y253996D01*
X366502Y252996D01*
X298002Y361999D02*
X297002Y360999D01*
Y359000D01*
X298002Y358000D01*
X302000D01*
X303000Y359000D01*
Y360999D01*
X302000Y361999D01*
X298002Y363998D02*
X297002Y364998D01*
Y366997D01*
X298002Y367997D01*
X299001D01*
X300001Y366997D01*
Y365997D01*
Y366997D01*
X301001Y367997D01*
X302000D01*
X303000Y366997D01*
Y364998D01*
X302000Y363998D01*
X303000Y372995D02*
X297002D01*
X300001Y369996D01*
Y373995D01*
X356499Y335498D02*
X355499Y336498D01*
X353500D01*
X352500Y335498D01*
Y331500D01*
X353500Y330500D01*
X355499D01*
X356499Y331500D01*
X361497Y330500D02*
Y336498D01*
X358498Y333499D01*
X362497D01*
X364496Y335498D02*
X365496Y336498D01*
X367495D01*
X368495Y335498D01*
Y334499D01*
X367495Y333499D01*
X366496D01*
X367495D01*
X368495Y332499D01*
Y331500D01*
X367495Y330500D01*
X365496D01*
X364496Y331500D01*
X257002Y400999D02*
X256002Y399999D01*
Y398000D01*
X257002Y397000D01*
X261000D01*
X262000Y398000D01*
Y399999D01*
X261000Y400999D01*
X262000Y405997D02*
X256002D01*
X259001Y402998D01*
Y406997D01*
X256002Y412995D02*
Y408996D01*
X259001D01*
X258001Y410995D01*
Y411995D01*
X259001Y412995D01*
X261000D01*
X262000Y411995D01*
Y409996D01*
X261000Y408996D01*
X297502Y383999D02*
X296502Y382999D01*
Y381000D01*
X297502Y380000D01*
X301500D01*
X302500Y381000D01*
Y382999D01*
X301500Y383999D01*
X302500Y388997D02*
X296502D01*
X299501Y385998D01*
Y389997D01*
X296502Y395995D02*
X297502Y393996D01*
X299501Y391996D01*
X301500D01*
X302500Y392996D01*
Y394995D01*
X301500Y395995D01*
X300501D01*
X299501Y394995D01*
Y391996D01*
X298502Y462999D02*
X297502Y461999D01*
Y460000D01*
X298502Y459000D01*
X302500D01*
X303500Y460000D01*
Y461999D01*
X302500Y462999D01*
X303500Y467997D02*
X297502D01*
X300501Y464998D01*
Y468997D01*
X297502Y470996D02*
Y474995D01*
X298502D01*
X302500Y470996D01*
X303500D01*
X309002Y456499D02*
X308002Y455499D01*
Y453500D01*
X309002Y452500D01*
X313000D01*
X314000Y453500D01*
Y455499D01*
X313000Y456499D01*
X314000Y461497D02*
X308002D01*
X311001Y458498D01*
Y462497D01*
X309002Y464496D02*
X308002Y465496D01*
Y467495D01*
X309002Y468495D01*
X310001D01*
X311001Y467495D01*
X312001Y468495D01*
X313000D01*
X314000Y467495D01*
Y465496D01*
X313000Y464496D01*
X312001D01*
X311001Y465496D01*
X310001Y464496D01*
X309002D01*
X311001Y465496D02*
Y467495D01*
X284002Y383999D02*
X283002Y382999D01*
Y381000D01*
X284002Y380000D01*
X288000D01*
X289000Y381000D01*
Y382999D01*
X288000Y383999D01*
X289000Y388997D02*
X283002D01*
X286001Y385998D01*
Y389997D01*
X288000Y391996D02*
X289000Y392996D01*
Y394995D01*
X288000Y395995D01*
X284002D01*
X283002Y394995D01*
Y392996D01*
X284002Y391996D01*
X285001D01*
X286001Y392996D01*
Y395995D01*
X523000Y444500D02*
Y450498D01*
X525999D01*
X526999Y449498D01*
Y447499D01*
X525999Y446499D01*
X523000D01*
X524999D02*
X526999Y444500D01*
X528998D02*
X530997D01*
X529998D01*
Y450498D01*
X528998Y449498D01*
X522500Y460000D02*
Y465998D01*
X525499D01*
X526499Y464998D01*
Y462999D01*
X525499Y461999D01*
X522500D01*
X524499D02*
X526499Y460000D01*
X532497D02*
X528498D01*
X532497Y463999D01*
Y464998D01*
X531497Y465998D01*
X529498D01*
X528498Y464998D01*
X522000Y474500D02*
Y480498D01*
X524999D01*
X525999Y479498D01*
Y477499D01*
X524999Y476499D01*
X522000D01*
X523999D02*
X525999Y474500D01*
X527998Y479498D02*
X528998Y480498D01*
X530997D01*
X531997Y479498D01*
Y478499D01*
X530997Y477499D01*
X529997D01*
X530997D01*
X531997Y476499D01*
Y475500D01*
X530997Y474500D01*
X528998D01*
X527998Y475500D01*
X523000Y430500D02*
Y436498D01*
X525999D01*
X526999Y435498D01*
Y433499D01*
X525999Y432499D01*
X523000D01*
X524999D02*
X526999Y430500D01*
X531997D02*
Y436498D01*
X528998Y433499D01*
X532997D01*
X445500Y412000D02*
X439502D01*
Y414999D01*
X440502Y415999D01*
X442501D01*
X443501Y414999D01*
Y412000D01*
Y413999D02*
X445500Y415999D01*
X439502Y421997D02*
Y417998D01*
X442501D01*
X441501Y419997D01*
Y420997D01*
X442501Y421997D01*
X444500D01*
X445500Y420997D01*
Y418998D01*
X444500Y417998D01*
X491000Y419500D02*
X485002D01*
Y422499D01*
X486002Y423499D01*
X488001D01*
X489001Y422499D01*
Y419500D01*
Y421499D02*
X491000Y423499D01*
X485002Y429497D02*
X486002Y427497D01*
X488001Y425498D01*
X490000D01*
X491000Y426498D01*
Y428497D01*
X490000Y429497D01*
X489001D01*
X488001Y428497D01*
Y425498D01*
X465000Y386500D02*
Y392498D01*
X467999D01*
X468999Y391498D01*
Y389499D01*
X467999Y388499D01*
X465000D01*
X466999D02*
X468999Y386500D01*
X470998Y392498D02*
X474997D01*
Y391498D01*
X470998Y387500D01*
Y386500D01*
X424500Y480000D02*
Y485998D01*
X427499D01*
X428499Y484998D01*
Y482999D01*
X427499Y481999D01*
X424500D01*
X426499D02*
X428499Y480000D01*
X430498Y484998D02*
X431498Y485998D01*
X433497D01*
X434497Y484998D01*
Y483999D01*
X433497Y482999D01*
X434497Y481999D01*
Y481000D01*
X433497Y480000D01*
X431498D01*
X430498Y481000D01*
Y481999D01*
X431498Y482999D01*
X430498Y483999D01*
Y484998D01*
X431498Y482999D02*
X433497D01*
X405000Y460000D02*
Y465998D01*
X407999D01*
X408999Y464998D01*
Y462999D01*
X407999Y461999D01*
X405000D01*
X406999D02*
X408999Y460000D01*
X410998Y461000D02*
X411998Y460000D01*
X413997D01*
X414997Y461000D01*
Y464998D01*
X413997Y465998D01*
X411998D01*
X410998Y464998D01*
Y463999D01*
X411998Y462999D01*
X414997D01*
X390500Y492750D02*
Y498748D01*
X393499D01*
X394499Y497748D01*
Y495749D01*
X393499Y494749D01*
X390500D01*
X392499D02*
X394499Y492750D01*
X396498D02*
X398497D01*
X397498D01*
Y498748D01*
X396498Y497748D01*
X401496Y492750D02*
X403496D01*
X402496D01*
Y498748D01*
X401496Y497748D01*
X347000Y462500D02*
Y468498D01*
X349999D01*
X350999Y467498D01*
Y465499D01*
X349999Y464499D01*
X347000D01*
X348999D02*
X350999Y462500D01*
X352998D02*
X354997D01*
X353998D01*
Y468498D01*
X352998Y467498D01*
X360995Y462500D02*
Y468498D01*
X357996Y465499D01*
X361995D01*
X281000Y496000D02*
Y501998D01*
X283999D01*
X284999Y500998D01*
Y498999D01*
X283999Y497999D01*
X281000D01*
X282999D02*
X284999Y496000D01*
X286998D02*
X288997D01*
X287998D01*
Y501998D01*
X286998Y500998D01*
X291996Y501998D02*
X295995D01*
Y500998D01*
X291996Y497000D01*
Y496000D01*
X262000D02*
Y501998D01*
X264999D01*
X265999Y500998D01*
Y498999D01*
X264999Y497999D01*
X262000D01*
X263999D02*
X265999Y496000D01*
X267998D02*
X269997D01*
X268998D01*
Y501998D01*
X267998Y500998D01*
X272996D02*
X273996Y501998D01*
X275996D01*
X276995Y500998D01*
Y499999D01*
X275996Y498999D01*
X276995Y497999D01*
Y497000D01*
X275996Y496000D01*
X273996D01*
X272996Y497000D01*
Y497999D01*
X273996Y498999D01*
X272996Y499999D01*
Y500998D01*
X273996Y498999D02*
X275996D01*
X271000Y450000D02*
Y455998D01*
X273999D01*
X274999Y454998D01*
Y452999D01*
X273999Y451999D01*
X271000D01*
X272999D02*
X274999Y450000D01*
X276998D02*
X278997D01*
X277998D01*
Y455998D01*
X276998Y454998D01*
X281996Y451000D02*
X282996Y450000D01*
X284995D01*
X285995Y451000D01*
Y454998D01*
X284995Y455998D01*
X282996D01*
X281996Y454998D01*
Y453999D01*
X282996Y452999D01*
X285995D01*
X595000Y490998D02*
Y486000D01*
X596000Y485000D01*
X597999D01*
X598999Y486000D01*
Y490998D01*
X600998Y485000D02*
X602997D01*
X601998D01*
Y490998D01*
X600998Y489998D01*
X322000Y462750D02*
Y468748D01*
X324999D01*
X325999Y467748D01*
Y465749D01*
X324999Y464749D01*
X322000D01*
X323999D02*
X325999Y462750D01*
X327998D02*
X329997D01*
X328998D01*
Y468748D01*
X327998Y467748D01*
X332996D02*
X333996Y468748D01*
X335995D01*
X336995Y467748D01*
Y466749D01*
X335995Y465749D01*
X334996D01*
X335995D01*
X336995Y464749D01*
Y463750D01*
X335995Y462750D01*
X333996D01*
X332996Y463750D01*
X305500Y494500D02*
Y500498D01*
X308499D01*
X309499Y499498D01*
Y497499D01*
X308499Y496499D01*
X305500D01*
X307499D02*
X309499Y494500D01*
X315497D02*
X311498D01*
X315497Y498499D01*
Y499498D01*
X314497Y500498D01*
X312498D01*
X311498Y499498D01*
X317496D02*
X318496Y500498D01*
X320495D01*
X321495Y499498D01*
Y495500D01*
X320495Y494500D01*
X318496D01*
X317496Y495500D01*
Y499498D01*
X336000Y494500D02*
Y500498D01*
X338999D01*
X339999Y499498D01*
Y497499D01*
X338999Y496499D01*
X336000D01*
X337999D02*
X339999Y494500D01*
X345997D02*
X341998D01*
X345997Y498499D01*
Y499498D01*
X344997Y500498D01*
X342998D01*
X341998Y499498D01*
X347996Y494500D02*
X349995D01*
X348996D01*
Y500498D01*
X347996Y499498D01*
X145502Y400499D02*
X144502Y399499D01*
Y397500D01*
X145502Y396500D01*
X149500D01*
X150500Y397500D01*
Y399499D01*
X149500Y400499D01*
X150500Y406497D02*
Y402498D01*
X146501Y406497D01*
X145502D01*
X144502Y405497D01*
Y403498D01*
X145502Y402498D01*
Y408496D02*
X144502Y409496D01*
Y411495D01*
X145502Y412495D01*
X146501D01*
X147501Y411495D01*
Y410495D01*
Y411495D01*
X148501Y412495D01*
X149500D01*
X150500Y411495D01*
Y409496D01*
X149500Y408496D01*
X71500Y311000D02*
Y316998D01*
X74499D01*
X75499Y315998D01*
Y313999D01*
X74499Y312999D01*
X71500D01*
X73499D02*
X75499Y311000D01*
X81497D02*
X77498D01*
X81497Y314999D01*
Y315998D01*
X80497Y316998D01*
X78498D01*
X77498Y315998D01*
X83496Y316998D02*
X87495D01*
Y315998D01*
X83496Y312000D01*
Y311000D01*
X94500D02*
Y316998D01*
X97499D01*
X98499Y315998D01*
Y313999D01*
X97499Y312999D01*
X94500D01*
X96499D02*
X98499Y311000D01*
X104497D02*
X100498D01*
X104497Y314999D01*
Y315998D01*
X103497Y316998D01*
X101498D01*
X100498Y315998D01*
X106496D02*
X107496Y316998D01*
X109495D01*
X110495Y315998D01*
Y314999D01*
X109495Y313999D01*
X110495Y312999D01*
Y312000D01*
X109495Y311000D01*
X107496D01*
X106496Y312000D01*
Y312999D01*
X107496Y313999D01*
X106496Y314999D01*
Y315998D01*
X107496Y313999D02*
X109495D01*
X259999Y432498D02*
X258999Y433498D01*
X257000D01*
X256000Y432498D01*
Y428500D01*
X257000Y427500D01*
X258999D01*
X259999Y428500D01*
X264997Y427500D02*
Y433498D01*
X261998Y430499D01*
X265997D01*
X267996Y432498D02*
X268996Y433498D01*
X270995D01*
X271995Y432498D01*
Y428500D01*
X270995Y427500D01*
X268996D01*
X267996Y428500D01*
Y432498D01*
D66*
X10832Y493164D02*
X9499Y494497D01*
X6833D01*
X5500Y493164D01*
Y487833D01*
X6833Y486500D01*
X9499D01*
X10832Y487833D01*
Y490499D01*
X8166D01*
X13497Y486500D02*
Y494497D01*
X18829Y486500D01*
Y494497D01*
X21495D02*
Y486500D01*
X25494D01*
X26826Y487833D01*
Y493164D01*
X25494Y494497D01*
X21495D01*
X4500Y423999D02*
X9832D01*
X7166Y426665D02*
Y421333D01*
X17829Y427997D02*
X12497D01*
Y423999D01*
X15163Y425332D01*
X16496D01*
X17829Y423999D01*
Y421333D01*
X16496Y420000D01*
X13830D01*
X12497Y421333D01*
X20495Y427997D02*
Y422666D01*
X23161Y420000D01*
X25826Y422666D01*
Y427997D01*
M02*
