G04 Layer_Color=8388736*
%FSLAX44Y44*%
%MOMM*%
G71*
G01*
G75*
%ADD61C,0.2540*%
%ADD123C,0.1524*%
D61*
X650000Y-29540D02*
Y27460D01*
X0Y-29540D02*
Y27460D01*
X374514Y-27000D02*
X650000D01*
X0D02*
X267358D01*
X634760Y-21920D02*
X650000Y-27000D01*
X634760Y-32080D02*
X650000Y-27000D01*
X0D02*
X15240Y-32080D01*
X0Y-27000D02*
X15240Y-21920D01*
X620000Y0D02*
X680540D01*
X623040Y560000D02*
X680540D01*
X678000Y0D02*
Y222358D01*
Y329514D02*
Y560000D01*
Y0D02*
X683080Y15240D01*
X672920D02*
X678000Y0D01*
X672920Y544760D02*
X678000Y560000D01*
X683080Y544760D01*
D123*
X281579Y-20907D02*
X276500Y-23446D01*
X271422Y-28524D01*
Y-33602D01*
X273961Y-36142D01*
X279039D01*
X281579Y-33602D01*
Y-31063D01*
X279039Y-28524D01*
X271422D01*
X296814Y-20907D02*
X286657D01*
Y-28524D01*
X291735Y-25985D01*
X294275D01*
X296814Y-28524D01*
Y-33602D01*
X294275Y-36142D01*
X289196D01*
X286657Y-33602D01*
X301892Y-36142D02*
Y-33602D01*
X304431D01*
Y-36142D01*
X301892D01*
X314588Y-23446D02*
X317127Y-20907D01*
X322206D01*
X324745Y-23446D01*
Y-33602D01*
X322206Y-36142D01*
X317127D01*
X314588Y-33602D01*
Y-23446D01*
X329823D02*
X332362Y-20907D01*
X337441D01*
X339980Y-23446D01*
Y-33602D01*
X337441Y-36142D01*
X332362D01*
X329823Y-33602D01*
Y-23446D01*
X345058Y-36142D02*
Y-25985D01*
X347597D01*
X350136Y-28524D01*
Y-36142D01*
Y-28524D01*
X352676Y-25985D01*
X355215Y-28524D01*
Y-36142D01*
X360293D02*
Y-25985D01*
X362832D01*
X365372Y-28524D01*
Y-36142D01*
Y-28524D01*
X367911Y-25985D01*
X370450Y-28524D01*
Y-36142D01*
X671907Y236579D02*
Y226422D01*
X679524D01*
X676985Y231500D01*
Y234039D01*
X679524Y236579D01*
X684602D01*
X687141Y234039D01*
Y228961D01*
X684602Y226422D01*
X671907Y251814D02*
X674446Y246735D01*
X679524Y241657D01*
X684602D01*
X687141Y244196D01*
Y249275D01*
X684602Y251814D01*
X682063D01*
X679524Y249275D01*
Y241657D01*
X687141Y256892D02*
X684602D01*
Y259431D01*
X687141D01*
Y256892D01*
X674446Y269588D02*
X671907Y272127D01*
Y277206D01*
X674446Y279745D01*
X684602D01*
X687141Y277206D01*
Y272127D01*
X684602Y269588D01*
X674446D01*
Y284823D02*
X671907Y287362D01*
Y292441D01*
X674446Y294980D01*
X684602D01*
X687141Y292441D01*
Y287362D01*
X684602Y284823D01*
X674446D01*
X687141Y300058D02*
X676985D01*
Y302597D01*
X679524Y305137D01*
X687141D01*
X679524D01*
X676985Y307676D01*
X679524Y310215D01*
X687141D01*
Y315293D02*
X676985D01*
Y317832D01*
X679524Y320372D01*
X687141D01*
X679524D01*
X676985Y322911D01*
X679524Y325450D01*
X687141D01*
M02*
