G04 Layer_Physical_Order=1*
G04 Layer_Color=255*
%FSLAX44Y44*%
%MOMM*%
G71*
G01*
G75*
%ADD10R,2.8000X2.4000*%
%ADD11R,0.6000X0.4000*%
%ADD12R,0.8000X0.9000*%
%ADD13R,3.4000X1.0000*%
%ADD14R,1.0000X1.3500*%
%ADD15R,9.0000X2.4000*%
%ADD16R,4.0000X1.8000*%
%ADD17R,1.8000X4.0000*%
%ADD18R,1.4000X0.8500*%
G04:AMPARAMS|DCode=19|XSize=0.25mm|YSize=0.6mm|CornerRadius=0.025mm|HoleSize=0mm|Usage=FLASHONLY|Rotation=90.000|XOffset=0mm|YOffset=0mm|HoleType=Round|Shape=RoundedRectangle|*
%AMROUNDEDRECTD19*
21,1,0.2500,0.5500,0,0,90.0*
21,1,0.2000,0.6000,0,0,90.0*
1,1,0.0500,0.2750,0.1000*
1,1,0.0500,0.2750,-0.1000*
1,1,0.0500,-0.2750,-0.1000*
1,1,0.0500,-0.2750,0.1000*
%
%ADD19ROUNDEDRECTD19*%
G04:AMPARAMS|DCode=20|XSize=0.25mm|YSize=0.6mm|CornerRadius=0.025mm|HoleSize=0mm|Usage=FLASHONLY|Rotation=180.000|XOffset=0mm|YOffset=0mm|HoleType=Round|Shape=RoundedRectangle|*
%AMROUNDEDRECTD20*
21,1,0.2500,0.5500,0,0,180.0*
21,1,0.2000,0.6000,0,0,180.0*
1,1,0.0500,-0.1000,0.2750*
1,1,0.0500,0.1000,0.2750*
1,1,0.0500,0.1000,-0.2750*
1,1,0.0500,-0.1000,-0.2750*
%
%ADD20ROUNDEDRECTD20*%
%ADD21R,1.7000X1.7000*%
%ADD22R,1.0000X0.6000*%
%ADD23R,0.9000X0.8000*%
%ADD24R,0.7000X1.0000*%
%ADD25R,1.0000X2.7000*%
%ADD26R,1.5200X0.6000*%
%ADD27R,5.2000X4.1000*%
G04:AMPARAMS|DCode=28|XSize=0.25mm|YSize=1.55mm|CornerRadius=0.025mm|HoleSize=0mm|Usage=FLASHONLY|Rotation=180.000|XOffset=0mm|YOffset=0mm|HoleType=Round|Shape=RoundedRectangle|*
%AMROUNDEDRECTD28*
21,1,0.2500,1.5000,0,0,180.0*
21,1,0.2000,1.5500,0,0,180.0*
1,1,0.0500,-0.1000,0.7500*
1,1,0.0500,0.1000,0.7500*
1,1,0.0500,0.1000,-0.7500*
1,1,0.0500,-0.1000,-0.7500*
%
%ADD28ROUNDEDRECTD28*%
G04:AMPARAMS|DCode=29|XSize=0.25mm|YSize=1.55mm|CornerRadius=0.025mm|HoleSize=0mm|Usage=FLASHONLY|Rotation=270.000|XOffset=0mm|YOffset=0mm|HoleType=Round|Shape=RoundedRectangle|*
%AMROUNDEDRECTD29*
21,1,0.2500,1.5000,0,0,270.0*
21,1,0.2000,1.5500,0,0,270.0*
1,1,0.0500,-0.7500,-0.1000*
1,1,0.0500,-0.7500,0.1000*
1,1,0.0500,0.7500,0.1000*
1,1,0.0500,0.7500,-0.1000*
%
%ADD29ROUNDEDRECTD29*%
%ADD30R,1.3500X1.0000*%
%ADD31R,1.0000X0.7000*%
G04:AMPARAMS|DCode=32|XSize=0.6mm|YSize=0.5mm|CornerRadius=0.0125mm|HoleSize=0mm|Usage=FLASHONLY|Rotation=180.000|XOffset=0mm|YOffset=0mm|HoleType=Round|Shape=RoundedRectangle|*
%AMROUNDEDRECTD32*
21,1,0.6000,0.4750,0,0,180.0*
21,1,0.5750,0.5000,0,0,180.0*
1,1,0.0250,-0.2875,0.2375*
1,1,0.0250,0.2875,0.2375*
1,1,0.0250,0.2875,-0.2375*
1,1,0.0250,-0.2875,-0.2375*
%
%ADD32ROUNDEDRECTD32*%
%ADD33C,0.2500*%
%ADD34C,0.3000*%
%ADD35C,0.8000*%
%ADD36C,0.6000*%
%ADD37C,0.7000*%
%ADD38C,0.9000*%
%ADD39C,1.0000*%
%ADD40C,0.4000*%
%ADD41C,0.5000*%
%ADD42C,1.5000*%
%ADD43C,0.2400*%
%ADD44C,0.2250*%
%ADD45C,1.2000*%
%ADD46C,0.6900*%
%ADD47C,0.2000*%
%ADD48C,0.3800*%
%ADD49C,1.6000*%
%ADD50C,1.4000*%
%ADD51R,1.6000X1.6000*%
%ADD52O,1.6000X1.5600*%
%ADD53R,1.6000X1.6000*%
%ADD54C,2.2000*%
%ADD55C,2.6000*%
%ADD56R,2.6000X2.6000*%
%ADD57C,0.8000*%
%ADD58C,0.6000*%
%ADD59C,0.9000*%
G36*
X602996Y554959D02*
X601936Y554520D01*
X601819Y554465D01*
X601697Y554419D01*
X600997Y554076D01*
X600293Y553743D01*
X600182Y553676D01*
X600065Y553619D01*
X598713Y552872D01*
X598603Y552804D01*
X598487Y552745D01*
X597830Y552326D01*
X597168Y551916D01*
X597064Y551837D01*
X596955Y551767D01*
X595695Y550873D01*
X595593Y550793D01*
X595484Y550721D01*
X594879Y550231D01*
X594266Y549750D01*
X594172Y549660D01*
X594071Y549578D01*
X592920Y548549D01*
X592827Y548458D01*
X592727Y548375D01*
X592179Y547819D01*
X591625Y547273D01*
X591542Y547173D01*
X591451Y547080D01*
X590422Y545929D01*
X590340Y545828D01*
X590250Y545734D01*
X589768Y545120D01*
X589279Y544516D01*
X589207Y544407D01*
X589127Y544305D01*
X588233Y543045D01*
X588163Y542935D01*
X588084Y542832D01*
X587675Y542170D01*
X587255Y541513D01*
X587196Y541397D01*
X587128Y541287D01*
X586381Y539935D01*
X586324Y539818D01*
X586257Y539707D01*
X585924Y539002D01*
X585581Y538303D01*
X585535Y538181D01*
X585480Y538064D01*
X584889Y536637D01*
X584845Y536514D01*
X584791Y536396D01*
X584539Y535658D01*
X584276Y534925D01*
X584245Y534799D01*
X584203Y534676D01*
X583775Y533192D01*
X583745Y533066D01*
X583705Y532942D01*
X583537Y532181D01*
X583358Y531423D01*
X583341Y531294D01*
X583313Y531167D01*
X583054Y529645D01*
X583039Y529516D01*
X583013Y529388D01*
X582931Y528613D01*
X582838Y527840D01*
X582835Y527710D01*
X582822Y527580D01*
X582735Y526039D01*
X582734Y525909D01*
X582722Y525779D01*
X582728Y525000D01*
X582722Y524221D01*
X582734Y524091D01*
X582735Y523961D01*
X582822Y522420D01*
X582835Y522290D01*
X582838Y522160D01*
X582931Y521387D01*
X583013Y520612D01*
X583039Y520484D01*
X583054Y520355D01*
X583313Y518833D01*
X583341Y518706D01*
X583358Y518577D01*
X583537Y517819D01*
X583705Y517058D01*
X583745Y516934D01*
X583775Y516808D01*
X584203Y515324D01*
X584245Y515201D01*
X584276Y515075D01*
X584539Y514341D01*
X584791Y513604D01*
X584845Y513486D01*
X584889Y513363D01*
X585480Y511936D01*
X585535Y511819D01*
X585581Y511697D01*
X585924Y510997D01*
X586257Y510293D01*
X586324Y510182D01*
X586381Y510065D01*
X587128Y508713D01*
X587196Y508603D01*
X587255Y508487D01*
X587674Y507830D01*
X588084Y507168D01*
X588163Y507064D01*
X588233Y506955D01*
X589127Y505695D01*
X589207Y505593D01*
X589279Y505484D01*
X589769Y504879D01*
X590250Y504266D01*
X590340Y504172D01*
X590422Y504071D01*
X591451Y502920D01*
X591542Y502827D01*
X591625Y502727D01*
X592181Y502179D01*
X592727Y501625D01*
X592827Y501542D01*
X592920Y501451D01*
X594071Y500422D01*
X594172Y500340D01*
X594266Y500250D01*
X594880Y499768D01*
X595484Y499279D01*
X595593Y499207D01*
X595695Y499127D01*
X596955Y498233D01*
X597065Y498163D01*
X597168Y498084D01*
X597830Y497675D01*
X598487Y497255D01*
X598603Y497196D01*
X598713Y497128D01*
X600065Y496381D01*
X600182Y496324D01*
X600293Y496257D01*
X600998Y495924D01*
X601697Y495581D01*
X601819Y495535D01*
X601936Y495480D01*
X603363Y494889D01*
X603486Y494845D01*
X603604Y494791D01*
X604342Y494539D01*
X605075Y494276D01*
X605201Y494245D01*
X605324Y494203D01*
X606808Y493775D01*
X606934Y493745D01*
X607058Y493705D01*
X607819Y493537D01*
X608577Y493358D01*
X608706Y493341D01*
X608833Y493313D01*
X610355Y493054D01*
X610484Y493039D01*
X610612Y493013D01*
X611387Y492931D01*
X612160Y492838D01*
X612290Y492835D01*
X612420Y492822D01*
X613961Y492735D01*
X614091Y492734D01*
X614221Y492722D01*
X614611Y492725D01*
X615000Y492706D01*
X615389Y492725D01*
X615779Y492722D01*
X615909Y492734D01*
X616039Y492735D01*
X617580Y492822D01*
X617710Y492835D01*
X617840Y492838D01*
X618613Y492931D01*
X619388Y493013D01*
X619516Y493039D01*
X619645Y493054D01*
X621167Y493313D01*
X621294Y493341D01*
X621423Y493358D01*
X622181Y493537D01*
X622942Y493705D01*
X623066Y493745D01*
X623192Y493775D01*
X624676Y494203D01*
X624799Y494245D01*
X624925Y494276D01*
X625659Y494539D01*
X626396Y494791D01*
X626514Y494845D01*
X626637Y494889D01*
X628063Y495480D01*
X628181Y495535D01*
X628303Y495581D01*
X629003Y495924D01*
X629707Y496257D01*
X629818Y496324D01*
X629935Y496381D01*
X631287Y497128D01*
X631397Y497196D01*
X631513Y497255D01*
X632170Y497674D01*
X632832Y498084D01*
X632936Y498163D01*
X633045Y498233D01*
X634305Y499127D01*
X634407Y499207D01*
X634516Y499279D01*
X635121Y499769D01*
X635734Y500250D01*
X635828Y500340D01*
X635929Y500422D01*
X637080Y501451D01*
X637173Y501542D01*
X637273Y501625D01*
X637821Y502181D01*
X638375Y502727D01*
X638458Y502827D01*
X638549Y502920D01*
X639578Y504071D01*
X639660Y504172D01*
X639750Y504266D01*
X640232Y504880D01*
X640721Y505484D01*
X640793Y505593D01*
X640873Y505695D01*
X641767Y506955D01*
X641837Y507065D01*
X641916Y507168D01*
X642325Y507830D01*
X642745Y508487D01*
X642804Y508603D01*
X642872Y508713D01*
X643619Y510065D01*
X643676Y510182D01*
X643743Y510293D01*
X644076Y510998D01*
X644419Y511697D01*
X644465Y511819D01*
X644520Y511936D01*
X644959Y512996D01*
X646483Y512693D01*
Y47307D01*
X644959Y47004D01*
X644520Y48064D01*
X644465Y48181D01*
X644419Y48303D01*
X644076Y49003D01*
X643743Y49707D01*
X643676Y49818D01*
X643619Y49935D01*
X642872Y51287D01*
X642804Y51397D01*
X642745Y51513D01*
X642326Y52170D01*
X641916Y52832D01*
X641837Y52936D01*
X641767Y53045D01*
X640873Y54305D01*
X640793Y54407D01*
X640721Y54516D01*
X640231Y55121D01*
X639750Y55734D01*
X639660Y55828D01*
X639578Y55929D01*
X638549Y57080D01*
X638458Y57173D01*
X638375Y57273D01*
X637819Y57821D01*
X637273Y58375D01*
X637173Y58458D01*
X637080Y58549D01*
X635929Y59578D01*
X635828Y59660D01*
X635734Y59750D01*
X635120Y60232D01*
X634516Y60721D01*
X634407Y60793D01*
X634305Y60873D01*
X633045Y61767D01*
X632935Y61837D01*
X632832Y61916D01*
X632170Y62325D01*
X631513Y62745D01*
X631397Y62804D01*
X631287Y62872D01*
X629935Y63619D01*
X629818Y63676D01*
X629707Y63743D01*
X629002Y64076D01*
X628303Y64419D01*
X628181Y64465D01*
X628064Y64520D01*
X626637Y65111D01*
X626514Y65155D01*
X626396Y65209D01*
X625658Y65461D01*
X624925Y65724D01*
X624799Y65755D01*
X624676Y65797D01*
X623192Y66225D01*
X623066Y66255D01*
X622942Y66295D01*
X622181Y66463D01*
X621423Y66642D01*
X621294Y66659D01*
X621167Y66687D01*
X619645Y66946D01*
X619516Y66961D01*
X619388Y66987D01*
X618613Y67069D01*
X617840Y67162D01*
X617710Y67165D01*
X617580Y67178D01*
X616039Y67265D01*
X615909Y67266D01*
X615779Y67278D01*
X615389Y67275D01*
X615000Y67294D01*
X614611Y67275D01*
X614221Y67278D01*
X614091Y67266D01*
X613961Y67265D01*
X612420Y67178D01*
X612290Y67165D01*
X612160Y67162D01*
X611387Y67069D01*
X610612Y66987D01*
X610484Y66961D01*
X610355Y66946D01*
X608833Y66687D01*
X608706Y66659D01*
X608577Y66642D01*
X607819Y66463D01*
X607058Y66295D01*
X606934Y66255D01*
X606808Y66225D01*
X605324Y65797D01*
X605201Y65755D01*
X605075Y65724D01*
X604341Y65461D01*
X603604Y65209D01*
X603486Y65155D01*
X603363Y65111D01*
X601936Y64520D01*
X601819Y64465D01*
X601697Y64419D01*
X600997Y64076D01*
X600293Y63743D01*
X600182Y63676D01*
X600065Y63619D01*
X598713Y62872D01*
X598603Y62804D01*
X598487Y62745D01*
X597830Y62326D01*
X597168Y61916D01*
X597064Y61837D01*
X596955Y61767D01*
X595695Y60873D01*
X595593Y60793D01*
X595484Y60721D01*
X594879Y60231D01*
X594266Y59750D01*
X594172Y59660D01*
X594071Y59578D01*
X592920Y58549D01*
X592827Y58458D01*
X592727Y58375D01*
X592179Y57819D01*
X591625Y57273D01*
X591542Y57173D01*
X591451Y57080D01*
X590422Y55929D01*
X590340Y55828D01*
X590250Y55734D01*
X589768Y55120D01*
X589279Y54516D01*
X589207Y54407D01*
X589127Y54305D01*
X588233Y53045D01*
X588163Y52936D01*
X588084Y52832D01*
X587675Y52171D01*
X587255Y51513D01*
X587196Y51397D01*
X587128Y51287D01*
X586381Y49935D01*
X586324Y49818D01*
X586257Y49707D01*
X585924Y49002D01*
X585581Y48303D01*
X585535Y48181D01*
X585480Y48064D01*
X584889Y46637D01*
X584845Y46514D01*
X584791Y46396D01*
X584539Y45658D01*
X584276Y44925D01*
X584245Y44799D01*
X584203Y44676D01*
X583775Y43192D01*
X583745Y43066D01*
X583705Y42942D01*
X583537Y42181D01*
X583358Y41423D01*
X583341Y41294D01*
X583313Y41167D01*
X583054Y39645D01*
X583039Y39516D01*
X583013Y39388D01*
X582931Y38613D01*
X582838Y37840D01*
X582835Y37710D01*
X582822Y37580D01*
X582735Y36038D01*
X582734Y35909D01*
X582722Y35779D01*
X582728Y35000D01*
X582722Y34221D01*
X582734Y34091D01*
X582735Y33962D01*
X582822Y32420D01*
X582835Y32290D01*
X582838Y32160D01*
X582931Y31387D01*
X583013Y30612D01*
X583039Y30484D01*
X583054Y30355D01*
X583313Y28833D01*
X583341Y28706D01*
X583358Y28577D01*
X583537Y27819D01*
X583705Y27058D01*
X583745Y26934D01*
X583775Y26808D01*
X584203Y25324D01*
X584245Y25201D01*
X584276Y25075D01*
X584539Y24341D01*
X584791Y23604D01*
X584845Y23486D01*
X584889Y23363D01*
X585480Y21937D01*
X585535Y21819D01*
X585581Y21697D01*
X585924Y20997D01*
X586257Y20293D01*
X586324Y20182D01*
X586381Y20065D01*
X587128Y18713D01*
X587196Y18603D01*
X587255Y18487D01*
X587674Y17830D01*
X588084Y17168D01*
X588163Y17064D01*
X588233Y16955D01*
X589127Y15695D01*
X589207Y15593D01*
X589279Y15484D01*
X589769Y14878D01*
X590250Y14266D01*
X590340Y14172D01*
X590422Y14071D01*
X591451Y12920D01*
X591542Y12827D01*
X591625Y12727D01*
X592181Y12179D01*
X592727Y11625D01*
X592827Y11542D01*
X592920Y11451D01*
X594071Y10422D01*
X594172Y10340D01*
X594266Y10250D01*
X594880Y9768D01*
X595484Y9279D01*
X595593Y9207D01*
X595695Y9127D01*
X596955Y8233D01*
X597065Y8163D01*
X597168Y8084D01*
X597830Y7675D01*
X598487Y7255D01*
X598603Y7196D01*
X598713Y7128D01*
X600065Y6381D01*
X600182Y6324D01*
X600293Y6257D01*
X600998Y5924D01*
X601697Y5581D01*
X601819Y5535D01*
X601936Y5480D01*
X602996Y5041D01*
X602693Y3517D01*
X47307D01*
X47004Y5041D01*
X48064Y5480D01*
X48181Y5535D01*
X48303Y5581D01*
X49003Y5924D01*
X49707Y6257D01*
X49818Y6324D01*
X49935Y6381D01*
X51287Y7128D01*
X51397Y7196D01*
X51513Y7255D01*
X52170Y7674D01*
X52832Y8084D01*
X52936Y8163D01*
X53045Y8233D01*
X54305Y9127D01*
X54407Y9207D01*
X54516Y9279D01*
X55121Y9769D01*
X55734Y10250D01*
X55828Y10340D01*
X55929Y10422D01*
X57080Y11451D01*
X57173Y11542D01*
X57273Y11625D01*
X57821Y12181D01*
X58375Y12727D01*
X58458Y12827D01*
X58549Y12920D01*
X59578Y14071D01*
X59660Y14172D01*
X59750Y14266D01*
X60232Y14880D01*
X60721Y15484D01*
X60793Y15593D01*
X60873Y15695D01*
X61767Y16955D01*
X61837Y17064D01*
X61916Y17168D01*
X62325Y17830D01*
X62745Y18487D01*
X62804Y18603D01*
X62872Y18713D01*
X63619Y20065D01*
X63676Y20182D01*
X63743Y20293D01*
X64076Y20998D01*
X64419Y21697D01*
X64465Y21819D01*
X64520Y21937D01*
X65111Y23363D01*
X65155Y23486D01*
X65209Y23604D01*
X65461Y24342D01*
X65724Y25075D01*
X65755Y25201D01*
X65797Y25324D01*
X66225Y26808D01*
X66255Y26934D01*
X66295Y27058D01*
X66463Y27819D01*
X66642Y28577D01*
X66659Y28706D01*
X66687Y28833D01*
X66946Y30355D01*
X66961Y30484D01*
X66987Y30612D01*
X67069Y31387D01*
X67162Y32160D01*
X67165Y32290D01*
X67178Y32420D01*
X67265Y33962D01*
X67266Y34091D01*
X67278Y34221D01*
X67272Y35000D01*
X67278Y35779D01*
X67266Y35909D01*
X67265Y36038D01*
X67178Y37580D01*
X67165Y37710D01*
X67162Y37840D01*
X67069Y38613D01*
X66987Y39388D01*
X66961Y39516D01*
X66946Y39645D01*
X66687Y41167D01*
X66659Y41294D01*
X66642Y41423D01*
X66463Y42181D01*
X66295Y42942D01*
X66255Y43066D01*
X66225Y43192D01*
X65797Y44676D01*
X65755Y44799D01*
X65724Y44925D01*
X65461Y45659D01*
X65209Y46396D01*
X65155Y46514D01*
X65111Y46637D01*
X64520Y48064D01*
X64465Y48181D01*
X64419Y48303D01*
X64076Y49003D01*
X63743Y49707D01*
X63676Y49818D01*
X63619Y49935D01*
X62872Y51287D01*
X62804Y51397D01*
X62745Y51513D01*
X62326Y52170D01*
X61916Y52832D01*
X61837Y52936D01*
X61767Y53045D01*
X60873Y54305D01*
X60793Y54407D01*
X60721Y54516D01*
X60231Y55121D01*
X59750Y55734D01*
X59660Y55828D01*
X59578Y55929D01*
X58549Y57080D01*
X58458Y57173D01*
X58375Y57273D01*
X57819Y57821D01*
X57273Y58375D01*
X57173Y58458D01*
X57080Y58549D01*
X55929Y59578D01*
X55828Y59660D01*
X55734Y59750D01*
X55120Y60232D01*
X54516Y60721D01*
X54407Y60793D01*
X54305Y60873D01*
X53045Y61767D01*
X52936Y61837D01*
X52832Y61916D01*
X52171Y62325D01*
X51513Y62745D01*
X51397Y62804D01*
X51287Y62872D01*
X49935Y63619D01*
X49818Y63676D01*
X49707Y63743D01*
X49002Y64076D01*
X48303Y64419D01*
X48181Y64465D01*
X48064Y64520D01*
X46637Y65111D01*
X46514Y65155D01*
X46396Y65209D01*
X45658Y65461D01*
X44925Y65724D01*
X44799Y65755D01*
X44676Y65797D01*
X43192Y66225D01*
X43066Y66255D01*
X42942Y66295D01*
X42181Y66463D01*
X41423Y66642D01*
X41294Y66659D01*
X41167Y66687D01*
X39645Y66946D01*
X39516Y66961D01*
X39388Y66987D01*
X38613Y67069D01*
X37840Y67162D01*
X37710Y67165D01*
X37580Y67178D01*
X36038Y67265D01*
X35909Y67266D01*
X35779Y67278D01*
X35389Y67275D01*
X35000Y67294D01*
X34611Y67275D01*
X34221Y67278D01*
X34091Y67266D01*
X33962Y67265D01*
X32420Y67178D01*
X32290Y67165D01*
X32160Y67162D01*
X31387Y67069D01*
X30612Y66987D01*
X30484Y66961D01*
X30355Y66946D01*
X28833Y66687D01*
X28706Y66659D01*
X28577Y66642D01*
X27819Y66463D01*
X27058Y66295D01*
X26934Y66255D01*
X26808Y66225D01*
X25324Y65797D01*
X25201Y65755D01*
X25075Y65724D01*
X24341Y65461D01*
X23604Y65209D01*
X23486Y65155D01*
X23363Y65111D01*
X21937Y64520D01*
X21819Y64465D01*
X21697Y64419D01*
X20997Y64076D01*
X20293Y63743D01*
X20182Y63676D01*
X20065Y63619D01*
X18713Y62872D01*
X18603Y62804D01*
X18487Y62745D01*
X17830Y62326D01*
X17168Y61916D01*
X17064Y61837D01*
X16955Y61767D01*
X15695Y60873D01*
X15593Y60793D01*
X15484Y60721D01*
X14878Y60231D01*
X14266Y59750D01*
X14172Y59660D01*
X14071Y59578D01*
X12920Y58549D01*
X12827Y58458D01*
X12727Y58375D01*
X12179Y57819D01*
X11625Y57273D01*
X11542Y57173D01*
X11451Y57080D01*
X10422Y55929D01*
X10340Y55828D01*
X10250Y55734D01*
X9768Y55120D01*
X9279Y54516D01*
X9207Y54407D01*
X9127Y54305D01*
X8233Y53045D01*
X8163Y52936D01*
X8084Y52832D01*
X7675Y52171D01*
X7255Y51513D01*
X7196Y51397D01*
X7128Y51287D01*
X6381Y49935D01*
X6324Y49818D01*
X6257Y49707D01*
X5924Y49002D01*
X5581Y48303D01*
X5535Y48181D01*
X5480Y48064D01*
X5041Y47004D01*
X3517Y47307D01*
Y185000D01*
X3510Y185068D01*
X3585Y186016D01*
X3823Y187007D01*
X4213Y187949D01*
X4745Y188818D01*
X5407Y189593D01*
X6182Y190255D01*
X7051Y190787D01*
X7993Y191177D01*
X8984Y191415D01*
X9933Y191490D01*
X10000Y191483D01*
X40000D01*
Y191479D01*
X41514Y191564D01*
X43009Y191818D01*
X44466Y192237D01*
X45867Y192818D01*
X47194Y193551D01*
X48430Y194429D01*
X49561Y195439D01*
X50571Y196570D01*
X51449Y197806D01*
X52182Y199133D01*
X52762Y200534D01*
X53182Y201991D01*
X53436Y203486D01*
X53521Y205000D01*
X53517D01*
Y355000D01*
X53521D01*
X53436Y356514D01*
X53182Y358009D01*
X52762Y359466D01*
X52182Y360867D01*
X51449Y362194D01*
X50571Y363430D01*
X49561Y364561D01*
X48430Y365571D01*
X47194Y366449D01*
X45867Y367182D01*
X44466Y367762D01*
X43009Y368182D01*
X41514Y368436D01*
X40000Y368521D01*
Y368517D01*
X10000D01*
X9933Y368510D01*
X8984Y368585D01*
X7993Y368823D01*
X7051Y369213D01*
X6182Y369745D01*
X5407Y370407D01*
X4745Y371182D01*
X4213Y372051D01*
X3823Y372993D01*
X3585Y373984D01*
X3510Y374933D01*
X3517Y375000D01*
X3517Y375000D01*
Y512693D01*
X5041Y512996D01*
X5480Y511936D01*
X5535Y511819D01*
X5581Y511697D01*
X5924Y510997D01*
X6257Y510293D01*
X6324Y510182D01*
X6381Y510065D01*
X7128Y508713D01*
X7196Y508603D01*
X7255Y508487D01*
X7674Y507830D01*
X8084Y507168D01*
X8163Y507064D01*
X8233Y506955D01*
X9127Y505695D01*
X9207Y505593D01*
X9279Y505484D01*
X9769Y504879D01*
X10250Y504266D01*
X10340Y504172D01*
X10422Y504071D01*
X11451Y502920D01*
X11542Y502827D01*
X11625Y502727D01*
X12181Y502179D01*
X12727Y501625D01*
X12827Y501542D01*
X12920Y501451D01*
X14071Y500422D01*
X14172Y500340D01*
X14266Y500250D01*
X14880Y499768D01*
X15484Y499279D01*
X15593Y499207D01*
X15695Y499127D01*
X16955Y498233D01*
X17064Y498163D01*
X17168Y498084D01*
X17830Y497675D01*
X18487Y497255D01*
X18603Y497196D01*
X18713Y497128D01*
X20065Y496381D01*
X20182Y496324D01*
X20293Y496257D01*
X20998Y495924D01*
X21697Y495581D01*
X21819Y495535D01*
X21937Y495480D01*
X23363Y494889D01*
X23486Y494845D01*
X23604Y494791D01*
X24342Y494539D01*
X25075Y494276D01*
X25201Y494245D01*
X25324Y494203D01*
X26808Y493775D01*
X26934Y493745D01*
X27058Y493705D01*
X27819Y493537D01*
X28577Y493358D01*
X28706Y493341D01*
X28833Y493313D01*
X30355Y493054D01*
X30484Y493039D01*
X30612Y493013D01*
X31387Y492931D01*
X32160Y492838D01*
X32290Y492835D01*
X32420Y492822D01*
X33962Y492735D01*
X34091Y492734D01*
X34221Y492722D01*
X34611Y492725D01*
X35000Y492706D01*
X35389Y492725D01*
X35779Y492722D01*
X35909Y492734D01*
X36038Y492735D01*
X37580Y492822D01*
X37710Y492835D01*
X37840Y492838D01*
X38613Y492931D01*
X39388Y493013D01*
X39516Y493039D01*
X39645Y493054D01*
X41167Y493313D01*
X41294Y493341D01*
X41423Y493358D01*
X42181Y493537D01*
X42942Y493705D01*
X43066Y493745D01*
X43192Y493775D01*
X44676Y494203D01*
X44799Y494245D01*
X44925Y494276D01*
X45659Y494539D01*
X46396Y494791D01*
X46514Y494845D01*
X46637Y494889D01*
X48064Y495480D01*
X48181Y495535D01*
X48303Y495581D01*
X49003Y495924D01*
X49707Y496257D01*
X49818Y496324D01*
X49935Y496381D01*
X51287Y497128D01*
X51397Y497196D01*
X51513Y497255D01*
X52170Y497674D01*
X52832Y498084D01*
X52936Y498163D01*
X53045Y498233D01*
X54305Y499127D01*
X54407Y499207D01*
X54516Y499279D01*
X55121Y499769D01*
X55734Y500250D01*
X55828Y500340D01*
X55929Y500422D01*
X57080Y501451D01*
X57173Y501542D01*
X57273Y501625D01*
X57821Y502181D01*
X58375Y502727D01*
X58458Y502827D01*
X58549Y502920D01*
X59578Y504071D01*
X59660Y504172D01*
X59750Y504266D01*
X60232Y504880D01*
X60721Y505484D01*
X60793Y505593D01*
X60873Y505695D01*
X61767Y506955D01*
X61837Y507065D01*
X61916Y507168D01*
X62325Y507830D01*
X62745Y508487D01*
X62804Y508603D01*
X62872Y508713D01*
X63619Y510065D01*
X63676Y510182D01*
X63743Y510293D01*
X64076Y510998D01*
X64419Y511697D01*
X64465Y511819D01*
X64520Y511936D01*
X65111Y513363D01*
X65155Y513486D01*
X65209Y513604D01*
X65461Y514342D01*
X65724Y515075D01*
X65755Y515201D01*
X65797Y515324D01*
X66225Y516808D01*
X66255Y516934D01*
X66295Y517058D01*
X66463Y517819D01*
X66642Y518577D01*
X66659Y518706D01*
X66687Y518833D01*
X66946Y520355D01*
X66961Y520484D01*
X66987Y520612D01*
X67069Y521387D01*
X67162Y522160D01*
X67165Y522290D01*
X67178Y522420D01*
X67265Y523961D01*
X67266Y524091D01*
X67278Y524221D01*
X67272Y525000D01*
X67278Y525779D01*
X67266Y525909D01*
X67265Y526039D01*
X67178Y527580D01*
X67165Y527710D01*
X67162Y527840D01*
X67069Y528613D01*
X66987Y529388D01*
X66961Y529516D01*
X66946Y529645D01*
X66687Y531167D01*
X66659Y531294D01*
X66642Y531423D01*
X66463Y532181D01*
X66295Y532942D01*
X66255Y533066D01*
X66225Y533192D01*
X65797Y534676D01*
X65755Y534799D01*
X65724Y534925D01*
X65461Y535659D01*
X65209Y536396D01*
X65155Y536514D01*
X65111Y536637D01*
X64520Y538063D01*
X64465Y538181D01*
X64419Y538303D01*
X64076Y539003D01*
X63743Y539707D01*
X63676Y539818D01*
X63619Y539935D01*
X62872Y541287D01*
X62804Y541397D01*
X62745Y541513D01*
X62326Y542170D01*
X61916Y542832D01*
X61837Y542936D01*
X61767Y543045D01*
X60873Y544305D01*
X60793Y544407D01*
X60721Y544516D01*
X60231Y545121D01*
X59750Y545734D01*
X59660Y545828D01*
X59578Y545929D01*
X58549Y547080D01*
X58458Y547173D01*
X58375Y547273D01*
X57819Y547821D01*
X57273Y548375D01*
X57173Y548458D01*
X57080Y548549D01*
X55929Y549578D01*
X55828Y549660D01*
X55734Y549750D01*
X55120Y550232D01*
X54516Y550721D01*
X54407Y550793D01*
X54305Y550873D01*
X53045Y551767D01*
X52936Y551837D01*
X52832Y551916D01*
X52171Y552325D01*
X51513Y552745D01*
X51397Y552804D01*
X51287Y552872D01*
X49935Y553619D01*
X49818Y553676D01*
X49707Y553743D01*
X49002Y554076D01*
X48303Y554419D01*
X48181Y554465D01*
X48064Y554520D01*
X47004Y554959D01*
X47307Y556483D01*
X602693D01*
X602996Y554959D01*
D02*
G37*
%LPC*%
G36*
X550000Y348022D02*
X543500D01*
Y328000D01*
X552522D01*
Y345500D01*
X552436Y346153D01*
X552184Y346761D01*
X551783Y347283D01*
X551261Y347684D01*
X550653Y347936D01*
X550000Y348022D01*
D02*
G37*
G36*
X212500Y349021D02*
X206000D01*
X205347Y348936D01*
X204739Y348684D01*
X204217Y348283D01*
X203816Y347761D01*
X203564Y347153D01*
X203479Y346500D01*
Y329000D01*
X212500D01*
Y349021D01*
D02*
G37*
G36*
X538500Y348022D02*
X532000D01*
X531347Y347936D01*
X530739Y347684D01*
X530217Y347283D01*
X529816Y346761D01*
X529564Y346153D01*
X529478Y345500D01*
Y328000D01*
X538500D01*
Y348022D01*
D02*
G37*
G36*
X106500Y333022D02*
X105500D01*
X104847Y332936D01*
X104239Y332684D01*
X103717Y332283D01*
X103316Y331761D01*
X103064Y331153D01*
X102978Y330500D01*
Y328000D01*
X106500D01*
Y333022D01*
D02*
G37*
G36*
X224000Y349021D02*
X217500D01*
Y329000D01*
X226522D01*
Y346500D01*
X226436Y347153D01*
X226184Y347761D01*
X225783Y348283D01*
X225261Y348684D01*
X224653Y348936D01*
X224000Y349021D01*
D02*
G37*
G36*
X105024Y340250D02*
X102500D01*
Y336009D01*
X102968Y336071D01*
X103637Y336348D01*
X104211Y336789D01*
X104652Y337363D01*
X104929Y338032D01*
X105024Y338750D01*
Y340250D01*
D02*
G37*
G36*
X319522Y366500D02*
X315000D01*
Y362478D01*
X317000D01*
X317653Y362564D01*
X318261Y362816D01*
X318783Y363217D01*
X319184Y363739D01*
X319436Y364347D01*
X319522Y365000D01*
Y366500D01*
D02*
G37*
G36*
X430750Y366500D02*
X426228D01*
Y365000D01*
X426314Y364347D01*
X426566Y363739D01*
X426967Y363217D01*
X427489Y362816D01*
X428097Y362564D01*
X428750Y362478D01*
X430750D01*
Y366500D01*
D02*
G37*
G36*
X119250Y337772D02*
X117250D01*
X116597Y337686D01*
X115989Y337434D01*
X115467Y337033D01*
X115066Y336511D01*
X114814Y335903D01*
X114728Y335250D01*
Y333862D01*
X114506Y333592D01*
X113204Y332914D01*
X113153Y332936D01*
X112500Y333022D01*
X111500D01*
Y325500D01*
Y317978D01*
X112500D01*
X113153Y318064D01*
X113761Y318316D01*
X114283Y318717D01*
X114684Y319239D01*
X114936Y319847D01*
X115022Y320500D01*
Y323888D01*
X115244Y324158D01*
X116546Y324836D01*
X116597Y324814D01*
X117250Y324729D01*
X119250D01*
Y331250D01*
Y337772D01*
D02*
G37*
G36*
X226522Y324000D02*
X217500D01*
Y303978D01*
X224000D01*
X224653Y304064D01*
X225261Y304316D01*
X225783Y304717D01*
X226184Y305239D01*
X226436Y305847D01*
X226522Y306500D01*
Y324000D01*
D02*
G37*
G36*
X269500Y318521D02*
X252000D01*
X251347Y318436D01*
X250739Y318184D01*
X250217Y317783D01*
X249816Y317261D01*
X249564Y316653D01*
X249478Y316000D01*
Y309500D01*
X269500D01*
Y318521D01*
D02*
G37*
G36*
X212500Y324000D02*
X203479D01*
Y306500D01*
X203564Y305847D01*
X203816Y305239D01*
X204217Y304717D01*
X204739Y304316D01*
X205347Y304064D01*
X206000Y303978D01*
X212500D01*
Y324000D01*
D02*
G37*
G36*
X538500Y323000D02*
X529478D01*
Y305500D01*
X529564Y304847D01*
X529816Y304239D01*
X530217Y303717D01*
X530739Y303316D01*
X531347Y303064D01*
X532000Y302978D01*
X538500D01*
Y323000D01*
D02*
G37*
G36*
X552522D02*
X543500D01*
Y302978D01*
X550000D01*
X550653Y303064D01*
X551261Y303316D01*
X551783Y303717D01*
X552184Y304239D01*
X552436Y304847D01*
X552522Y305500D01*
Y323000D01*
D02*
G37*
G36*
X106500D02*
X102978D01*
Y320500D01*
X103064Y319847D01*
X103316Y319239D01*
X103717Y318717D01*
X104239Y318316D01*
X104847Y318064D01*
X105500Y317978D01*
X106500D01*
Y323000D01*
D02*
G37*
G36*
X72500Y340773D02*
X71569Y340681D01*
X70673Y340410D01*
X69848Y339969D01*
X69125Y339375D01*
X68531Y338652D01*
X68090Y337826D01*
X67819Y336931D01*
X67727Y336000D01*
X67819Y335069D01*
X68090Y334173D01*
X68403Y333589D01*
X68478Y333042D01*
X68252Y331748D01*
X67971Y331382D01*
X67795Y330957D01*
X67735Y330500D01*
Y320500D01*
X67795Y320043D01*
X67971Y319618D01*
X68252Y319252D01*
X68617Y318971D01*
X69043Y318795D01*
X69500Y318735D01*
X76500D01*
X76957Y318795D01*
X77382Y318971D01*
X77748Y319252D01*
X78029Y319618D01*
X78205Y320043D01*
X78265Y320500D01*
Y330500D01*
X78205Y330957D01*
X78029Y331382D01*
X77748Y331748D01*
X77382Y332029D01*
X77364Y332037D01*
X77017Y332545D01*
X76811Y333084D01*
X76697Y333776D01*
X76910Y334173D01*
X77181Y335069D01*
X77273Y336000D01*
X77181Y336931D01*
X76910Y337826D01*
X76469Y338652D01*
X75875Y339375D01*
X75152Y339969D01*
X74327Y340410D01*
X73431Y340681D01*
X72500Y340773D01*
D02*
G37*
G36*
X498000Y318521D02*
X480500D01*
Y309500D01*
X500522D01*
Y316000D01*
X500436Y316653D01*
X500184Y317261D01*
X499783Y317783D01*
X499261Y318184D01*
X498653Y318436D01*
X498000Y318521D01*
D02*
G37*
G36*
X292000Y318521D02*
X274500D01*
Y309500D01*
X294522D01*
Y316000D01*
X294436Y316653D01*
X294184Y317261D01*
X293783Y317783D01*
X293261Y318184D01*
X292653Y318436D01*
X292000Y318521D01*
D02*
G37*
G36*
X475500Y318521D02*
X458000D01*
X457347Y318436D01*
X456739Y318184D01*
X456217Y317783D01*
X455816Y317261D01*
X455564Y316653D01*
X455479Y316000D01*
Y309500D01*
X475500D01*
Y318521D01*
D02*
G37*
G36*
X97000Y400272D02*
X94500D01*
X93847Y400186D01*
X93239Y399934D01*
X92717Y399533D01*
X92316Y399011D01*
X92064Y398403D01*
X91979Y397750D01*
Y393500D01*
X97000D01*
Y400272D01*
D02*
G37*
G36*
X104500D02*
X102000D01*
Y393500D01*
X107022D01*
Y397750D01*
X106936Y398403D01*
X106684Y399011D01*
X106283Y399533D01*
X105761Y399934D01*
X105153Y400186D01*
X104500Y400272D01*
D02*
G37*
G36*
X154250Y395522D02*
X150000D01*
Y390500D01*
X156772D01*
Y393000D01*
X156686Y393653D01*
X156434Y394261D01*
X156033Y394783D01*
X155511Y395184D01*
X154903Y395436D01*
X154250Y395522D01*
D02*
G37*
G36*
X132250Y395522D02*
X128000D01*
Y390500D01*
X134771D01*
Y393000D01*
X134686Y393653D01*
X134434Y394261D01*
X134033Y394783D01*
X133511Y395184D01*
X132903Y395436D01*
X132250Y395522D01*
D02*
G37*
G36*
X145000Y395522D02*
X140750D01*
X140097Y395436D01*
X139489Y395184D01*
X138967Y394783D01*
X138566Y394261D01*
X138314Y393653D01*
X138229Y393000D01*
Y390500D01*
X145000D01*
Y395522D01*
D02*
G37*
G36*
X283750Y416000D02*
X279228D01*
Y414500D01*
X279314Y413847D01*
X279566Y413239D01*
X279967Y412717D01*
X280489Y412316D01*
X281097Y412064D01*
X281750Y411978D01*
X283750D01*
Y416000D01*
D02*
G37*
G36*
X306271Y416000D02*
X301750D01*
Y411978D01*
X303750D01*
X304403Y412064D01*
X305011Y412316D01*
X305533Y412717D01*
X305934Y413239D01*
X306186Y413847D01*
X306271Y414500D01*
Y416000D01*
D02*
G37*
G36*
X343741Y410250D02*
X333500D01*
X323259D01*
X323321Y409782D01*
X323598Y409113D01*
X323685Y409000D01*
X323598Y408887D01*
X323321Y408218D01*
X323259Y407750D01*
X333500D01*
X343741D01*
X343679Y408218D01*
X343402Y408887D01*
X343315Y409000D01*
X343402Y409113D01*
X343679Y409782D01*
X343741Y410250D01*
D02*
G37*
G36*
X97000Y409500D02*
X91979D01*
Y405250D01*
X92064Y404597D01*
X92316Y403989D01*
X92717Y403467D01*
X93239Y403066D01*
X93847Y402814D01*
X94500Y402728D01*
X97000D01*
Y409500D01*
D02*
G37*
G36*
X107022D02*
X102000D01*
Y402728D01*
X104500D01*
X105153Y402814D01*
X105761Y403066D01*
X106283Y403467D01*
X106684Y403989D01*
X106936Y404597D01*
X107022Y405250D01*
Y409500D01*
D02*
G37*
G36*
X350750Y373241D02*
X350282Y373179D01*
X349613Y372902D01*
X349500Y372815D01*
X349387Y372902D01*
X348718Y373179D01*
X348250Y373241D01*
Y363000D01*
X347000D01*
Y361750D01*
X343226D01*
Y355500D01*
X343321Y354782D01*
X343598Y354113D01*
X343915Y353699D01*
X344004Y353284D01*
X343811Y351855D01*
X343717Y351783D01*
X343316Y351261D01*
X343064Y350653D01*
X342978Y350000D01*
Y348000D01*
X349500D01*
Y343000D01*
X342978D01*
Y341000D01*
X343064Y340347D01*
X343316Y339739D01*
X343717Y339217D01*
X343803Y339151D01*
X343945Y337693D01*
X343857Y337354D01*
X342945Y336555D01*
X341660Y335270D01*
X317500D01*
X316290Y335191D01*
X315101Y334954D01*
X313953Y334564D01*
X312865Y334028D01*
X311857Y333354D01*
X310945Y332555D01*
X303445Y325055D01*
X302646Y324143D01*
X301972Y323135D01*
X301436Y322047D01*
X301046Y320899D01*
X300809Y319710D01*
X300730Y318500D01*
Y251765D01*
X255500D01*
X255043Y251705D01*
X254617Y251529D01*
X254252Y251248D01*
X253971Y250883D01*
X253795Y250457D01*
X253735Y250000D01*
Y226000D01*
X253795Y225543D01*
X253971Y225117D01*
X254252Y224752D01*
X254617Y224471D01*
X255043Y224295D01*
X255500Y224235D01*
X345500D01*
X345957Y224295D01*
X346382Y224471D01*
X346748Y224752D01*
X347029Y225117D01*
X347205Y225543D01*
X347265Y226000D01*
Y246226D01*
X360755Y259716D01*
X362252Y260252D01*
X362617Y259971D01*
X363043Y259795D01*
X363500Y259735D01*
X372500D01*
X372957Y259795D01*
X373382Y259971D01*
X373748Y260252D01*
X374029Y260617D01*
X374205Y261043D01*
X374265Y261500D01*
Y269500D01*
X374205Y269957D01*
X374029Y270382D01*
X373748Y270748D01*
X373382Y271029D01*
X372957Y271205D01*
X372500Y271265D01*
X363500D01*
X363043Y271205D01*
X362617Y271029D01*
X362252Y270748D01*
X361971Y270382D01*
X361795Y269957D01*
X361771Y269771D01*
X360500D01*
X359667Y269688D01*
X358866Y269445D01*
X358127Y269051D01*
X357480Y268520D01*
X340726Y251765D01*
X319270D01*
Y285629D01*
X320428Y286129D01*
X320794Y286190D01*
X321079Y285971D01*
X321504Y285795D01*
X321961Y285735D01*
X325966D01*
X326000Y285732D01*
X326034Y285735D01*
X336633D01*
X336667Y285732D01*
X336701Y285735D01*
X341966D01*
X342000Y285732D01*
X342034Y285735D01*
X347299D01*
X347333Y285732D01*
X347367Y285735D01*
X357966D01*
X358000Y285732D01*
X358034Y285735D01*
X360468D01*
X360788Y285547D01*
X361735Y284500D01*
Y276500D01*
X361795Y276043D01*
X361971Y275618D01*
X362252Y275252D01*
X362617Y274971D01*
X363043Y274795D01*
X363500Y274735D01*
X372500D01*
X372957Y274795D01*
X373382Y274971D01*
X373748Y275252D01*
X374029Y275618D01*
X374205Y276043D01*
X374265Y276500D01*
Y284500D01*
X374205Y284957D01*
X374029Y285382D01*
X373748Y285748D01*
X373382Y286029D01*
X372957Y286205D01*
X372500Y286265D01*
X371015D01*
Y314251D01*
X373453Y316690D01*
X374500Y317192D01*
X375547Y316690D01*
X378985Y313251D01*
Y286265D01*
X378500D01*
X378043Y286205D01*
X377617Y286029D01*
X377252Y285748D01*
X376971Y285383D01*
X376795Y284957D01*
X376735Y284500D01*
Y276500D01*
X376795Y276043D01*
X376971Y275617D01*
X377252Y275252D01*
X377617Y274971D01*
X378043Y274795D01*
X378500Y274735D01*
X387500D01*
X387957Y274795D01*
X388383Y274971D01*
X388748Y275252D01*
X389029Y275617D01*
X389205Y276043D01*
X389265Y276500D01*
Y284500D01*
X390212Y285547D01*
X390532Y285735D01*
X391966D01*
X392000Y285732D01*
X392034Y285735D01*
X402633D01*
X402667Y285732D01*
X402701Y285735D01*
X413299D01*
X413333Y285732D01*
X413367Y285735D01*
X423966D01*
X424000Y285732D01*
X424034Y285735D01*
X427938D01*
X428395Y285795D01*
X428821Y285971D01*
X429186Y286252D01*
X429206Y286278D01*
X430722Y285894D01*
X430730Y285890D01*
Y251765D01*
X409774D01*
X393020Y268520D01*
X392373Y269051D01*
X391634Y269445D01*
X390833Y269688D01*
X390000Y269771D01*
X389230D01*
X389205Y269957D01*
X389029Y270382D01*
X388748Y270748D01*
X388383Y271029D01*
X387957Y271205D01*
X387500Y271265D01*
X378500D01*
X378043Y271205D01*
X377617Y271029D01*
X377252Y270748D01*
X376971Y270382D01*
X376795Y269957D01*
X376735Y269500D01*
Y261500D01*
X376795Y261043D01*
X376971Y260617D01*
X377252Y260252D01*
X377617Y259971D01*
X378043Y259795D01*
X378500Y259735D01*
X387500D01*
X387957Y259795D01*
X388383Y259971D01*
X388748Y260252D01*
X389180Y260280D01*
X404151Y245309D01*
Y226000D01*
X404212Y225543D01*
X404388Y225117D01*
X404669Y224752D01*
X405034Y224471D01*
X405460Y224295D01*
X405917Y224235D01*
X495917D01*
X496373Y224295D01*
X496799Y224471D01*
X497165Y224752D01*
X497445Y225117D01*
X497622Y225543D01*
X497682Y226000D01*
Y250000D01*
X497622Y250457D01*
X497445Y250883D01*
X497165Y251248D01*
X496799Y251529D01*
X496373Y251705D01*
X495917Y251765D01*
X449270D01*
Y318201D01*
X449190Y319411D01*
X448954Y320600D01*
X448564Y321748D01*
X448028Y322836D01*
X447354Y323844D01*
X446555Y324756D01*
X438756Y332555D01*
X437844Y333354D01*
X436836Y334028D01*
X435748Y334564D01*
X434600Y334954D01*
X433411Y335191D01*
X432201Y335270D01*
X409840D01*
X408055Y337055D01*
X407143Y337854D01*
X406492Y338289D01*
X405684Y339739D01*
X405936Y340347D01*
X406021Y341000D01*
Y343000D01*
X399500D01*
Y348000D01*
X406021D01*
Y350000D01*
X405936Y350653D01*
X405684Y351261D01*
X405283Y351783D01*
X405189Y351855D01*
X404996Y353284D01*
X405084Y353699D01*
X405402Y354113D01*
X405679Y354782D01*
X405774Y355500D01*
Y361750D01*
X402000D01*
Y363000D01*
X400750D01*
Y373241D01*
X400282Y373179D01*
X399613Y372902D01*
X399500Y372815D01*
X399387Y372902D01*
X398718Y373179D01*
X398250Y373241D01*
Y363000D01*
X395750D01*
Y373241D01*
X395282Y373179D01*
X394613Y372902D01*
X394039Y372461D01*
X393907Y372289D01*
X393522Y372449D01*
X393000Y372517D01*
X391000D01*
X390478Y372449D01*
X389991Y372247D01*
X389574Y371926D01*
X389426D01*
X389009Y372247D01*
X388522Y372449D01*
X388000Y372517D01*
X386000D01*
X385478Y372449D01*
X384991Y372247D01*
X384574Y371926D01*
X384426D01*
X384009Y372247D01*
X383522Y372449D01*
X383000Y372517D01*
X381000D01*
X380478Y372449D01*
X379991Y372247D01*
X379574Y371926D01*
X379426D01*
X379009Y372247D01*
X378522Y372449D01*
X378000Y372517D01*
X376000D01*
X375478Y372449D01*
X374991Y372247D01*
X374574Y371926D01*
X374426D01*
X374009Y372247D01*
X373522Y372449D01*
X373000Y372517D01*
X371000D01*
X370478Y372449D01*
X369991Y372247D01*
X369574Y371926D01*
X369426D01*
X369009Y372247D01*
X368522Y372449D01*
X368000Y372517D01*
X366000D01*
X365478Y372449D01*
X364991Y372247D01*
X364574Y371926D01*
X364426D01*
X364009Y372247D01*
X363522Y372449D01*
X363000Y372517D01*
X361000D01*
X360478Y372449D01*
X359991Y372247D01*
X359574Y371926D01*
X359426D01*
X359009Y372247D01*
X358522Y372449D01*
X358000Y372517D01*
X356000D01*
X355478Y372449D01*
X355093Y372289D01*
X354961Y372461D01*
X354387Y372902D01*
X353718Y373179D01*
X353250Y373241D01*
Y363000D01*
X350750D01*
Y373241D01*
D02*
G37*
G36*
X107022Y388500D02*
X91979D01*
Y384250D01*
X92064Y383597D01*
X92316Y382989D01*
X92717Y382467D01*
X92720Y382437D01*
X92281Y381902D01*
X91840Y381077D01*
X91569Y380181D01*
X91477Y379250D01*
X91569Y378319D01*
X91840Y377424D01*
X92281Y376598D01*
X92354Y376509D01*
X92353Y376487D01*
X91602Y375024D01*
X90250D01*
X89532Y374929D01*
X88863Y374652D01*
X88750Y374565D01*
X88637Y374652D01*
X87968Y374929D01*
X87500Y374991D01*
Y369500D01*
X86250D01*
Y368250D01*
X82476D01*
Y366750D01*
X81035Y366017D01*
X80647D01*
X80632Y366029D01*
X80207Y366205D01*
X79750Y366265D01*
X75115D01*
X74724Y366724D01*
X73974Y367474D01*
X73974Y367474D01*
X67224Y374224D01*
X59265Y382183D01*
Y386500D01*
X59205Y386957D01*
X59029Y387383D01*
X58748Y387748D01*
X58383Y388029D01*
X57957Y388205D01*
X57500Y388265D01*
X23500D01*
X23043Y388205D01*
X22617Y388029D01*
X22252Y387748D01*
X21971Y387383D01*
X21795Y386957D01*
X21735Y386500D01*
Y376500D01*
X21795Y376043D01*
X21971Y375617D01*
X22252Y375252D01*
X22617Y374971D01*
X23043Y374795D01*
X23500Y374735D01*
X51817D01*
X58234Y368319D01*
Y360000D01*
X58235Y359986D01*
X58235Y357366D01*
X58295Y356910D01*
X58471Y356484D01*
X58752Y356118D01*
X61581Y353289D01*
X61355Y351375D01*
X60761Y350652D01*
X60320Y349827D01*
X60049Y348931D01*
X59957Y348000D01*
X60049Y347069D01*
X60320Y346174D01*
X60761Y345348D01*
X61355Y344625D01*
X62078Y344031D01*
X62903Y343590D01*
X63799Y343319D01*
X64730Y343227D01*
X65661Y343319D01*
X66557Y343590D01*
X67382Y344031D01*
X68105Y344625D01*
X68401Y344986D01*
X76979D01*
X77000Y344983D01*
X81797D01*
X82748Y344498D01*
X83233Y343547D01*
Y338750D01*
X83235Y338729D01*
Y332265D01*
X82500D01*
X82043Y332205D01*
X81617Y332029D01*
X81252Y331748D01*
X80971Y331382D01*
X80795Y330957D01*
X80735Y330500D01*
Y320500D01*
X80795Y320043D01*
X80971Y319618D01*
X81252Y319252D01*
X81617Y318971D01*
X82043Y318795D01*
X82500Y318735D01*
X89500D01*
X89957Y318795D01*
X90382Y318971D01*
X90748Y319252D01*
X91252D01*
X91617Y318971D01*
X92043Y318795D01*
X92500Y318735D01*
X99500D01*
X99957Y318795D01*
X100382Y318971D01*
X100748Y319252D01*
X101029Y319618D01*
X101205Y320043D01*
X101265Y320500D01*
Y330500D01*
X101205Y330957D01*
X101029Y331382D01*
X100748Y331748D01*
X100382Y332029D01*
X99957Y332205D01*
X99500Y332265D01*
X92500D01*
X92043Y332205D01*
X91617Y332029D01*
X91252Y331748D01*
X90748D01*
X90382Y332029D01*
X89957Y332205D01*
X89500Y332265D01*
X89264D01*
Y334599D01*
X90000Y335627D01*
Y341500D01*
X92500D01*
Y336009D01*
X92968Y336071D01*
X93637Y336348D01*
X93750Y336435D01*
X93863Y336348D01*
X94532Y336071D01*
X95000Y336009D01*
Y341500D01*
X97500D01*
Y336009D01*
X97968Y336071D01*
X98637Y336348D01*
X98750Y336435D01*
X98863Y336348D01*
X99532Y336071D01*
X100000Y336009D01*
Y341500D01*
X101250D01*
Y342750D01*
X105024D01*
Y344250D01*
X106464Y344983D01*
X110500D01*
X110521Y344986D01*
X115485D01*
Y342250D01*
X115545Y341793D01*
X115721Y341367D01*
X116002Y341002D01*
X116367Y340721D01*
X116793Y340545D01*
X117250Y340485D01*
X126250D01*
X126454Y340512D01*
X127142Y340214D01*
X127274Y340113D01*
X127482Y338974D01*
X127459Y338790D01*
X126250Y337772D01*
X124250D01*
Y331250D01*
Y324729D01*
X126250D01*
X126903Y324814D01*
X127511Y325066D01*
X128033Y325467D01*
X128434Y325989D01*
X128686Y326597D01*
X128771Y327250D01*
Y330860D01*
X129171Y331308D01*
X130295Y332005D01*
X130500Y331978D01*
X132500D01*
Y338500D01*
X137500D01*
Y331978D01*
X139500D01*
X139705Y332005D01*
X140829Y331309D01*
X141229Y330861D01*
Y329805D01*
X127719Y316295D01*
X79555D01*
X78496Y316211D01*
X77463Y315963D01*
X76481Y315557D01*
X75575Y315002D01*
X74767Y314312D01*
X63962Y303507D01*
X63272Y302699D01*
X62717Y301793D01*
X62311Y300811D01*
X62063Y299778D01*
X61979Y298719D01*
Y283999D01*
Y272000D01*
Y229500D01*
Y186250D01*
X62063Y185191D01*
X62311Y184158D01*
X62717Y183176D01*
X63272Y182270D01*
X63962Y181462D01*
X65229Y180195D01*
Y139815D01*
X64500D01*
X64043Y139755D01*
X63617Y139579D01*
X63252Y139298D01*
X62971Y138933D01*
X62795Y138507D01*
X62735Y138050D01*
Y132050D01*
X62795Y131593D01*
X62971Y131167D01*
X63252Y130802D01*
X63617Y130521D01*
X64043Y130345D01*
X64500Y130285D01*
X65229D01*
Y127115D01*
X64500D01*
X64043Y127055D01*
X63617Y126879D01*
X63252Y126598D01*
X62971Y126233D01*
X62795Y125807D01*
X62735Y125350D01*
Y119350D01*
X62795Y118893D01*
X62971Y118468D01*
X63252Y118102D01*
X63617Y117821D01*
X64043Y117645D01*
X64500Y117585D01*
X79700D01*
X80157Y117645D01*
X80583Y117821D01*
X80948Y118102D01*
X81229Y118468D01*
X81405Y118893D01*
X81465Y119350D01*
Y125350D01*
X81405Y125807D01*
X81229Y126233D01*
X80948Y126598D01*
X80583Y126879D01*
X80157Y127055D01*
X79700Y127115D01*
X78771D01*
Y130285D01*
X79700D01*
X80157Y130345D01*
X80583Y130521D01*
X80948Y130802D01*
X81229Y131167D01*
X81405Y131593D01*
X81465Y132050D01*
Y138050D01*
X81405Y138507D01*
X81229Y138933D01*
X80948Y139298D01*
X80583Y139579D01*
X80157Y139755D01*
X79700Y139815D01*
X78771D01*
Y183000D01*
X78688Y184059D01*
X78439Y185092D01*
X78033Y186074D01*
X77478Y186980D01*
X76788Y187788D01*
X75521Y189055D01*
Y206607D01*
X75529Y206617D01*
X75705Y207043D01*
X75765Y207500D01*
Y221000D01*
X75738Y221205D01*
X76033Y221888D01*
X76578Y222605D01*
X76759Y222729D01*
X80361D01*
X80809Y222329D01*
X81505Y221205D01*
X81479Y221000D01*
Y216750D01*
X96522D01*
Y221000D01*
X96436Y221653D01*
X96184Y222261D01*
X95783Y222783D01*
X95568Y222948D01*
X95281Y224345D01*
X95288Y224712D01*
X95978Y225520D01*
X96533Y226426D01*
X96939Y227408D01*
X97188Y228441D01*
X97271Y229500D01*
X97188Y230559D01*
X96939Y231592D01*
X96533Y232574D01*
X95978Y233480D01*
X95288Y234288D01*
X94986Y234545D01*
X94850Y234944D01*
Y236056D01*
X94986Y236455D01*
X95288Y236712D01*
X95978Y237520D01*
X96533Y238426D01*
X96939Y239408D01*
X97188Y240441D01*
X97271Y241500D01*
X97188Y242559D01*
X96939Y243592D01*
X96533Y244574D01*
X95978Y245480D01*
X95288Y246288D01*
X95281Y246654D01*
X95568Y248052D01*
X95783Y248217D01*
X96184Y248739D01*
X96436Y249347D01*
X96522Y250000D01*
Y254250D01*
X89000D01*
Y259250D01*
X96522D01*
Y263500D01*
X96436Y264153D01*
X96184Y264761D01*
X95783Y265283D01*
X95568Y265448D01*
X95281Y266845D01*
X95288Y267212D01*
X95978Y268020D01*
X96533Y268926D01*
X96939Y269908D01*
X97188Y270941D01*
X97271Y272000D01*
X97188Y273059D01*
X96939Y274092D01*
X96533Y275074D01*
X95978Y275980D01*
X95288Y276788D01*
X94987Y277045D01*
X94850Y277443D01*
Y278557D01*
X94987Y278955D01*
X95288Y279212D01*
X95978Y280020D01*
X96533Y280926D01*
X96939Y281907D01*
X97188Y282940D01*
X97271Y283999D01*
X97188Y285059D01*
X96939Y286092D01*
X96533Y287073D01*
X95978Y287979D01*
X95288Y288787D01*
X94480Y289477D01*
X93574Y290032D01*
X92592Y290439D01*
X91559Y290687D01*
X90500Y290770D01*
X75521D01*
Y295914D01*
X82360Y302753D01*
X130524D01*
X131583Y302836D01*
X132616Y303085D01*
X133598Y303491D01*
X134504Y304046D01*
X135312Y304736D01*
X152788Y322212D01*
X153478Y323020D01*
X154033Y323926D01*
X154439Y324908D01*
X154688Y325941D01*
X154771Y327000D01*
Y353500D01*
Y361322D01*
X155133Y361471D01*
X155498Y361752D01*
X155779Y362117D01*
X155955Y362543D01*
X156015Y363000D01*
Y373000D01*
X155955Y373457D01*
X155779Y373883D01*
X155498Y374248D01*
X155133Y374529D01*
X154707Y374705D01*
X154250Y374765D01*
X140750D01*
X140293Y374705D01*
X139867Y374529D01*
X139502Y374248D01*
X139221Y373883D01*
X139174Y373768D01*
X133826D01*
X133779Y373883D01*
X133498Y374248D01*
X133132Y374529D01*
X132707Y374705D01*
X132250Y374765D01*
X126069D01*
X125995Y374771D01*
X125923Y374765D01*
X118750D01*
X118293Y374705D01*
X117867Y374529D01*
X117502Y374248D01*
X117361Y374065D01*
X117084Y374279D01*
X116658Y374455D01*
X116201Y374515D01*
X105464D01*
X105378Y374504D01*
X105291Y374507D01*
X105150Y374474D01*
X105007Y374455D01*
X104927Y374422D01*
X104842Y374402D01*
X104715Y374334D01*
X104582Y374279D01*
X104513Y374226D01*
X104436Y374185D01*
X103676Y373676D01*
X103259Y373997D01*
X102772Y374198D01*
X102250Y374267D01*
X100250D01*
X99264Y375557D01*
Y375579D01*
X99625Y375875D01*
X100218Y376598D01*
X100660Y377424D01*
X100931Y378319D01*
X101023Y379250D01*
X100931Y380181D01*
X100924Y380204D01*
X101946Y381728D01*
X104500D01*
X105153Y381814D01*
X105761Y382066D01*
X106283Y382467D01*
X106684Y382989D01*
X106936Y383597D01*
X107022Y384250D01*
Y388500D01*
D02*
G37*
G36*
X85000Y374991D02*
X84532Y374929D01*
X83863Y374652D01*
X83289Y374211D01*
X82848Y373637D01*
X82571Y372968D01*
X82476Y372250D01*
Y370750D01*
X85000D01*
Y374991D01*
D02*
G37*
G36*
X345750Y373241D02*
X345282Y373179D01*
X344613Y372902D01*
X344039Y372461D01*
X343598Y371887D01*
X343321Y371218D01*
X343226Y370500D01*
Y364250D01*
X345750D01*
Y373241D01*
D02*
G37*
G36*
X403250Y373241D02*
Y364250D01*
X405774D01*
Y370500D01*
X405679Y371218D01*
X405402Y371887D01*
X404961Y372461D01*
X404387Y372902D01*
X403718Y373179D01*
X403250Y373241D01*
D02*
G37*
G36*
X134771Y385500D02*
X128000D01*
Y380479D01*
X132250D01*
X132903Y380564D01*
X133511Y380816D01*
X134033Y381217D01*
X134434Y381739D01*
X134686Y382347D01*
X134771Y383000D01*
Y385500D01*
D02*
G37*
G36*
X123000Y395522D02*
X118750D01*
X118097Y395436D01*
X117489Y395184D01*
X116967Y394783D01*
X116566Y394261D01*
X116314Y393653D01*
X116228Y393000D01*
Y390500D01*
X123000D01*
Y395522D01*
D02*
G37*
G36*
Y385500D02*
X116228D01*
Y383000D01*
X116314Y382347D01*
X116566Y381739D01*
X116967Y381217D01*
X117489Y380816D01*
X118097Y380564D01*
X118750Y380479D01*
X123000D01*
Y385500D01*
D02*
G37*
G36*
X145000Y385500D02*
X138229D01*
Y383000D01*
X138314Y382347D01*
X138566Y381739D01*
X138967Y381217D01*
X139489Y380816D01*
X140097Y380564D01*
X140750Y380479D01*
X145000D01*
Y385500D01*
D02*
G37*
G36*
X156772D02*
X150000D01*
Y380479D01*
X154250D01*
X154903Y380564D01*
X155511Y380816D01*
X156033Y381217D01*
X156434Y381739D01*
X156686Y382347D01*
X156772Y383000D01*
Y385500D01*
D02*
G37*
G36*
X13000Y79500D02*
X9478D01*
Y77000D01*
X9564Y76347D01*
X9816Y75739D01*
X10217Y75217D01*
X10739Y74816D01*
X11347Y74564D01*
X12000Y74478D01*
X13000D01*
Y79500D01*
D02*
G37*
G36*
X21521D02*
X18000D01*
Y74478D01*
X19000D01*
X19653Y74564D01*
X20261Y74816D01*
X20783Y75217D01*
X21184Y75739D01*
X21436Y76347D01*
X21521Y77000D01*
Y79500D01*
D02*
G37*
G36*
X224250Y63772D02*
X212750D01*
Y51750D01*
X226772D01*
Y61250D01*
X226686Y61903D01*
X226434Y62511D01*
X226033Y63033D01*
X225511Y63434D01*
X224903Y63686D01*
X224250Y63772D01*
D02*
G37*
G36*
X155468Y60040D02*
X155250Y60029D01*
X155032Y60040D01*
X153777Y59941D01*
X153564Y59896D01*
X153347Y59873D01*
X152123Y59579D01*
X151919Y59501D01*
X151709Y59444D01*
X150545Y58963D01*
X150357Y58854D01*
X150158Y58765D01*
X149084Y58107D01*
X148915Y57970D01*
X148732Y57851D01*
X147774Y57034D01*
X147628Y56872D01*
X147466Y56726D01*
X146649Y55768D01*
X146530Y55585D01*
X146393Y55416D01*
X145735Y54342D01*
X145646Y54143D01*
X145537Y53955D01*
X145055Y52791D01*
X144999Y52581D01*
X144921Y52377D01*
X144627Y51153D01*
X144604Y50936D01*
X144559Y50723D01*
X144460Y49468D01*
X144466Y49358D01*
X144452Y49250D01*
X144466Y49142D01*
X144460Y49032D01*
X144559Y47777D01*
X144604Y47564D01*
X144627Y47347D01*
X144921Y46123D01*
X144999Y45919D01*
X145055Y45709D01*
X145537Y44545D01*
X145646Y44357D01*
X145735Y44158D01*
X146393Y43084D01*
X146530Y42915D01*
X146649Y42732D01*
X147466Y41774D01*
X147628Y41628D01*
X147774Y41466D01*
X148732Y40649D01*
X148914Y40530D01*
X149084Y40393D01*
X150158Y39735D01*
X150357Y39646D01*
X150545Y39537D01*
X151709Y39055D01*
X151919Y38999D01*
X152123Y38921D01*
X153347Y38627D01*
X153564Y38604D01*
X153777Y38559D01*
X155032Y38460D01*
X155250Y38472D01*
X155468Y38460D01*
X156723Y38559D01*
X156936Y38604D01*
X157153Y38627D01*
X158377Y38921D01*
X158581Y38999D01*
X158791Y39055D01*
X159955Y39537D01*
X160143Y39646D01*
X160342Y39735D01*
X161416Y40393D01*
X161585Y40530D01*
X161768Y40649D01*
X162726Y41466D01*
X162871Y41628D01*
X163034Y41774D01*
X163851Y42732D01*
X163970Y42915D01*
X164107Y43084D01*
X164765Y44158D01*
X164854Y44357D01*
X164963Y44545D01*
X165445Y45709D01*
X165501Y45919D01*
X165579Y46123D01*
X165873Y47347D01*
X165896Y47564D01*
X165941Y47777D01*
X166040Y49032D01*
X166034Y49142D01*
X166048Y49250D01*
X166034Y49358D01*
X166040Y49468D01*
X165941Y50723D01*
X165896Y50936D01*
X165873Y51153D01*
X165579Y52377D01*
X165501Y52581D01*
X165445Y52791D01*
X164963Y53955D01*
X164854Y54143D01*
X164765Y54342D01*
X164107Y55416D01*
X163970Y55585D01*
X163851Y55768D01*
X163034Y56726D01*
X162871Y56872D01*
X162726Y57034D01*
X161768Y57851D01*
X161586Y57970D01*
X161416Y58107D01*
X160342Y58765D01*
X160143Y58854D01*
X159955Y58963D01*
X158791Y59444D01*
X158581Y59501D01*
X158377Y59579D01*
X157153Y59873D01*
X156936Y59896D01*
X156723Y59941D01*
X155468Y60040D01*
D02*
G37*
G36*
X24500Y101715D02*
X9300D01*
X8843Y101655D01*
X8418Y101479D01*
X8052Y101198D01*
X7771Y100833D01*
X7595Y100407D01*
X7535Y99950D01*
Y93950D01*
X7595Y93493D01*
X7771Y93068D01*
X8052Y92702D01*
X8418Y92421D01*
X8843Y92245D01*
X9300Y92185D01*
X24500D01*
X24732Y91981D01*
Y88730D01*
X24543Y88705D01*
X24118Y88529D01*
X23752Y88248D01*
X23471Y87883D01*
X23295Y87457D01*
X23235Y87000D01*
Y77000D01*
X23295Y76543D01*
X23471Y76117D01*
X23752Y75752D01*
X24118Y75471D01*
X24543Y75295D01*
X25000Y75235D01*
X32000D01*
X32457Y75295D01*
X32883Y75471D01*
X33248Y75752D01*
X33529Y76117D01*
X33705Y76543D01*
X33765Y77000D01*
Y78232D01*
X40000D01*
X40031Y78235D01*
X43000D01*
X43457Y78295D01*
X43882Y78471D01*
X44248Y78752D01*
X44529Y79117D01*
X44705Y79543D01*
X44765Y80000D01*
Y84000D01*
X44705Y84457D01*
X44529Y84883D01*
X44248Y85248D01*
X43882Y85529D01*
X43457Y85705D01*
X43000Y85765D01*
X40031D01*
X40000Y85768D01*
X33765D01*
Y87000D01*
X33705Y87457D01*
X33529Y87883D01*
X33248Y88248D01*
X32883Y88529D01*
X32457Y88705D01*
X32268Y88730D01*
Y95000D01*
X32196Y95735D01*
X31981Y96442D01*
X31633Y97093D01*
X31165Y97664D01*
X29214Y99614D01*
X28644Y100083D01*
X27992Y100431D01*
X27285Y100646D01*
X26550Y100718D01*
X26076D01*
X26029Y100833D01*
X25748Y101198D01*
X25382Y101479D01*
X24957Y101655D01*
X24500Y101715D01*
D02*
G37*
G36*
X624750Y224015D02*
X534750D01*
X534293Y223955D01*
X533867Y223779D01*
X533502Y223498D01*
X533221Y223132D01*
X533045Y222707D01*
X532985Y222250D01*
Y198250D01*
X533045Y197793D01*
X533221Y197367D01*
X533502Y197002D01*
X533867Y196721D01*
X534293Y196545D01*
X534750Y196485D01*
X548729D01*
Y167000D01*
Y151805D01*
X534195Y137271D01*
X515500D01*
X514441Y137188D01*
X513408Y136939D01*
X512426Y136533D01*
X511520Y135978D01*
X510712Y135288D01*
X503962Y128538D01*
X503272Y127730D01*
X502717Y126824D01*
X502311Y125842D01*
X502062Y124809D01*
X501979Y123750D01*
Y123393D01*
X501972Y123383D01*
X501795Y122957D01*
X501735Y122500D01*
Y109000D01*
X501795Y108543D01*
X501972Y108117D01*
X501979Y108107D01*
Y54361D01*
X500890Y53759D01*
X499539Y52800D01*
X498304Y51696D01*
X497200Y50461D01*
X496241Y49110D01*
X495440Y47660D01*
X494806Y46129D01*
X494347Y44537D01*
X494070Y42904D01*
X493977Y41250D01*
X494070Y39596D01*
X494347Y37963D01*
X494806Y36371D01*
X495440Y34840D01*
X496241Y33390D01*
X497200Y32039D01*
X498304Y30804D01*
X499539Y29700D01*
X500890Y28741D01*
X502340Y27940D01*
X503871Y27306D01*
X505463Y26847D01*
X507096Y26570D01*
X508750Y26477D01*
X510404Y26570D01*
X512037Y26847D01*
X513629Y27306D01*
X515160Y27940D01*
X516610Y28741D01*
X517961Y29700D01*
X519196Y30804D01*
X520300Y32039D01*
X521259Y33390D01*
X522060Y34840D01*
X522694Y36371D01*
X523153Y37963D01*
X523430Y39596D01*
X523523Y41250D01*
X523430Y42904D01*
X523153Y44537D01*
X522694Y46129D01*
X522060Y47660D01*
X521259Y49110D01*
X520300Y50461D01*
X519196Y51696D01*
X517961Y52800D01*
X516610Y53759D01*
X515521Y54361D01*
Y93735D01*
X518000D01*
X518457Y93795D01*
X518883Y93971D01*
X519248Y94252D01*
X519529Y94618D01*
X519705Y95043D01*
X519765Y95500D01*
Y104500D01*
X519705Y104957D01*
X519529Y105382D01*
X519248Y105748D01*
X518883Y106029D01*
X518457Y106205D01*
X518000Y106265D01*
X515521D01*
Y120946D01*
X518268Y123693D01*
X519812Y123688D01*
X520979Y122500D01*
Y118250D01*
X528500D01*
Y113250D01*
X520979D01*
Y109000D01*
X521064Y108347D01*
X521316Y107739D01*
X521717Y107217D01*
X522239Y106816D01*
X522558Y106684D01*
X522920Y106168D01*
X523026Y105934D01*
X523300Y104968D01*
X523295Y104957D01*
X523235Y104500D01*
Y95500D01*
X523295Y95043D01*
X523471Y94618D01*
X523752Y94252D01*
X524118Y93971D01*
X524543Y93795D01*
X525000Y93735D01*
X533000D01*
X533457Y93795D01*
X533544Y93831D01*
X534453Y94173D01*
X535617Y93721D01*
X536043Y93545D01*
X536500Y93485D01*
X550500D01*
X550957Y93545D01*
X551383Y93721D01*
X551748Y94002D01*
X552029Y94367D01*
X552205Y94793D01*
X552265Y95250D01*
Y103750D01*
X552205Y104207D01*
X552029Y104633D01*
X551748Y104998D01*
X551383Y105279D01*
X550957Y105455D01*
X550500Y105515D01*
X536500D01*
X536131Y105466D01*
X535990Y105487D01*
X535588Y105732D01*
X535505Y106135D01*
X535345Y107298D01*
X535684Y107739D01*
X535936Y108347D01*
X536022Y109000D01*
Y109809D01*
X536500Y110228D01*
X541000D01*
Y117000D01*
X543500D01*
Y119500D01*
X553022D01*
Y121250D01*
X552936Y121903D01*
X552684Y122511D01*
X552283Y123033D01*
X551761Y123434D01*
X551153Y123686D01*
X550500Y123772D01*
X541811D01*
X541610Y124075D01*
X541300Y125296D01*
X541788Y125712D01*
X560288Y144212D01*
X560978Y145020D01*
X561533Y145926D01*
X561940Y146908D01*
X562188Y147941D01*
X562271Y149000D01*
Y167000D01*
Y196485D01*
X624750D01*
X625207Y196545D01*
X625633Y196721D01*
X625998Y197002D01*
X626279Y197367D01*
X626455Y197793D01*
X626515Y198250D01*
Y222250D01*
X626455Y222707D01*
X626279Y223132D01*
X625998Y223498D01*
X625633Y223779D01*
X625207Y223955D01*
X624750Y224015D01*
D02*
G37*
G36*
X207750Y107750D02*
X193728D01*
Y98250D01*
X193814Y97597D01*
X194066Y96989D01*
X194467Y96467D01*
X194989Y96066D01*
X195597Y95814D01*
X196250Y95728D01*
X207750D01*
Y107750D01*
D02*
G37*
G36*
X13000Y89522D02*
X12000D01*
X11347Y89436D01*
X10739Y89184D01*
X10217Y88783D01*
X9816Y88261D01*
X9564Y87653D01*
X9478Y87000D01*
Y84500D01*
X13000D01*
Y89522D01*
D02*
G37*
G36*
X19000D02*
X18000D01*
Y84500D01*
X21521D01*
Y87000D01*
X21436Y87653D01*
X21184Y88261D01*
X20783Y88783D01*
X20261Y89184D01*
X19653Y89436D01*
X19000Y89522D01*
D02*
G37*
G36*
X207750Y63772D02*
X196250D01*
X195597Y63686D01*
X194989Y63434D01*
X194467Y63033D01*
X194066Y62511D01*
X193814Y61903D01*
X193728Y61250D01*
Y51750D01*
X207750D01*
Y63772D01*
D02*
G37*
G36*
X324047Y38750D02*
X311250D01*
Y25953D01*
X312204Y26115D01*
X313877Y26597D01*
X315486Y27263D01*
X317010Y28105D01*
X318429Y29113D01*
X319727Y30273D01*
X320887Y31571D01*
X321895Y32991D01*
X322737Y34514D01*
X323403Y36123D01*
X323885Y37796D01*
X324047Y38750D01*
D02*
G37*
G36*
X216250Y224015D02*
X126250D01*
X125793Y223955D01*
X125367Y223779D01*
X125002Y223498D01*
X124721Y223132D01*
X124545Y222707D01*
X124485Y222250D01*
Y198250D01*
X124545Y197793D01*
X124721Y197367D01*
X125002Y197002D01*
X125367Y196721D01*
X125793Y196545D01*
X126250Y196485D01*
X189229D01*
Y154000D01*
X189312Y152941D01*
X189561Y151908D01*
X189967Y150926D01*
X190522Y150020D01*
X191212Y149212D01*
X214245Y126180D01*
X213662Y124772D01*
X212750D01*
Y112750D01*
X226772D01*
Y122250D01*
X227192Y122729D01*
X312771D01*
X313978Y121500D01*
Y119750D01*
X323500D01*
Y117250D01*
X326000D01*
Y110478D01*
X330500D01*
X331464Y109268D01*
X331491Y109156D01*
X331564Y108597D01*
X331816Y107989D01*
X332217Y107467D01*
X331856Y106008D01*
X331768Y105902D01*
X331118Y105638D01*
X330957Y105705D01*
X330500Y105765D01*
X316500D01*
X316043Y105705D01*
X315618Y105529D01*
X315252Y105248D01*
X314971Y104883D01*
X314795Y104457D01*
X314735Y104000D01*
Y95500D01*
X314795Y95043D01*
X314971Y94618D01*
X315252Y94252D01*
X315618Y93971D01*
X316043Y93795D01*
X316500Y93735D01*
X330500D01*
X330957Y93795D01*
X331306Y93940D01*
X331382Y93971D01*
X331383Y93971D01*
X331855Y94252D01*
X332645D01*
X333117Y93971D01*
X333117Y93971D01*
X333194Y93940D01*
X333543Y93795D01*
X334000Y93735D01*
X342000D01*
X342457Y93795D01*
X342882Y93971D01*
X343248Y94252D01*
X343529Y94618D01*
X343705Y95043D01*
X343765Y95500D01*
Y104500D01*
X343705Y104957D01*
X343602Y105204D01*
X343770Y105846D01*
X344298Y106768D01*
X344653Y106814D01*
X345261Y107066D01*
X345783Y107467D01*
X346184Y107989D01*
X346436Y108597D01*
X346521Y109250D01*
Y113500D01*
X339000D01*
Y118500D01*
X346521D01*
Y122729D01*
X349196D01*
X352229Y119695D01*
Y106265D01*
X349000D01*
X348543Y106205D01*
X348117Y106029D01*
X347752Y105748D01*
X347471Y105382D01*
X347295Y104957D01*
X347235Y104500D01*
Y95500D01*
X347295Y95043D01*
X347471Y94618D01*
X347752Y94252D01*
X348117Y93971D01*
X348543Y93795D01*
X349000Y93735D01*
X352229D01*
Y56015D01*
X345750D01*
X345293Y55955D01*
X344867Y55779D01*
X344502Y55498D01*
X344221Y55133D01*
X344045Y54707D01*
X343985Y54250D01*
Y28250D01*
X344045Y27793D01*
X344221Y27367D01*
X344502Y27002D01*
X344867Y26721D01*
X345293Y26545D01*
X345750Y26485D01*
X371750D01*
X372207Y26545D01*
X372633Y26721D01*
X372998Y27002D01*
X373279Y27367D01*
X373455Y27793D01*
X373515Y28250D01*
Y54250D01*
X373455Y54707D01*
X373279Y55133D01*
X372998Y55498D01*
X372633Y55779D01*
X372207Y55955D01*
X371750Y56015D01*
X365771D01*
Y122500D01*
X365765Y122574D01*
Y122750D01*
X365731Y123012D01*
X365688Y123559D01*
X365440Y124592D01*
X365033Y125574D01*
X364478Y126480D01*
X363788Y127288D01*
X356788Y134288D01*
X355980Y134978D01*
X355074Y135533D01*
X354092Y135940D01*
X353059Y136187D01*
X352000Y136271D01*
X223305D01*
X202771Y156805D01*
Y196485D01*
X216250D01*
X216707Y196545D01*
X217133Y196721D01*
X217498Y197002D01*
X217779Y197367D01*
X217955Y197793D01*
X218015Y198250D01*
Y222250D01*
X217955Y222707D01*
X217779Y223132D01*
X217498Y223498D01*
X217133Y223779D01*
X216707Y223955D01*
X216250Y224015D01*
D02*
G37*
G36*
X114250Y124015D02*
X86250D01*
X85793Y123955D01*
X85367Y123779D01*
X85002Y123498D01*
X84721Y123133D01*
X84545Y122707D01*
X84485Y122250D01*
Y114423D01*
X72100D01*
X72020Y114415D01*
X64500D01*
X64043Y114355D01*
X63617Y114179D01*
X63252Y113898D01*
X62971Y113532D01*
X62795Y113107D01*
X62735Y112650D01*
Y106650D01*
X62795Y106193D01*
X62971Y105767D01*
X63252Y105402D01*
X63617Y105121D01*
X64043Y104945D01*
X64500Y104885D01*
X72020D01*
X72100Y104877D01*
X84485D01*
Y101723D01*
X72100D01*
X72020Y101715D01*
X64500D01*
X64043Y101655D01*
X63617Y101479D01*
X63252Y101198D01*
X62971Y100833D01*
X62795Y100407D01*
X62735Y99950D01*
Y93950D01*
X62795Y93493D01*
X62971Y93068D01*
X63252Y92702D01*
X63617Y92421D01*
X64043Y92245D01*
X64500Y92185D01*
X72020D01*
X72100Y92177D01*
X86650D01*
X86650Y92177D01*
X87581Y92269D01*
X88476Y92540D01*
X89302Y92981D01*
X89706Y93313D01*
X91230Y92843D01*
Y63015D01*
X86250D01*
X85793Y62955D01*
X85367Y62779D01*
X85002Y62498D01*
X84721Y62133D01*
X84545Y61707D01*
X84485Y61250D01*
Y37250D01*
X84545Y36793D01*
X84721Y36367D01*
X85002Y36002D01*
X85367Y35721D01*
X85793Y35545D01*
X86250Y35485D01*
X102906D01*
X121945Y16445D01*
X122857Y15646D01*
X123865Y14972D01*
X124953Y14436D01*
X126101Y14046D01*
X127290Y13809D01*
X128500Y13730D01*
X240500D01*
X241710Y13809D01*
X242899Y14046D01*
X244047Y14436D01*
X245135Y14972D01*
X246143Y15646D01*
X247055Y16445D01*
X257094Y26485D01*
X271750D01*
X272207Y26545D01*
X272633Y26721D01*
X272998Y27002D01*
X273279Y27367D01*
X273455Y27793D01*
X273515Y28250D01*
Y54250D01*
X273455Y54707D01*
X273279Y55133D01*
X272998Y55498D01*
X272633Y55779D01*
X272207Y55955D01*
X271750Y56015D01*
X245750D01*
X245293Y55955D01*
X244867Y55779D01*
X244502Y55498D01*
X244221Y55133D01*
X244045Y54707D01*
X243985Y54250D01*
Y39594D01*
X236660Y32270D01*
X132340D01*
X116015Y48594D01*
Y61250D01*
X115955Y61707D01*
X115779Y62133D01*
X115498Y62498D01*
X115133Y62779D01*
X114707Y62955D01*
X114250Y63015D01*
X109770D01*
Y96485D01*
X114250D01*
X114707Y96545D01*
X115133Y96721D01*
X115498Y97002D01*
X115779Y97367D01*
X115955Y97793D01*
X116015Y98250D01*
Y122250D01*
X115955Y122707D01*
X115779Y123133D01*
X115498Y123498D01*
X115133Y123779D01*
X114707Y123955D01*
X114250Y124015D01*
D02*
G37*
G36*
X306250Y38750D02*
X293453D01*
X293615Y37796D01*
X294097Y36123D01*
X294763Y34514D01*
X295605Y32991D01*
X296612Y31571D01*
X297773Y30273D01*
X299071Y29113D01*
X300490Y28105D01*
X302014Y27263D01*
X303623Y26597D01*
X305296Y26115D01*
X306250Y25953D01*
Y38750D01*
D02*
G37*
G36*
X495917Y185765D02*
X405917D01*
X405460Y185705D01*
X405034Y185529D01*
X404669Y185248D01*
X404388Y184883D01*
X404212Y184457D01*
X404151Y184000D01*
Y160000D01*
X404212Y159543D01*
X404388Y159117D01*
X404669Y158752D01*
X405034Y158471D01*
X405460Y158295D01*
X405917Y158235D01*
X495917D01*
X496373Y158295D01*
X496799Y158471D01*
X497165Y158752D01*
X497445Y159117D01*
X497622Y159543D01*
X497682Y160000D01*
Y168729D01*
X518735D01*
Y167073D01*
X518729Y167000D01*
Y155805D01*
X517195Y154271D01*
X504500D01*
X503441Y154187D01*
X502408Y153940D01*
X501426Y153533D01*
X500520Y152978D01*
X499712Y152288D01*
X476212Y128788D01*
X475522Y127980D01*
X474967Y127074D01*
X474561Y126092D01*
X474313Y125059D01*
X474229Y124000D01*
Y116000D01*
Y106265D01*
X471500D01*
X471043Y106205D01*
X470617Y106029D01*
X470252Y105748D01*
X469971Y105383D01*
X469795Y104957D01*
X469735Y104500D01*
Y95500D01*
X469795Y95043D01*
X469971Y94617D01*
X470252Y94252D01*
X470617Y93971D01*
X471043Y93795D01*
X471500Y93735D01*
X474229D01*
Y66304D01*
X463940Y56015D01*
X445750D01*
X445293Y55955D01*
X444867Y55779D01*
X444502Y55498D01*
X444221Y55133D01*
X444045Y54707D01*
X443985Y54250D01*
Y28250D01*
X444045Y27793D01*
X444221Y27367D01*
X444502Y27002D01*
X444867Y26721D01*
X445293Y26545D01*
X445750Y26485D01*
X471750D01*
X472207Y26545D01*
X472633Y26721D01*
X472998Y27002D01*
X473279Y27367D01*
X473455Y27793D01*
X473515Y28250D01*
Y46440D01*
X485788Y58712D01*
X486478Y59520D01*
X487033Y60426D01*
X487439Y61408D01*
X487687Y62441D01*
X487771Y63500D01*
Y116000D01*
Y121195D01*
X507305Y140729D01*
X520000D01*
X521059Y140813D01*
X522092Y141060D01*
X523074Y141467D01*
X523980Y142022D01*
X524788Y142712D01*
X530288Y148212D01*
X530978Y149020D01*
X531533Y149926D01*
X531940Y150908D01*
X532188Y151941D01*
X532271Y153000D01*
Y159750D01*
Y167000D01*
X532265Y167073D01*
Y180500D01*
X532205Y180957D01*
X532029Y181383D01*
X531748Y181748D01*
X531383Y182029D01*
X530957Y182205D01*
X530500Y182265D01*
X524823D01*
X524750Y182271D01*
X497682D01*
Y184000D01*
X497622Y184457D01*
X497445Y184883D01*
X497165Y185248D01*
X496799Y185529D01*
X496373Y185705D01*
X495917Y185765D01*
D02*
G37*
G36*
X306250Y56547D02*
X305296Y56385D01*
X303623Y55903D01*
X302014Y55237D01*
X300490Y54395D01*
X299071Y53387D01*
X297773Y52227D01*
X296612Y50929D01*
X295605Y49510D01*
X294763Y47986D01*
X294097Y46377D01*
X293615Y44704D01*
X293453Y43750D01*
X306250D01*
Y56547D01*
D02*
G37*
G36*
X311250D02*
Y43750D01*
X324047D01*
X323885Y44704D01*
X323403Y46377D01*
X322737Y47986D01*
X321895Y49510D01*
X320887Y50929D01*
X319727Y52227D01*
X318429Y53387D01*
X317010Y54395D01*
X315486Y55237D01*
X313877Y55903D01*
X312204Y56385D01*
X311250Y56547D01*
D02*
G37*
G36*
X207750Y46750D02*
X193728D01*
Y37250D01*
X193814Y36597D01*
X194066Y35989D01*
X194467Y35467D01*
X194989Y35066D01*
X195597Y34814D01*
X196250Y34728D01*
X207750D01*
Y46750D01*
D02*
G37*
G36*
X226772D02*
X212750D01*
Y34728D01*
X224250D01*
X224903Y34814D01*
X225511Y35066D01*
X226033Y35467D01*
X226434Y35989D01*
X226686Y36597D01*
X226772Y37250D01*
Y46750D01*
D02*
G37*
G36*
Y107750D02*
X212750D01*
Y95728D01*
X224250D01*
X224903Y95814D01*
X225511Y96066D01*
X226033Y96467D01*
X226434Y96989D01*
X226686Y97597D01*
X226772Y98250D01*
Y107750D01*
D02*
G37*
G36*
X59000Y173022D02*
X58000D01*
Y168000D01*
X61522D01*
Y170500D01*
X61436Y171153D01*
X61184Y171761D01*
X60783Y172283D01*
X60261Y172684D01*
X59653Y172936D01*
X59000Y173022D01*
D02*
G37*
G36*
X86500Y211750D02*
X81479D01*
Y207500D01*
X81564Y206847D01*
X81816Y206239D01*
X82217Y205717D01*
X82739Y205316D01*
X83347Y205064D01*
X84000Y204978D01*
X86500D01*
Y211750D01*
D02*
G37*
G36*
X345500Y185765D02*
X255500D01*
X255043Y185705D01*
X254617Y185529D01*
X254252Y185248D01*
X253971Y184883D01*
X253795Y184457D01*
X253735Y184000D01*
Y182771D01*
X229500D01*
X229427Y182765D01*
X221000D01*
X220543Y182705D01*
X220117Y182529D01*
X219752Y182248D01*
X219471Y181883D01*
X219295Y181457D01*
X219235Y181000D01*
Y167573D01*
X219229Y167500D01*
Y154000D01*
X219312Y152941D01*
X219561Y151908D01*
X219967Y150926D01*
X220522Y150020D01*
X221212Y149212D01*
X229212Y141212D01*
X230020Y140522D01*
X230926Y139967D01*
X231908Y139560D01*
X232941Y139312D01*
X234000Y139229D01*
X362696D01*
X382729Y119195D01*
Y60500D01*
X382812Y59441D01*
X383060Y58408D01*
X383467Y57426D01*
X384022Y56520D01*
X384712Y55712D01*
X394692Y45733D01*
X394347Y44537D01*
X394070Y42904D01*
X393977Y41250D01*
X394070Y39596D01*
X394347Y37963D01*
X394806Y36371D01*
X395440Y34840D01*
X396241Y33390D01*
X397200Y32039D01*
X398304Y30804D01*
X399539Y29700D01*
X400890Y28741D01*
X402340Y27940D01*
X403871Y27306D01*
X405463Y26847D01*
X407096Y26570D01*
X408750Y26477D01*
X410404Y26570D01*
X412037Y26847D01*
X413629Y27306D01*
X415160Y27940D01*
X416610Y28741D01*
X417961Y29700D01*
X419196Y30804D01*
X420300Y32039D01*
X421259Y33390D01*
X422060Y34840D01*
X422694Y36371D01*
X423153Y37963D01*
X423430Y39596D01*
X423523Y41250D01*
X423430Y42904D01*
X423153Y44537D01*
X422694Y46129D01*
X422060Y47660D01*
X421259Y49110D01*
X420300Y50461D01*
X419196Y51696D01*
X417961Y52800D01*
X416610Y53759D01*
X415160Y54560D01*
X413629Y55194D01*
X412037Y55653D01*
X410404Y55930D01*
X408750Y56023D01*
X407096Y55930D01*
X405463Y55653D01*
X404267Y55308D01*
X396271Y63305D01*
Y93735D01*
X399500D01*
X399957Y93795D01*
X400382Y93971D01*
X400748Y94252D01*
X401029Y94618D01*
X401205Y95043D01*
X401265Y95500D01*
Y104500D01*
X401205Y104957D01*
X401029Y105382D01*
X400748Y105748D01*
X400382Y106029D01*
X399957Y106205D01*
X399500Y106265D01*
X396271D01*
Y122000D01*
X396265Y122074D01*
Y122750D01*
X396205Y123207D01*
X396079Y123510D01*
X395939Y124092D01*
X395533Y125074D01*
X394978Y125980D01*
X394288Y126788D01*
X370288Y150788D01*
X369480Y151478D01*
X368574Y152033D01*
X367592Y152439D01*
X366559Y152688D01*
X365500Y152771D01*
X236805D01*
X232771Y156805D01*
Y167500D01*
X232765Y167573D01*
Y169229D01*
X253735D01*
Y160000D01*
X253795Y159543D01*
X253971Y159117D01*
X254252Y158752D01*
X254617Y158471D01*
X255043Y158295D01*
X255500Y158235D01*
X278420D01*
X278500Y158227D01*
X278580Y158235D01*
X345500D01*
X345957Y158295D01*
X346382Y158471D01*
X346748Y158752D01*
X347029Y159117D01*
X347205Y159543D01*
X347265Y160000D01*
Y184000D01*
X347205Y184457D01*
X347029Y184883D01*
X346748Y185248D01*
X346382Y185529D01*
X345957Y185705D01*
X345500Y185765D01*
D02*
G37*
G36*
X53000Y173022D02*
X52000D01*
X51347Y172936D01*
X50739Y172684D01*
X50217Y172283D01*
X49816Y171761D01*
X49564Y171153D01*
X49479Y170500D01*
Y168000D01*
X53000D01*
Y173022D01*
D02*
G37*
G36*
X96522Y211750D02*
X91500D01*
Y204978D01*
X94000D01*
X94653Y205064D01*
X95261Y205316D01*
X95783Y205717D01*
X96184Y206239D01*
X96436Y206847D01*
X96522Y207500D01*
Y211750D01*
D02*
G37*
G36*
X475500Y304500D02*
X455479D01*
Y298000D01*
X455564Y297347D01*
X455816Y296739D01*
X456217Y296217D01*
X456739Y295816D01*
X457347Y295564D01*
X458000Y295478D01*
X475500D01*
Y304500D01*
D02*
G37*
G36*
X500522D02*
X480500D01*
Y295478D01*
X498000D01*
X498653Y295564D01*
X499261Y295816D01*
X499783Y296217D01*
X500184Y296739D01*
X500436Y297347D01*
X500522Y298000D01*
Y304500D01*
D02*
G37*
G36*
X269500Y304500D02*
X249478D01*
Y298000D01*
X249564Y297347D01*
X249816Y296739D01*
X250217Y296217D01*
X250739Y295816D01*
X251347Y295564D01*
X252000Y295478D01*
X269500D01*
Y304500D01*
D02*
G37*
G36*
X294522D02*
X274500D01*
Y295478D01*
X292000D01*
X292653Y295564D01*
X293261Y295816D01*
X293783Y296217D01*
X294184Y296739D01*
X294436Y297347D01*
X294522Y298000D01*
Y304500D01*
D02*
G37*
G36*
X29000Y182768D02*
X28969Y182765D01*
X26000D01*
X25543Y182705D01*
X25117Y182529D01*
X24752Y182248D01*
X24471Y181883D01*
X24295Y181457D01*
X24235Y181000D01*
Y177000D01*
X24295Y176543D01*
X24471Y176117D01*
X24752Y175752D01*
X25117Y175471D01*
X25232Y175424D01*
Y171730D01*
X25043Y171705D01*
X24618Y171529D01*
X24252Y171248D01*
X23971Y170882D01*
X23795Y170457D01*
X23735Y170000D01*
Y161000D01*
X23795Y160543D01*
X23971Y160117D01*
X24252Y159752D01*
X24618Y159471D01*
X24727Y159426D01*
Y157574D01*
X24617Y157529D01*
X24252Y157248D01*
X23971Y156883D01*
X23795Y156457D01*
X23735Y156000D01*
Y147000D01*
X23795Y146543D01*
X23971Y146117D01*
X24252Y145752D01*
X24617Y145471D01*
X24727Y145426D01*
Y143000D01*
X24727Y143000D01*
X24819Y142069D01*
X25038Y141347D01*
X24833Y140829D01*
X24084Y139823D01*
X19273D01*
Y159426D01*
X19382Y159471D01*
X19748Y159752D01*
X20029Y160117D01*
X20205Y160543D01*
X20265Y161000D01*
Y170000D01*
X20205Y170457D01*
X20029Y170882D01*
X19748Y171248D01*
X19382Y171529D01*
X18957Y171705D01*
X18768Y171730D01*
Y175424D01*
X18883Y175471D01*
X19248Y175752D01*
X19529Y176117D01*
X19705Y176543D01*
X19765Y177000D01*
Y181000D01*
X19705Y181457D01*
X19529Y181883D01*
X19248Y182248D01*
X18883Y182529D01*
X18457Y182705D01*
X18000Y182765D01*
X15031D01*
X15000Y182768D01*
X14969Y182765D01*
X12000D01*
X11543Y182705D01*
X11117Y182529D01*
X10752Y182248D01*
X10471Y181883D01*
X10295Y181457D01*
X10235Y181000D01*
Y177000D01*
X10295Y176543D01*
X10471Y176117D01*
X10752Y175752D01*
X11117Y175471D01*
X11232Y175424D01*
Y171765D01*
X10500D01*
X10043Y171705D01*
X9617Y171529D01*
X9252Y171248D01*
X8971Y170882D01*
X8795Y170457D01*
X8735Y170000D01*
Y161000D01*
X8795Y160543D01*
X8971Y160117D01*
X9252Y159752D01*
X9617Y159471D01*
X9727Y159426D01*
Y139815D01*
X9300D01*
X8843Y139755D01*
X8418Y139579D01*
X8052Y139298D01*
X7771Y138933D01*
X7595Y138507D01*
X7535Y138050D01*
Y132050D01*
X7595Y131593D01*
X7771Y131167D01*
X8052Y130802D01*
X8418Y130521D01*
X8843Y130345D01*
X9300Y130285D01*
X16820D01*
X16900Y130277D01*
X27473D01*
X28995Y128755D01*
X28664Y127532D01*
X28449Y127145D01*
X28377Y127123D01*
X16900D01*
X16820Y127115D01*
X9300D01*
X8843Y127055D01*
X8418Y126879D01*
X8052Y126598D01*
X7771Y126233D01*
X7595Y125807D01*
X7535Y125350D01*
Y119350D01*
X7595Y118893D01*
X7771Y118468D01*
X8052Y118102D01*
X8418Y117821D01*
X8843Y117645D01*
X9300Y117585D01*
X16820D01*
X16900Y117577D01*
X29350D01*
X29350Y117577D01*
X29707Y117612D01*
X30399Y116149D01*
X28673Y114423D01*
X16900D01*
X16820Y114415D01*
X9300D01*
X8843Y114355D01*
X8418Y114179D01*
X8052Y113898D01*
X7771Y113532D01*
X7595Y113107D01*
X7535Y112650D01*
Y106650D01*
X7595Y106193D01*
X7771Y105767D01*
X8052Y105402D01*
X8418Y105121D01*
X8843Y104945D01*
X9300Y104885D01*
X16820D01*
X16900Y104877D01*
X29794D01*
X49609Y85062D01*
X49471Y84883D01*
X49295Y84457D01*
X49235Y84000D01*
Y80000D01*
X49295Y79543D01*
X49471Y79117D01*
X49752Y78752D01*
X50118Y78471D01*
X50543Y78295D01*
X51000Y78235D01*
X53969D01*
X54000Y78232D01*
X54031Y78235D01*
X57000D01*
X57457Y78295D01*
X57882Y78471D01*
X58248Y78752D01*
X58529Y79117D01*
X58705Y79543D01*
X58765Y80000D01*
Y84000D01*
X58705Y84457D01*
X58529Y84883D01*
X58248Y85248D01*
X57882Y85529D01*
X57768Y85576D01*
Y86000D01*
X57696Y86735D01*
X57481Y87442D01*
X57133Y88094D01*
X56665Y88665D01*
X36539Y108790D01*
X40399Y112649D01*
X40399Y112649D01*
X40993Y113372D01*
X41434Y114198D01*
X41705Y115093D01*
X41797Y116024D01*
X41797Y116024D01*
Y127476D01*
X41797Y127476D01*
X41705Y128407D01*
X41434Y129303D01*
X40993Y130128D01*
X40399Y130851D01*
X33271Y137979D01*
X32967Y139241D01*
X33077Y139871D01*
X33469Y140348D01*
X33910Y141173D01*
X34181Y142069D01*
X34273Y143000D01*
Y145426D01*
X34383Y145471D01*
X34748Y145752D01*
X35029Y146117D01*
X35205Y146543D01*
X35265Y147000D01*
Y156000D01*
X35205Y156457D01*
X35029Y156883D01*
X34748Y157248D01*
X34383Y157529D01*
X34273Y157574D01*
Y159426D01*
X34383Y159471D01*
X34748Y159752D01*
X35029Y160117D01*
X35205Y160543D01*
X35229Y160727D01*
X37235D01*
Y160500D01*
X37295Y160043D01*
X37471Y159617D01*
X37752Y159252D01*
X38117Y158971D01*
X38543Y158795D01*
X38785Y158763D01*
X39097Y158117D01*
X39223Y157211D01*
X38971Y156883D01*
X38795Y156457D01*
X38735Y156000D01*
Y147000D01*
X38795Y146543D01*
X38971Y146117D01*
X39252Y145752D01*
X39617Y145471D01*
X40043Y145295D01*
X40500Y145235D01*
X48500D01*
X48957Y145295D01*
X49383Y145471D01*
X49748Y145752D01*
X50029Y146117D01*
X50205Y146543D01*
X50229Y146727D01*
X52235D01*
Y146500D01*
X52295Y146043D01*
X52471Y145618D01*
X52752Y145252D01*
X53117Y144971D01*
X53543Y144795D01*
X54000Y144735D01*
X61000D01*
X61457Y144795D01*
X61883Y144971D01*
X62248Y145252D01*
X62529Y145618D01*
X62705Y146043D01*
X62765Y146500D01*
Y156500D01*
X62705Y156957D01*
X62529Y157382D01*
X62248Y157748D01*
X62067Y157887D01*
X61431Y158861D01*
X61395Y159750D01*
X61436Y159847D01*
X61522Y160500D01*
Y163000D01*
X55500D01*
X49479D01*
Y160500D01*
X49564Y159847D01*
X49746Y159410D01*
X49816Y159239D01*
X49837Y159178D01*
X49064Y157885D01*
X48881Y157715D01*
X48500Y157765D01*
X48500Y157765D01*
X48438Y157765D01*
X47814D01*
X47301Y159112D01*
X47277Y159289D01*
X47529Y159617D01*
X47705Y160043D01*
X47765Y160500D01*
Y170500D01*
X47705Y170957D01*
X47529Y171383D01*
X47248Y171748D01*
X46883Y172029D01*
X46457Y172205D01*
X46000Y172265D01*
X39000D01*
X38543Y172205D01*
X38117Y172029D01*
X37752Y171748D01*
X37471Y171383D01*
X37295Y170957D01*
X37235Y170500D01*
Y170273D01*
X35229D01*
X35205Y170457D01*
X35029Y170882D01*
X34748Y171248D01*
X34383Y171529D01*
X33957Y171705D01*
X33500Y171765D01*
X32768D01*
Y175424D01*
X32883Y175471D01*
X33248Y175752D01*
X33529Y176117D01*
X33705Y176543D01*
X33765Y177000D01*
Y181000D01*
X33705Y181457D01*
X33529Y181883D01*
X33248Y182248D01*
X32883Y182529D01*
X32457Y182705D01*
X32000Y182765D01*
X29031D01*
X29000Y182768D01*
D02*
G37*
G36*
X553022Y114500D02*
X546000D01*
Y110228D01*
X550500D01*
X551153Y110314D01*
X551761Y110566D01*
X552283Y110967D01*
X552684Y111489D01*
X552936Y112097D01*
X553022Y112750D01*
Y114500D01*
D02*
G37*
G36*
X321000Y114750D02*
X313978D01*
Y113000D01*
X314064Y112347D01*
X314316Y111739D01*
X314717Y111217D01*
X315239Y110816D01*
X315847Y110564D01*
X316500Y110478D01*
X321000D01*
Y114750D01*
D02*
G37*
G36*
X155431Y106037D02*
X155250Y106025D01*
X155069Y106037D01*
X153891Y105960D01*
X153713Y105925D01*
X153532Y105913D01*
X152374Y105682D01*
X152202Y105624D01*
X152024Y105589D01*
X150907Y105209D01*
X150744Y105129D01*
X150572Y105070D01*
X149514Y104549D01*
X149362Y104448D01*
X149199Y104367D01*
X148218Y103712D01*
X148082Y103592D01*
X147931Y103491D01*
X147044Y102713D01*
X146924Y102576D01*
X146787Y102456D01*
X146009Y101569D01*
X145908Y101418D01*
X145788Y101282D01*
X145133Y100301D01*
X145052Y100138D01*
X144951Y99986D01*
X144430Y98928D01*
X144371Y98756D01*
X144291Y98593D01*
X143912Y97476D01*
X143876Y97298D01*
X143818Y97126D01*
X143587Y95968D01*
X143575Y95787D01*
X143540Y95609D01*
X143463Y94431D01*
X143469Y94340D01*
X143457Y94250D01*
X143469Y94160D01*
X143463Y94069D01*
X143540Y92891D01*
X143575Y92713D01*
X143587Y92532D01*
X143818Y91375D01*
X143876Y91202D01*
X143912Y91024D01*
X144291Y89907D01*
X144371Y89744D01*
X144430Y89572D01*
X144951Y88514D01*
X145052Y88362D01*
X145133Y88199D01*
X145788Y87218D01*
X145908Y87082D01*
X146009Y86931D01*
X146787Y86044D01*
X146924Y85924D01*
X147044Y85787D01*
X147931Y85009D01*
X148082Y84908D01*
X148218Y84788D01*
X149199Y84133D01*
X149362Y84052D01*
X149514Y83951D01*
X150572Y83430D01*
X150744Y83371D01*
X150907Y83291D01*
X152024Y82912D01*
X152202Y82876D01*
X152374Y82818D01*
X153532Y82587D01*
X153713Y82576D01*
X153891Y82540D01*
X155069Y82463D01*
X155250Y82475D01*
X155431Y82463D01*
X156609Y82540D01*
X156787Y82576D01*
X156968Y82587D01*
X158125Y82818D01*
X158298Y82876D01*
X158476Y82912D01*
X159593Y83291D01*
X159756Y83371D01*
X159928Y83430D01*
X160986Y83951D01*
X161138Y84052D01*
X161301Y84133D01*
X162282Y84788D01*
X162418Y84908D01*
X162569Y85009D01*
X163456Y85787D01*
X163576Y85924D01*
X163713Y86044D01*
X164491Y86931D01*
X164592Y87082D01*
X164712Y87218D01*
X165367Y88199D01*
X165448Y88362D01*
X165549Y88514D01*
X166070Y89572D01*
X166129Y89744D01*
X166209Y89907D01*
X166588Y91024D01*
X166624Y91202D01*
X166682Y91375D01*
X166912Y92532D01*
X166924Y92713D01*
X166960Y92891D01*
X167037Y94069D01*
X167031Y94160D01*
X167043Y94250D01*
X167031Y94340D01*
X167037Y94431D01*
X166960Y95609D01*
X166924Y95787D01*
X166912Y95968D01*
X166682Y97126D01*
X166624Y97298D01*
X166588Y97476D01*
X166209Y98593D01*
X166129Y98756D01*
X166070Y98928D01*
X165549Y99986D01*
X165448Y100138D01*
X165367Y100301D01*
X164712Y101282D01*
X164592Y101418D01*
X164491Y101569D01*
X163713Y102456D01*
X163576Y102576D01*
X163456Y102713D01*
X162569Y103491D01*
X162418Y103592D01*
X162282Y103712D01*
X161301Y104367D01*
X161138Y104448D01*
X160986Y104549D01*
X159928Y105070D01*
X159756Y105129D01*
X159593Y105209D01*
X158476Y105589D01*
X158298Y105624D01*
X158125Y105682D01*
X156968Y105913D01*
X156787Y105925D01*
X156609Y105960D01*
X155431Y106037D01*
D02*
G37*
G36*
X414500Y125272D02*
X412000D01*
Y116000D01*
X409500D01*
Y113500D01*
X401978D01*
Y109250D01*
X402064Y108597D01*
X402316Y107989D01*
X402717Y107467D01*
X403239Y107066D01*
X403847Y106814D01*
X404202Y106768D01*
X404730Y105846D01*
X404898Y105204D01*
X404795Y104957D01*
X404735Y104500D01*
Y95500D01*
X404795Y95043D01*
X404971Y94618D01*
X405252Y94252D01*
X405617Y93971D01*
X406043Y93795D01*
X406500Y93735D01*
X414500D01*
X414957Y93795D01*
X415383Y93971D01*
X415748Y94252D01*
X415881Y94426D01*
X415910Y94433D01*
X416825Y94439D01*
X417538Y94280D01*
X417752Y94002D01*
X418117Y93721D01*
X418543Y93545D01*
X419000Y93485D01*
X433000D01*
X433457Y93545D01*
X433883Y93721D01*
X434248Y94002D01*
X434529Y94367D01*
X434705Y94793D01*
X434765Y95250D01*
Y103750D01*
X434705Y104207D01*
X434529Y104633D01*
X434248Y104998D01*
X433883Y105279D01*
X433457Y105455D01*
X433000Y105515D01*
X419000D01*
X418543Y105455D01*
X418117Y105279D01*
X418083Y105252D01*
X416399Y105471D01*
X415865Y106314D01*
X416062Y107272D01*
X416086Y107316D01*
X416283Y107467D01*
X416684Y107989D01*
X416936Y108597D01*
X417021Y109250D01*
Y109293D01*
X418161Y110171D01*
X418546Y110288D01*
X419000Y110228D01*
X423500D01*
Y117000D01*
Y123772D01*
X419000D01*
X418347Y123686D01*
X417565Y123529D01*
X416684Y124011D01*
X416283Y124533D01*
X415761Y124934D01*
X415153Y125186D01*
X414500Y125272D01*
D02*
G37*
G36*
X207750Y124772D02*
X196250D01*
X195597Y124686D01*
X194989Y124434D01*
X194467Y124033D01*
X194066Y123511D01*
X193814Y122903D01*
X193728Y122250D01*
Y112750D01*
X207750D01*
Y124772D01*
D02*
G37*
G36*
X443500Y124022D02*
X439000D01*
X438347Y123936D01*
X437739Y123684D01*
X437217Y123283D01*
X436816Y122761D01*
X436773Y122656D01*
X435364Y122527D01*
X435156Y122547D01*
X434783Y123033D01*
X434261Y123434D01*
X433653Y123686D01*
X433000Y123772D01*
X428500D01*
Y117000D01*
Y110228D01*
X433000D01*
X433653Y110314D01*
X434261Y110566D01*
X434783Y110967D01*
X435184Y111489D01*
X435227Y111594D01*
X436636Y111723D01*
X436844Y111704D01*
X437217Y111217D01*
X437739Y110816D01*
X438347Y110564D01*
X439000Y110478D01*
X443500D01*
Y117250D01*
Y124022D01*
D02*
G37*
G36*
X458500Y125272D02*
X456000D01*
X455347Y125186D01*
X454739Y124934D01*
X454217Y124533D01*
X453816Y124011D01*
X453766Y123889D01*
X453653Y123936D01*
X453000Y124022D01*
X448500D01*
Y117250D01*
Y110478D01*
X453000D01*
X453478Y110059D01*
Y109250D01*
X453564Y108597D01*
X453816Y107989D01*
X454033Y107707D01*
X453955Y106505D01*
X453799Y105929D01*
X453457Y105705D01*
X453000Y105765D01*
X439000D01*
X438543Y105705D01*
X438117Y105529D01*
X437752Y105248D01*
X437471Y104883D01*
X437295Y104457D01*
X437235Y104000D01*
Y95500D01*
X437295Y95043D01*
X437471Y94617D01*
X437752Y94252D01*
X438117Y93971D01*
X438543Y93795D01*
X439000Y93735D01*
X453000D01*
X453457Y93795D01*
X453806Y93940D01*
X453883Y93971D01*
X453883Y93971D01*
X454355Y94252D01*
X455145D01*
X455617Y93971D01*
X455617Y93971D01*
X455694Y93940D01*
X456043Y93795D01*
X456500Y93735D01*
X464500D01*
X464957Y93795D01*
X465383Y93971D01*
X465748Y94252D01*
X466029Y94617D01*
X466205Y95043D01*
X466265Y95500D01*
Y104500D01*
X466205Y104957D01*
X466087Y105241D01*
X466087Y105257D01*
X466240Y105867D01*
X466602Y106699D01*
X466738Y106850D01*
X467261Y107066D01*
X467783Y107467D01*
X468184Y107989D01*
X468436Y108597D01*
X468521Y109250D01*
Y113500D01*
X461000D01*
Y116000D01*
X458500D01*
Y125272D01*
D02*
G37*
G36*
X407000D02*
X404500D01*
X403847Y125186D01*
X403239Y124934D01*
X402717Y124533D01*
X402316Y124011D01*
X402064Y123403D01*
X401978Y122750D01*
Y118500D01*
X407000D01*
Y125272D01*
D02*
G37*
G36*
X466000D02*
X463500D01*
Y118500D01*
X468521D01*
Y122750D01*
X468436Y123403D01*
X468184Y124011D01*
X467783Y124533D01*
X467261Y124934D01*
X466653Y125186D01*
X466000Y125272D01*
D02*
G37*
G36*
X343741Y415250D02*
X333500D01*
X323259D01*
X323321Y414782D01*
X323598Y414113D01*
X323685Y414000D01*
X323598Y413887D01*
X323321Y413218D01*
X323259Y412750D01*
X333500D01*
X343741D01*
X343679Y413218D01*
X343402Y413887D01*
X343315Y414000D01*
X343402Y414113D01*
X343679Y414782D01*
X343741Y415250D01*
D02*
G37*
G36*
X198000Y498273D02*
X197069Y498181D01*
X196173Y497910D01*
X195348Y497469D01*
X194625Y496875D01*
X194031Y496152D01*
X193590Y495326D01*
X193319Y494431D01*
X193288Y494117D01*
X190336Y491165D01*
X189867Y490593D01*
X189519Y489942D01*
X189304Y489235D01*
X189232Y488500D01*
Y484265D01*
X188000D01*
X187543Y484205D01*
X186732Y484533D01*
X186193Y485239D01*
X186184Y485261D01*
X185783Y485783D01*
X185261Y486184D01*
X184653Y486436D01*
X184000Y486522D01*
X182000D01*
Y480000D01*
Y473479D01*
X184000D01*
X184653Y473564D01*
X185261Y473816D01*
X185272Y473825D01*
X185847Y474205D01*
X187118Y473971D01*
X187543Y473795D01*
X188000Y473735D01*
X198000D01*
X198457Y473795D01*
X198806Y473940D01*
X198883Y473971D01*
X198883Y473971D01*
X199355Y474252D01*
X200145D01*
X200617Y473971D01*
X200617Y473971D01*
X200694Y473940D01*
X201043Y473795D01*
X201500Y473735D01*
X209415D01*
X209998Y472327D01*
X208936Y471265D01*
X201500D01*
X201043Y471205D01*
X200694Y471060D01*
X200617Y471029D01*
X200617Y471029D01*
X200145Y470748D01*
X199355D01*
X198883Y471029D01*
X198883Y471029D01*
X198806Y471060D01*
X198457Y471205D01*
X198000Y471265D01*
X188000D01*
X187543Y471205D01*
X187117Y471029D01*
X186752Y470748D01*
X186471Y470383D01*
X185017Y470425D01*
X184883Y470529D01*
X184457Y470705D01*
X184000Y470765D01*
X175000D01*
X174543Y470705D01*
X174117Y470529D01*
X173752Y470248D01*
X173471Y469883D01*
X173295Y469457D01*
X173235Y469000D01*
Y464774D01*
X172131Y463671D01*
X170662D01*
X170112Y464785D01*
X169402Y465848D01*
X168559Y466809D01*
X167598Y467652D01*
X166535Y468362D01*
X165389Y468927D01*
X164179Y469338D01*
X162925Y469587D01*
X161650Y469671D01*
X160375Y469587D01*
X159121Y469338D01*
X157911Y468927D01*
X156764Y468362D01*
X155702Y467652D01*
X154741Y466809D01*
X153898Y465848D01*
X153188Y464785D01*
X152623Y463639D01*
X152212Y462429D01*
X151963Y461175D01*
X151879Y459900D01*
X151963Y458625D01*
X152212Y457371D01*
X152623Y456161D01*
X153188Y455014D01*
X153898Y453952D01*
X154741Y452991D01*
X155702Y452148D01*
X156764Y451438D01*
X157911Y450873D01*
X159121Y450462D01*
X160375Y450213D01*
X161650Y450129D01*
X162925Y450213D01*
X164179Y450462D01*
X165389Y450873D01*
X166535Y451438D01*
X167598Y452148D01*
X168559Y452991D01*
X169402Y453952D01*
X170112Y455014D01*
X170168Y455129D01*
X173900D01*
X174733Y455211D01*
X175532Y453861D01*
X165936Y444265D01*
X153650D01*
X153193Y444205D01*
X152767Y444029D01*
X152402Y443748D01*
X152121Y443382D01*
X151945Y442957D01*
X151885Y442500D01*
Y426500D01*
X151945Y426043D01*
X152121Y425617D01*
X152402Y425252D01*
X152767Y424971D01*
X153193Y424795D01*
X153650Y424735D01*
X169650D01*
X170107Y424795D01*
X170532Y424971D01*
X170898Y425252D01*
X171179Y425617D01*
X171355Y426043D01*
X171415Y426500D01*
Y439086D01*
X185561Y453232D01*
X203000D01*
X203735Y453304D01*
X204291Y453473D01*
X204816Y453223D01*
X205727Y452500D01*
X205727Y452500D01*
Y447074D01*
X205617Y447029D01*
X205252Y446748D01*
X204971Y446383D01*
X204795Y445957D01*
X204735Y445500D01*
Y436500D01*
X204795Y436043D01*
X204971Y435617D01*
X205252Y435252D01*
X205617Y434971D01*
X206043Y434795D01*
X206500Y434735D01*
X214500D01*
X214957Y434795D01*
X215383Y434971D01*
X215748Y435252D01*
X216029Y435617D01*
X216205Y436043D01*
X216229Y436227D01*
X224500D01*
X224580Y436235D01*
X229500D01*
X229957Y436295D01*
X230383Y436471D01*
X230748Y436752D01*
X231029Y437118D01*
X231205Y437543D01*
X231265Y438000D01*
Y444000D01*
X231205Y444457D01*
X231029Y444883D01*
X231283Y445717D01*
X231684Y446239D01*
X231936Y446847D01*
X232022Y447500D01*
Y448000D01*
X224500D01*
Y453000D01*
X232022D01*
Y453500D01*
X231936Y454153D01*
X231684Y454761D01*
X231283Y455283D01*
X231029Y456118D01*
X231205Y456543D01*
X231265Y457000D01*
Y463000D01*
X231205Y463457D01*
X231029Y463883D01*
X230748Y464248D01*
X230383Y464529D01*
X229957Y464705D01*
X229500Y464765D01*
X229273D01*
Y469271D01*
X229457Y469295D01*
X229883Y469471D01*
X230248Y469752D01*
X230529Y470117D01*
X230705Y470543D01*
X230765Y471000D01*
Y480000D01*
X230705Y480457D01*
X230529Y480883D01*
X230248Y481248D01*
X229883Y481529D01*
X229457Y481705D01*
X229000Y481765D01*
X221247D01*
X221181Y482431D01*
X220910Y483326D01*
X220469Y484152D01*
X219875Y484875D01*
X219152Y485469D01*
X218326Y485910D01*
X217431Y486181D01*
X216500Y486273D01*
X215569Y486181D01*
X214673Y485910D01*
X213848Y485469D01*
X213125Y484875D01*
X212531Y484152D01*
X212476Y484049D01*
X212383Y484029D01*
X211957Y484205D01*
X211500Y484265D01*
X201500D01*
X201043Y484205D01*
X200694Y484060D01*
X200617Y484029D01*
X200617Y484029D01*
X200145Y483748D01*
X199355D01*
X198883Y484029D01*
X198883Y484029D01*
X198806Y484060D01*
X198457Y484205D01*
X198000Y484265D01*
X196768D01*
Y486939D01*
X198617Y488788D01*
X198931Y488819D01*
X199827Y489090D01*
X200652Y489531D01*
X201375Y490125D01*
X201969Y490848D01*
X202410Y491674D01*
X202681Y492569D01*
X202773Y493500D01*
X202681Y494431D01*
X202410Y495326D01*
X201969Y496152D01*
X201375Y496875D01*
X200652Y497469D01*
X199827Y497910D01*
X198931Y498181D01*
X198000Y498273D01*
D02*
G37*
G36*
X159150Y495508D02*
X158927Y495464D01*
X157623Y495022D01*
X156389Y494413D01*
X155244Y493648D01*
X154209Y492741D01*
X153302Y491706D01*
X152537Y490561D01*
X151928Y489327D01*
X151486Y488023D01*
X151442Y487800D01*
X159150D01*
Y495508D01*
D02*
G37*
G36*
X258522Y488000D02*
X254000D01*
Y483979D01*
X256000D01*
X256653Y484064D01*
X257261Y484316D01*
X257783Y484717D01*
X258184Y485239D01*
X258436Y485847D01*
X258522Y486500D01*
Y488000D01*
D02*
G37*
G36*
X417272Y483000D02*
X412250D01*
Y479478D01*
X414750D01*
X415403Y479564D01*
X416011Y479816D01*
X416533Y480217D01*
X416934Y480739D01*
X417186Y481347D01*
X417272Y482000D01*
Y483000D01*
D02*
G37*
G36*
X249000Y488000D02*
X244478D01*
Y486500D01*
X244564Y485847D01*
X244816Y485239D01*
X245217Y484717D01*
X245739Y484316D01*
X246347Y484064D01*
X247000Y483979D01*
X249000D01*
Y488000D01*
D02*
G37*
G36*
Y497022D02*
X247000D01*
X246347Y496936D01*
X245739Y496684D01*
X245217Y496283D01*
X244816Y495761D01*
X244564Y495153D01*
X244478Y494500D01*
Y493000D01*
X249000D01*
Y497022D01*
D02*
G37*
G36*
X182800Y509800D02*
X175092D01*
X175136Y509577D01*
X175578Y508273D01*
X176187Y507039D01*
X176952Y505894D01*
X177859Y504859D01*
X178894Y503952D01*
X180039Y503187D01*
X181273Y502579D01*
X182577Y502136D01*
X182800Y502092D01*
Y509800D01*
D02*
G37*
G36*
X407250Y491521D02*
X404750D01*
X404097Y491436D01*
X403489Y491184D01*
X402750Y490874D01*
X402011Y491184D01*
X401403Y491436D01*
X400750Y491521D01*
X398250D01*
Y485500D01*
Y479478D01*
X400750D01*
X401403Y479564D01*
X402011Y479816D01*
X402750Y480126D01*
X403489Y479816D01*
X404097Y479564D01*
X404750Y479478D01*
X407250D01*
Y485500D01*
Y491521D01*
D02*
G37*
G36*
X414750D02*
X412250D01*
Y488000D01*
X417272D01*
Y489000D01*
X417186Y489653D01*
X416934Y490261D01*
X416533Y490783D01*
X416011Y491184D01*
X415403Y491436D01*
X414750Y491521D01*
D02*
G37*
G36*
X381250Y493521D02*
X379750D01*
X379097Y493436D01*
X378489Y493184D01*
X377967Y492783D01*
X377566Y492261D01*
X377314Y491653D01*
X377228Y491000D01*
Y489000D01*
X381250D01*
Y493521D01*
D02*
G37*
G36*
X18500Y480208D02*
Y472500D01*
X26208D01*
X26164Y472723D01*
X25721Y474027D01*
X25113Y475261D01*
X24348Y476406D01*
X23440Y477440D01*
X22406Y478348D01*
X21261Y479113D01*
X20027Y479721D01*
X18723Y480164D01*
X18500Y480208D01*
D02*
G37*
G36*
X164150Y495508D02*
Y485300D01*
Y475092D01*
X164373Y475136D01*
X165677Y475578D01*
X166911Y476187D01*
X168056Y476952D01*
X169090Y477859D01*
X169998Y478894D01*
X170763Y480039D01*
X170954Y480428D01*
X172478Y480072D01*
Y476000D01*
X172564Y475347D01*
X172816Y474739D01*
X173217Y474217D01*
X173739Y473816D01*
X174347Y473564D01*
X175000Y473479D01*
X177000D01*
Y480000D01*
Y486522D01*
X175000D01*
X174347Y486436D01*
X173739Y486184D01*
X173647Y486113D01*
X172271Y486575D01*
X172068Y486745D01*
X171814Y488023D01*
X171371Y489327D01*
X170763Y490561D01*
X169998Y491706D01*
X169090Y492741D01*
X168056Y493648D01*
X166911Y494413D01*
X165677Y495022D01*
X164373Y495464D01*
X164150Y495508D01*
D02*
G37*
G36*
X13500Y480208D02*
X13277Y480164D01*
X11973Y479721D01*
X10739Y479113D01*
X9594Y478348D01*
X8559Y477440D01*
X7652Y476406D01*
X6887Y475261D01*
X6278Y474027D01*
X5836Y472723D01*
X5792Y472500D01*
X13500D01*
Y480208D01*
D02*
G37*
G36*
X637721Y470800D02*
X630100D01*
Y467778D01*
X635200D01*
X635853Y467864D01*
X636461Y468116D01*
X636983Y468517D01*
X637384Y469039D01*
X637636Y469647D01*
X637721Y470300D01*
Y470800D01*
D02*
G37*
G36*
X237500Y473000D02*
X233479D01*
Y471000D01*
X233564Y470347D01*
X233816Y469739D01*
X234217Y469217D01*
X234739Y468816D01*
X235347Y468564D01*
X236000Y468478D01*
X237500D01*
Y473000D01*
D02*
G37*
G36*
X635200Y478821D02*
X630100D01*
Y475800D01*
X637721D01*
Y476300D01*
X637636Y476953D01*
X637384Y477561D01*
X636983Y478083D01*
X636461Y478484D01*
X635853Y478736D01*
X635200Y478821D01*
D02*
G37*
G36*
X237500Y482522D02*
X236000D01*
X235347Y482436D01*
X234739Y482184D01*
X234217Y481783D01*
X233816Y481261D01*
X233564Y480653D01*
X233479Y480000D01*
Y478000D01*
X237500D01*
Y482522D01*
D02*
G37*
G36*
X625100Y478821D02*
X620000D01*
X619347Y478736D01*
X618739Y478484D01*
X618217Y478083D01*
X617816Y477561D01*
X617564Y476953D01*
X617478Y476300D01*
Y475800D01*
X625100D01*
Y478821D01*
D02*
G37*
G36*
X159150Y482800D02*
X151442D01*
X151486Y482577D01*
X151928Y481273D01*
X152537Y480039D01*
X153302Y478894D01*
X154209Y477859D01*
X155244Y476952D01*
X156389Y476187D01*
X157623Y475578D01*
X158927Y475136D01*
X159150Y475092D01*
Y482800D01*
D02*
G37*
G36*
X136000Y495171D02*
X134725Y495087D01*
X133471Y494838D01*
X132261Y494427D01*
X131115Y493862D01*
X130052Y493152D01*
X129091Y492309D01*
X128248Y491348D01*
X127538Y490285D01*
X126973Y489139D01*
X126562Y487929D01*
X126313Y486675D01*
X126229Y485400D01*
X126313Y484125D01*
X126562Y482871D01*
X126973Y481661D01*
X127538Y480514D01*
X128248Y479452D01*
X129091Y478491D01*
X130052Y477648D01*
X131115Y476938D01*
X132261Y476373D01*
X133471Y475962D01*
X134725Y475713D01*
X136000Y475629D01*
X137275Y475713D01*
X138529Y475962D01*
X139739Y476373D01*
X140885Y476938D01*
X141948Y477648D01*
X142909Y478491D01*
X143752Y479452D01*
X144462Y480514D01*
X145027Y481661D01*
X145438Y482871D01*
X145687Y484125D01*
X145771Y485400D01*
X145687Y486675D01*
X145438Y487929D01*
X145027Y489139D01*
X144462Y490285D01*
X143752Y491348D01*
X142909Y492309D01*
X141948Y493152D01*
X140885Y493862D01*
X139739Y494427D01*
X138529Y494838D01*
X137275Y495087D01*
X136000Y495171D01*
D02*
G37*
G36*
X195508Y509800D02*
X187800D01*
Y502092D01*
X188023Y502136D01*
X189327Y502579D01*
X190561Y503187D01*
X191706Y503952D01*
X192741Y504859D01*
X193648Y505894D01*
X194413Y507039D01*
X195021Y508273D01*
X195464Y509577D01*
X195508Y509800D01*
D02*
G37*
G36*
X322505Y535200D02*
X314800D01*
Y527656D01*
X315172Y527730D01*
X316450Y528164D01*
X317661Y528761D01*
X318784Y529511D01*
X319799Y530401D01*
X320689Y531416D01*
X321439Y532539D01*
X322036Y533750D01*
X322470Y535028D01*
X322505Y535200D01*
D02*
G37*
G36*
X286900Y547471D02*
X285625Y547387D01*
X284371Y547138D01*
X283161Y546727D01*
X282015Y546162D01*
X280952Y545452D01*
X279991Y544609D01*
X279148Y543648D01*
X278438Y542585D01*
X277873Y541439D01*
X277462Y540229D01*
X277213Y538975D01*
X277129Y537700D01*
X277213Y536425D01*
X277462Y535171D01*
X277873Y533961D01*
X278438Y532814D01*
X279148Y531752D01*
X279991Y530791D01*
X280952Y529948D01*
X282015Y529238D01*
X283161Y528673D01*
X284371Y528262D01*
X285625Y528013D01*
X286900Y527929D01*
X288175Y528013D01*
X289429Y528262D01*
X290639Y528673D01*
X291786Y529238D01*
X292848Y529948D01*
X293809Y530791D01*
X294652Y531752D01*
X295362Y532814D01*
X295927Y533961D01*
X296338Y535171D01*
X296587Y536425D01*
X296671Y537700D01*
X296587Y538975D01*
X296338Y540229D01*
X295927Y541439D01*
X295362Y542585D01*
X294652Y543648D01*
X293809Y544609D01*
X292848Y545452D01*
X291786Y546162D01*
X290639Y546727D01*
X289429Y547138D01*
X288175Y547387D01*
X286900Y547471D01*
D02*
G37*
G36*
X309800Y535200D02*
X302096D01*
X302130Y535028D01*
X302564Y533750D01*
X303161Y532539D01*
X303911Y531416D01*
X304801Y530401D01*
X305816Y529511D01*
X306939Y528761D01*
X308150Y528164D01*
X309429Y527730D01*
X309800Y527656D01*
Y535200D01*
D02*
G37*
G36*
X449508D02*
X441800D01*
Y527492D01*
X442023Y527536D01*
X443327Y527979D01*
X444561Y528587D01*
X445706Y529352D01*
X446741Y530259D01*
X447648Y531294D01*
X448413Y532439D01*
X449021Y533673D01*
X449464Y534977D01*
X449508Y535200D01*
D02*
G37*
G36*
X487600D02*
X479892D01*
X479936Y534977D01*
X480378Y533673D01*
X480987Y532439D01*
X481752Y531294D01*
X482659Y530259D01*
X483694Y529352D01*
X484839Y528587D01*
X486073Y527979D01*
X487377Y527536D01*
X487600Y527492D01*
Y535200D01*
D02*
G37*
G36*
X314800Y547744D02*
Y540200D01*
X322505D01*
X322470Y540372D01*
X322036Y541650D01*
X321439Y542861D01*
X320689Y543984D01*
X319799Y544999D01*
X318784Y545889D01*
X317661Y546639D01*
X316450Y547236D01*
X315172Y547670D01*
X314800Y547744D01*
D02*
G37*
G36*
X262320Y554900D02*
X262320Y554900D01*
X225000D01*
X225000Y554900D01*
X224249Y554801D01*
X223550Y554511D01*
X222950Y554050D01*
X222949Y554050D01*
X215151Y546252D01*
X214562Y546542D01*
X213377Y546944D01*
X212149Y547189D01*
X210900Y547271D01*
X210500D01*
X209251Y547189D01*
X208023Y546944D01*
X206838Y546542D01*
X205715Y545988D01*
X204674Y545293D01*
X203733Y544467D01*
X202907Y543526D01*
X202212Y542485D01*
X201658Y541362D01*
X201256Y540177D01*
X201011Y538949D01*
X200930Y537700D01*
X201011Y536451D01*
X201256Y535223D01*
X201658Y534038D01*
X202212Y532915D01*
X202907Y531874D01*
X203346Y531374D01*
X202779Y529936D01*
X202697Y529850D01*
X193411D01*
X192720Y531374D01*
X193052Y531752D01*
X193762Y532814D01*
X194327Y533961D01*
X194738Y535171D01*
X194987Y536425D01*
X195071Y537700D01*
X194987Y538975D01*
X194738Y540229D01*
X194327Y541439D01*
X193762Y542585D01*
X193052Y543648D01*
X192209Y544609D01*
X191248Y545452D01*
X190186Y546162D01*
X189039Y546727D01*
X187829Y547138D01*
X186575Y547387D01*
X185300Y547471D01*
X184025Y547387D01*
X182771Y547138D01*
X181561Y546727D01*
X180415Y546162D01*
X179352Y545452D01*
X178391Y544609D01*
X177548Y543648D01*
X176838Y542585D01*
X176273Y541439D01*
X175862Y540229D01*
X175613Y538975D01*
X175529Y537700D01*
X175613Y536425D01*
X175862Y535171D01*
X176273Y533961D01*
X176838Y532814D01*
X177548Y531752D01*
X177880Y531374D01*
X177189Y529850D01*
X167903D01*
X167821Y529936D01*
X167254Y531374D01*
X167693Y531874D01*
X168388Y532915D01*
X168942Y534038D01*
X169344Y535223D01*
X169589Y536451D01*
X169671Y537700D01*
X169589Y538949D01*
X169344Y540177D01*
X168942Y541362D01*
X168388Y542485D01*
X167693Y543526D01*
X166867Y544467D01*
X165926Y545293D01*
X164885Y545988D01*
X163762Y546542D01*
X162577Y546944D01*
X161349Y547189D01*
X160100Y547271D01*
X159700D01*
X158451Y547189D01*
X157223Y546944D01*
X156038Y546542D01*
X154915Y545988D01*
X153874Y545293D01*
X152933Y544467D01*
X152107Y543526D01*
X151412Y542485D01*
X150858Y541362D01*
X150456Y540177D01*
X150211Y538949D01*
X150129Y537700D01*
X150211Y536451D01*
X150456Y535223D01*
X150858Y534038D01*
X151412Y532915D01*
X152107Y531874D01*
X152546Y531374D01*
X151979Y529936D01*
X151897Y529850D01*
X143608D01*
X142964Y531074D01*
X142901Y531374D01*
X143613Y532439D01*
X144221Y533673D01*
X144664Y534977D01*
X144708Y535200D01*
X124292D01*
X124336Y534977D01*
X124778Y533673D01*
X125387Y532439D01*
X126099Y531374D01*
X126036Y531074D01*
X125392Y529850D01*
X123750D01*
X122999Y529751D01*
X122300Y529461D01*
X121699Y529001D01*
X121699Y529000D01*
X113634Y520935D01*
X112839Y521327D01*
X111629Y521738D01*
X110375Y521987D01*
X109100Y522071D01*
X107825Y521987D01*
X106571Y521738D01*
X105361Y521327D01*
X104214Y520762D01*
X103152Y520052D01*
X102797Y519741D01*
X101273Y520431D01*
Y523123D01*
X106575Y528425D01*
X107651Y528211D01*
X108900Y528130D01*
X109300D01*
X110549Y528211D01*
X111777Y528456D01*
X112963Y528858D01*
X114085Y529412D01*
X115126Y530107D01*
X116067Y530933D01*
X116893Y531874D01*
X117588Y532915D01*
X118142Y534038D01*
X118544Y535223D01*
X118789Y536451D01*
X118870Y537700D01*
X118789Y538949D01*
X118544Y540177D01*
X118142Y541362D01*
X117588Y542485D01*
X116893Y543526D01*
X116067Y544467D01*
X115126Y545293D01*
X114085Y545988D01*
X112963Y546542D01*
X111777Y546944D01*
X110549Y547189D01*
X109300Y547271D01*
X108900D01*
X107651Y547189D01*
X106423Y546944D01*
X105238Y546542D01*
X104115Y545988D01*
X103074Y545293D01*
X102133Y544467D01*
X101307Y543526D01*
X100612Y542485D01*
X100058Y541362D01*
X99656Y540177D01*
X99411Y538949D01*
X99330Y537700D01*
X99411Y536451D01*
X99656Y535223D01*
X99711Y535061D01*
X96400Y531750D01*
X93098Y535052D01*
X93138Y535171D01*
X93387Y536425D01*
X93471Y537700D01*
X93387Y538975D01*
X93138Y540229D01*
X92727Y541439D01*
X92162Y542585D01*
X91452Y543648D01*
X90609Y544609D01*
X89648Y545452D01*
X88586Y546162D01*
X87439Y546727D01*
X86229Y547138D01*
X84975Y547387D01*
X83700Y547471D01*
X82425Y547387D01*
X81171Y547138D01*
X79961Y546727D01*
X78815Y546162D01*
X77752Y545452D01*
X76791Y544609D01*
X75948Y543648D01*
X75238Y542585D01*
X74673Y541439D01*
X74262Y540229D01*
X74013Y538975D01*
X73929Y537700D01*
X74013Y536425D01*
X74262Y535171D01*
X74673Y533961D01*
X75238Y532814D01*
X75948Y531752D01*
X76791Y530791D01*
X77752Y529948D01*
X78815Y529238D01*
X79961Y528673D01*
X81171Y528262D01*
X82425Y528013D01*
X83700Y527929D01*
X84975Y528013D01*
X86229Y528262D01*
X86348Y528302D01*
X91061Y523589D01*
X90430Y522065D01*
X75700D01*
X75243Y522005D01*
X74818Y521829D01*
X74452Y521548D01*
X74171Y521183D01*
X73995Y520757D01*
X73935Y520300D01*
Y504300D01*
X73995Y503843D01*
X74171Y503418D01*
X74452Y503052D01*
X74818Y502771D01*
X75243Y502595D01*
X75700Y502535D01*
X91700D01*
X91727Y502511D01*
Y497716D01*
X91361Y497118D01*
X91014Y496282D01*
X90803Y495402D01*
X90732Y494500D01*
Y448389D01*
X79500Y437157D01*
X67978Y448678D01*
X67290Y449266D01*
X66518Y449739D01*
X65682Y450085D01*
X64802Y450297D01*
X63900Y450368D01*
X25765D01*
Y452600D01*
X25705Y453057D01*
X25529Y453483D01*
X25248Y453848D01*
X24883Y454129D01*
X24457Y454305D01*
X24000Y454365D01*
X8000D01*
X7543Y454305D01*
X7117Y454129D01*
X6752Y453848D01*
X6471Y453483D01*
X6295Y453057D01*
X6235Y452600D01*
Y436600D01*
X6295Y436143D01*
X6471Y435717D01*
X6752Y435352D01*
X7117Y435071D01*
X7543Y434895D01*
X8000Y434835D01*
X24000D01*
X24457Y434895D01*
X24883Y435071D01*
X25248Y435352D01*
X25529Y435717D01*
X25705Y436143D01*
X25765Y436600D01*
Y438832D01*
X61511D01*
X73732Y426611D01*
Y420326D01*
X73617Y420279D01*
X73252Y419998D01*
X72971Y419633D01*
X72795Y419207D01*
X72735Y418750D01*
Y405250D01*
X72795Y404793D01*
X72971Y404367D01*
X73252Y404002D01*
X73617Y403721D01*
X73732Y403674D01*
Y399326D01*
X73617Y399279D01*
X73252Y398998D01*
X72971Y398633D01*
X72795Y398207D01*
X72735Y397750D01*
Y396266D01*
X67681D01*
X59265Y404683D01*
Y410500D01*
X59205Y410957D01*
X59029Y411383D01*
X58748Y411748D01*
X58383Y412029D01*
X57957Y412205D01*
X57500Y412265D01*
X23500D01*
X23043Y412205D01*
X22617Y412029D01*
X22252Y411748D01*
X21971Y411383D01*
X21795Y410957D01*
X21735Y410500D01*
Y400500D01*
X21795Y400043D01*
X21971Y399617D01*
X22252Y399252D01*
X22617Y398971D01*
X23043Y398795D01*
X23500Y398735D01*
X45985D01*
X46000Y398734D01*
X50319D01*
X61776Y387276D01*
X62405Y386740D01*
X63109Y386308D01*
X63873Y385992D01*
X64676Y385799D01*
X65500Y385734D01*
X72735D01*
Y384250D01*
X72795Y383793D01*
X72971Y383367D01*
X73252Y383002D01*
X73617Y382721D01*
X73930Y382592D01*
X74139Y382422D01*
X74778Y381433D01*
X74903Y380961D01*
X74819Y380681D01*
X74727Y379750D01*
X74819Y378819D01*
X75090Y377924D01*
X75531Y377098D01*
X76125Y376375D01*
X76848Y375781D01*
X77673Y375340D01*
X78569Y375069D01*
X79500Y374977D01*
X80431Y375069D01*
X81326Y375340D01*
X82152Y375781D01*
X82875Y376375D01*
X83469Y377098D01*
X83910Y377924D01*
X84181Y378819D01*
X84273Y379750D01*
X84181Y380681D01*
X84096Y380961D01*
X84222Y381434D01*
X84860Y382422D01*
X85070Y382592D01*
X85383Y382721D01*
X85748Y383002D01*
X86029Y383367D01*
X86205Y383793D01*
X86265Y384250D01*
Y397750D01*
X86205Y398207D01*
X86029Y398633D01*
X85748Y398998D01*
X85383Y399279D01*
X85268Y399326D01*
Y403674D01*
X85383Y403721D01*
X85748Y404002D01*
X86029Y404367D01*
X86205Y404793D01*
X86265Y405250D01*
Y418750D01*
X86205Y419207D01*
X86184Y419257D01*
X86251Y419730D01*
X86509Y420315D01*
X86944Y420933D01*
X87282Y421015D01*
X88118Y421361D01*
X88890Y421834D01*
X89578Y422422D01*
X90166Y423110D01*
X90639Y423881D01*
X90985Y424718D01*
X91197Y425598D01*
X91268Y426500D01*
X91197Y427402D01*
X90985Y428282D01*
X90639Y429118D01*
X90166Y429890D01*
X89578Y430578D01*
X89565Y430909D01*
X100578Y441922D01*
X101166Y442610D01*
X101639Y443382D01*
X101986Y444218D01*
X102197Y445098D01*
X102268Y446000D01*
Y494500D01*
X102197Y495402D01*
X101986Y496282D01*
X101639Y497118D01*
X101273Y497716D01*
Y504169D01*
X102797Y504859D01*
X103152Y504548D01*
X104214Y503838D01*
X105361Y503273D01*
X106571Y502862D01*
X107825Y502613D01*
X109100Y502529D01*
X110375Y502613D01*
X111629Y502862D01*
X112839Y503273D01*
X113986Y503838D01*
X115048Y504548D01*
X116009Y505391D01*
X116852Y506352D01*
X117562Y507415D01*
X118127Y508561D01*
X118538Y509771D01*
X118787Y511025D01*
X118871Y512300D01*
X118787Y513575D01*
X118538Y514829D01*
X118127Y516039D01*
X117735Y516834D01*
X124951Y524050D01*
X140158D01*
X140741Y522642D01*
X139034Y520935D01*
X138239Y521327D01*
X137029Y521738D01*
X135775Y521987D01*
X134500Y522071D01*
X133225Y521987D01*
X131971Y521738D01*
X130761Y521327D01*
X129614Y520762D01*
X128552Y520052D01*
X127591Y519209D01*
X126748Y518248D01*
X126038Y517186D01*
X125473Y516039D01*
X125062Y514829D01*
X124813Y513575D01*
X124729Y512300D01*
X124813Y511025D01*
X125062Y509771D01*
X125473Y508561D01*
X126038Y507415D01*
X126748Y506352D01*
X127591Y505391D01*
X128552Y504548D01*
X129614Y503838D01*
X130761Y503273D01*
X131971Y502862D01*
X133225Y502613D01*
X134500Y502529D01*
X135775Y502613D01*
X137029Y502862D01*
X138239Y503273D01*
X139385Y503838D01*
X140448Y504548D01*
X141409Y505391D01*
X142252Y506352D01*
X142962Y507415D01*
X143527Y508561D01*
X143938Y509771D01*
X144187Y511025D01*
X144271Y512300D01*
X144187Y513575D01*
X143938Y514829D01*
X143527Y516039D01*
X143135Y516834D01*
X146471Y520170D01*
X151807D01*
X152497Y518646D01*
X152148Y518248D01*
X151438Y517186D01*
X150873Y516039D01*
X150462Y514829D01*
X150213Y513575D01*
X150129Y512300D01*
X150213Y511025D01*
X150462Y509771D01*
X150873Y508561D01*
X151438Y507415D01*
X152148Y506352D01*
X152991Y505391D01*
X153952Y504548D01*
X155014Y503838D01*
X156161Y503273D01*
X157371Y502862D01*
X158625Y502613D01*
X159900Y502529D01*
X161175Y502613D01*
X162429Y502862D01*
X163639Y503273D01*
X164785Y503838D01*
X165848Y504548D01*
X166809Y505391D01*
X167652Y506352D01*
X168362Y507415D01*
X168927Y508561D01*
X169338Y509771D01*
X169587Y511025D01*
X169671Y512300D01*
X169587Y513575D01*
X169338Y514829D01*
X168927Y516039D01*
X168362Y517186D01*
X167652Y518248D01*
X167303Y518646D01*
X167993Y520170D01*
X176209D01*
X176867Y518873D01*
X176912Y518646D01*
X176187Y517561D01*
X175578Y516327D01*
X175136Y515023D01*
X175092Y514800D01*
X195508D01*
X195464Y515023D01*
X195021Y516327D01*
X194413Y517561D01*
X193688Y518646D01*
X193733Y518873D01*
X194391Y520170D01*
X202607D01*
X203297Y518646D01*
X202948Y518248D01*
X202238Y517186D01*
X201673Y516039D01*
X201262Y514829D01*
X201013Y513575D01*
X200929Y512300D01*
X201013Y511025D01*
X201262Y509771D01*
X201673Y508561D01*
X202238Y507415D01*
X202948Y506352D01*
X203791Y505391D01*
X204752Y504548D01*
X205814Y503838D01*
X206961Y503273D01*
X208171Y502862D01*
X209425Y502613D01*
X210700Y502529D01*
X211975Y502613D01*
X213229Y502862D01*
X214439Y503273D01*
X215585Y503838D01*
X216648Y504548D01*
X217609Y505391D01*
X218452Y506352D01*
X219162Y507415D01*
X219727Y508561D01*
X220138Y509771D01*
X220387Y511025D01*
X220471Y512300D01*
X220387Y513575D01*
X220138Y514829D01*
X219727Y516039D01*
X219162Y517186D01*
X218452Y518248D01*
X218103Y518646D01*
X218793Y520170D01*
X228007D01*
X228697Y518646D01*
X228348Y518248D01*
X227638Y517186D01*
X227073Y516039D01*
X226662Y514829D01*
X226413Y513575D01*
X226329Y512300D01*
X226413Y511025D01*
X226662Y509771D01*
X227073Y508561D01*
X227638Y507415D01*
X228348Y506352D01*
X229191Y505391D01*
X230152Y504548D01*
X231215Y503838D01*
X232361Y503273D01*
X233571Y502862D01*
X234825Y502613D01*
X236100Y502529D01*
X237375Y502613D01*
X238629Y502862D01*
X239839Y503273D01*
X240986Y503838D01*
X242048Y504548D01*
X243009Y505391D01*
X243852Y506352D01*
X244562Y507415D01*
X244856Y508010D01*
X244965Y508051D01*
X246489Y508050D01*
X246950Y507449D01*
X255450Y498950D01*
X255450Y498950D01*
X256046Y498492D01*
X256047Y498479D01*
X255610Y497022D01*
X254000D01*
Y493000D01*
X258522D01*
Y494500D01*
X258436Y495153D01*
X258184Y495761D01*
X257783Y496283D01*
X257362Y496606D01*
X257359Y496768D01*
X258214Y498100D01*
X266299D01*
X268610Y495789D01*
X267979Y494265D01*
X266500D01*
X266043Y494205D01*
X265618Y494029D01*
X265252Y493748D01*
X264971Y493383D01*
X264795Y492957D01*
X264735Y492500D01*
Y485500D01*
X264795Y485043D01*
X264971Y484617D01*
X265252Y484252D01*
X265618Y483971D01*
X266043Y483795D01*
X266500Y483735D01*
X273973D01*
X274923Y482567D01*
X274368Y481265D01*
X266500D01*
X266043Y481205D01*
X265618Y481029D01*
X265252Y480748D01*
X265215Y480700D01*
X264890Y480666D01*
X264118Y481139D01*
X263282Y481485D01*
X262402Y481697D01*
X261500Y481768D01*
X260598Y481697D01*
X259718Y481485D01*
X258881Y481139D01*
X258808Y481094D01*
X258049Y480672D01*
X257248Y480748D01*
X256883Y481029D01*
X256457Y481205D01*
X256000Y481265D01*
X247000D01*
X246543Y481205D01*
X246256Y481086D01*
X246184Y481261D01*
X245783Y481783D01*
X245261Y482184D01*
X244653Y482436D01*
X244000Y482522D01*
X242500D01*
Y475500D01*
Y468478D01*
X244000D01*
X244653Y468564D01*
X245261Y468816D01*
X245705Y469157D01*
X246058Y469099D01*
X247229Y468599D01*
Y464765D01*
X245500D01*
X245043Y464705D01*
X244617Y464529D01*
X244252Y464248D01*
X243971Y463883D01*
X243795Y463457D01*
X243735Y463000D01*
Y457000D01*
X243795Y456543D01*
X243971Y456118D01*
X244252Y455752D01*
X244617Y455471D01*
X245043Y455295D01*
X245500Y455235D01*
X255500D01*
X256419Y454047D01*
X256479Y453887D01*
Y452000D01*
X256564Y451347D01*
X256816Y450739D01*
X257217Y450217D01*
X257739Y449816D01*
X258347Y449564D01*
X259000Y449478D01*
X261000D01*
Y456000D01*
X266000D01*
Y449478D01*
X268000D01*
X268653Y449564D01*
X268705Y449586D01*
X270006Y448910D01*
X270182Y448696D01*
X270060Y447342D01*
X268740Y446587D01*
X268457Y446705D01*
X268000Y446765D01*
X259000D01*
X258543Y446705D01*
X258117Y446529D01*
X257752Y446248D01*
X257343Y445841D01*
X256573Y445591D01*
X255957Y445705D01*
X255500Y445765D01*
X245500D01*
X245043Y445705D01*
X244617Y445529D01*
X244252Y445248D01*
X243971Y444883D01*
X243795Y444457D01*
X243735Y444000D01*
Y438000D01*
X243795Y437543D01*
X243971Y437118D01*
X244252Y436752D01*
X244617Y436471D01*
X245043Y436295D01*
X245500Y436235D01*
X255500D01*
X255957Y436295D01*
X256573Y436409D01*
X257343Y436159D01*
X257752Y435752D01*
X258117Y435471D01*
X258543Y435295D01*
X259000Y435235D01*
X268000D01*
X268457Y435295D01*
X268883Y435471D01*
X269248Y435752D01*
X269529Y436117D01*
X269705Y436543D01*
X269765Y437000D01*
Y444374D01*
X271107Y444870D01*
X272229Y443915D01*
Y440500D01*
X272311Y439667D01*
X272554Y438866D01*
X272949Y438127D01*
X273480Y437480D01*
X283480Y427480D01*
X284127Y426949D01*
X284866Y426554D01*
X284895Y426546D01*
X284669Y425022D01*
X281750D01*
X281097Y424936D01*
X280489Y424684D01*
X279967Y424283D01*
X279566Y423761D01*
X279314Y423153D01*
X279228Y422500D01*
Y421000D01*
X286250D01*
Y418500D01*
X288750D01*
Y411978D01*
X290750D01*
X291403Y412064D01*
X292011Y412316D01*
X292533Y412717D01*
X292967D01*
X293489Y412316D01*
X294097Y412064D01*
X294750Y411978D01*
X296750D01*
Y418500D01*
X299250D01*
Y421000D01*
X306271D01*
Y422326D01*
X306451Y422697D01*
X307394Y423652D01*
X307594Y423735D01*
X311969D01*
X312000Y423732D01*
X312031Y423735D01*
X316000D01*
X316457Y423795D01*
X316800Y423937D01*
X321368Y419368D01*
X321825Y418993D01*
X322346Y418715D01*
X322953Y418405D01*
X323151Y417750D01*
X333500D01*
X343741D01*
X343679Y418218D01*
X343402Y418887D01*
X342961Y419461D01*
X342789Y419593D01*
X342948Y419978D01*
X343017Y420500D01*
Y422500D01*
X342948Y423022D01*
X342789Y423407D01*
X342961Y423539D01*
X343402Y424113D01*
X343679Y424782D01*
X343741Y425250D01*
X333500D01*
Y427750D01*
X343741D01*
X343679Y428218D01*
X343402Y428887D01*
X342961Y429461D01*
X342789Y429593D01*
X342948Y429978D01*
X343017Y430500D01*
Y432500D01*
X342948Y433022D01*
X342747Y433509D01*
X342426Y433926D01*
X342009Y434247D01*
X341522Y434449D01*
X341000Y434517D01*
X331515D01*
Y443500D01*
X331457Y444088D01*
X331285Y444654D01*
X331007Y445175D01*
X330632Y445631D01*
X330135Y446128D01*
X330719Y447536D01*
X343983D01*
Y437500D01*
X344052Y436978D01*
X344253Y436491D01*
X344574Y436074D01*
X344991Y435753D01*
X345478Y435551D01*
X346000Y435483D01*
X348000D01*
X348522Y435551D01*
X349009Y435753D01*
X349426Y436074D01*
X349574D01*
X349991Y435753D01*
X350478Y435551D01*
X351000Y435483D01*
X353000D01*
X353522Y435551D01*
X354009Y435753D01*
X354426Y436074D01*
X354574D01*
X354991Y435753D01*
X355478Y435551D01*
X356000Y435483D01*
X358000D01*
X358522Y435551D01*
X359009Y435753D01*
X359426Y436074D01*
X359574D01*
X359991Y435753D01*
X360478Y435551D01*
X361000Y435483D01*
X363000D01*
X363522Y435551D01*
X364009Y435753D01*
X364426Y436074D01*
X364574D01*
X364991Y435753D01*
X365478Y435551D01*
X366000Y435483D01*
X368000D01*
X368522Y435551D01*
X369009Y435753D01*
X369426Y436074D01*
X369574D01*
X369991Y435753D01*
X370478Y435551D01*
X371000Y435483D01*
X373000D01*
X373522Y435551D01*
X374009Y435753D01*
X374426Y436074D01*
X374574D01*
X374991Y435753D01*
X375478Y435551D01*
X376000Y435483D01*
X378000D01*
X378522Y435551D01*
X378907Y435711D01*
X379039Y435539D01*
X379613Y435098D01*
X380282Y434821D01*
X380750Y434759D01*
Y445000D01*
X383250D01*
Y434759D01*
X383718Y434821D01*
X384387Y435098D01*
X384961Y435539D01*
X385093Y435711D01*
X385478Y435551D01*
X386000Y435483D01*
X388000D01*
X388522Y435551D01*
X389009Y435753D01*
X389426Y436074D01*
X389574D01*
X389991Y435753D01*
X390478Y435551D01*
X391000Y435483D01*
X393000D01*
X393522Y435551D01*
X394009Y435753D01*
X394426Y436074D01*
X394574D01*
X394991Y435753D01*
X395478Y435551D01*
X396000Y435483D01*
X398000D01*
X398522Y435551D01*
X399009Y435753D01*
X399426Y436074D01*
X399574D01*
X399991Y435753D01*
X400478Y435551D01*
X401000Y435483D01*
X403000D01*
X403522Y435551D01*
X404009Y435753D01*
X404426Y436074D01*
X404747Y436491D01*
X404949Y436978D01*
X405017Y437500D01*
Y440895D01*
X405500Y441332D01*
X406216Y441403D01*
X406904Y441612D01*
X407538Y441950D01*
X408093Y442407D01*
X424461Y458774D01*
X425985Y458143D01*
Y450500D01*
X426045Y450043D01*
X426221Y449617D01*
X426502Y449252D01*
X426850Y448901D01*
X426721Y448382D01*
X426545Y447957D01*
X426485Y447500D01*
Y439500D01*
X426514Y439277D01*
X421754Y434517D01*
X408000D01*
X407478Y434449D01*
X406991Y434247D01*
X406574Y433926D01*
X406253Y433509D01*
X406051Y433022D01*
X405983Y432500D01*
Y430500D01*
X406051Y429978D01*
X406253Y429491D01*
X406574Y428926D01*
X406253Y428509D01*
X406051Y428022D01*
X405983Y427500D01*
Y425500D01*
X406051Y424978D01*
X406253Y424491D01*
X406532Y424000D01*
X406253Y423509D01*
X406051Y423022D01*
X405983Y422500D01*
Y420500D01*
X406051Y419978D01*
X406253Y419491D01*
X406532Y419000D01*
X406253Y418509D01*
X406051Y418022D01*
X405983Y417500D01*
Y415500D01*
X406051Y414978D01*
X406253Y414491D01*
X406574Y414074D01*
X406253Y413509D01*
X406051Y413022D01*
X405983Y412500D01*
Y410500D01*
X406051Y409978D01*
X406253Y409491D01*
X406574Y409074D01*
Y408926D01*
X406253Y408509D01*
X406051Y408022D01*
X405983Y407500D01*
Y405500D01*
X405189Y404300D01*
X404807Y404000D01*
X403022D01*
Y424500D01*
X402936Y425153D01*
X402684Y425761D01*
X402283Y426283D01*
X401761Y426684D01*
X401153Y426936D01*
X400500Y427021D01*
X375750D01*
Y404000D01*
X374500D01*
X373250D01*
Y427021D01*
X348500D01*
X347847Y426936D01*
X347239Y426684D01*
X346717Y426283D01*
X346316Y425761D01*
X346064Y425153D01*
X345978Y424500D01*
Y405048D01*
X345973Y405044D01*
X344990Y404727D01*
X344870Y404806D01*
X344392Y405250D01*
X333500D01*
X322877D01*
X321850Y404515D01*
X305515D01*
Y407500D01*
X305455Y407957D01*
X305279Y408382D01*
X304998Y408748D01*
X304632Y409029D01*
X304207Y409205D01*
X303750Y409265D01*
X294750D01*
X294293Y409205D01*
X293867Y409029D01*
X293710Y408908D01*
X293274Y408748D01*
X292225D01*
X291789Y408908D01*
X291632Y409029D01*
X291207Y409205D01*
X290750Y409265D01*
X281750D01*
X281293Y409205D01*
X280867Y409029D01*
X280502Y408748D01*
X280221Y408382D01*
X280045Y407957D01*
X279985Y407500D01*
Y399500D01*
X280045Y399043D01*
X280221Y398617D01*
X280502Y398252D01*
X280867Y397971D01*
X281293Y397795D01*
X281750Y397735D01*
X287752D01*
X289564Y395923D01*
X288981Y394515D01*
X277265D01*
Y397250D01*
X277205Y397707D01*
X277029Y398133D01*
X276748Y398498D01*
X276383Y398779D01*
X275957Y398955D01*
X275500Y399015D01*
X266500D01*
X266043Y398955D01*
X265618Y398779D01*
X265252Y398498D01*
X264971Y398133D01*
X264795Y397707D01*
X264735Y397250D01*
Y389250D01*
X264705Y389216D01*
X225765D01*
Y416500D01*
X225705Y416957D01*
X225529Y417383D01*
X225248Y417748D01*
X224883Y418029D01*
X224457Y418205D01*
X224000Y418265D01*
X215034D01*
X215000Y418268D01*
X199500D01*
X199466Y418265D01*
X195500D01*
X195043Y418205D01*
X194617Y418029D01*
X194252Y417748D01*
X193971Y417383D01*
X193795Y416957D01*
X193735Y416500D01*
Y412533D01*
X193732Y412500D01*
X193735Y412466D01*
Y401867D01*
X193732Y401833D01*
X193735Y401800D01*
Y391200D01*
X193732Y391167D01*
X193735Y391133D01*
Y380534D01*
X193732Y380500D01*
X193735Y380466D01*
Y376500D01*
X193795Y376043D01*
X193971Y375617D01*
X194252Y375252D01*
X194617Y374971D01*
X195043Y374795D01*
X195500Y374735D01*
X199466D01*
X199500Y374732D01*
X199534Y374735D01*
X201466D01*
X201500Y374732D01*
X217000D01*
X217034Y374735D01*
X224000D01*
X224457Y374795D01*
X224883Y374971D01*
X225248Y375252D01*
X225529Y375617D01*
X225705Y376043D01*
X225765Y376500D01*
Y378784D01*
X292163D01*
X292567Y378166D01*
X292766Y377260D01*
X287776Y372270D01*
X266927D01*
X266910Y372327D01*
X266469Y373152D01*
X265875Y373875D01*
X265152Y374469D01*
X264326Y374910D01*
X263431Y375181D01*
X262500Y375273D01*
X261569Y375181D01*
X260673Y374910D01*
X259848Y374469D01*
X259125Y373875D01*
X258531Y373152D01*
X258090Y372327D01*
X258073Y372270D01*
X195500D01*
X194290Y372191D01*
X193101Y371954D01*
X191953Y371564D01*
X190865Y371028D01*
X189857Y370354D01*
X188945Y369555D01*
X176445Y357055D01*
X175646Y356143D01*
X174972Y355135D01*
X174436Y354047D01*
X174046Y352899D01*
X173810Y351710D01*
X173730Y350500D01*
Y290015D01*
X126250D01*
X125793Y289955D01*
X125367Y289779D01*
X125002Y289498D01*
X124721Y289132D01*
X124545Y288707D01*
X124485Y288250D01*
Y264250D01*
X124545Y263793D01*
X124721Y263367D01*
X125002Y263002D01*
X125367Y262721D01*
X125793Y262545D01*
X126250Y262485D01*
X216250D01*
X216707Y262545D01*
X217133Y262721D01*
X217498Y263002D01*
X217779Y263367D01*
X217955Y263793D01*
X218015Y264250D01*
Y288250D01*
X217955Y288707D01*
X217779Y289132D01*
X217498Y289498D01*
X217133Y289779D01*
X216707Y289955D01*
X216250Y290015D01*
X192270D01*
Y346660D01*
X199340Y353730D01*
X289500D01*
X290710Y353810D01*
X291899Y354046D01*
X293047Y354436D01*
X294135Y354972D01*
X295143Y355646D01*
X296055Y356445D01*
X296854Y357357D01*
X297528Y358365D01*
X298064Y359453D01*
X298454Y360601D01*
X298543Y361049D01*
X303954Y366460D01*
X304115Y366454D01*
X305478Y365891D01*
Y365000D01*
X305564Y364347D01*
X305816Y363739D01*
X306217Y363217D01*
X306739Y362816D01*
X307347Y362564D01*
X308000Y362478D01*
X310000D01*
Y369000D01*
X312500D01*
Y371500D01*
X319522D01*
Y373000D01*
X319727Y373234D01*
X339500D01*
X340137Y373297D01*
X340749Y373483D01*
X341000D01*
X341522Y373551D01*
X342009Y373753D01*
X342426Y374074D01*
X342747Y374491D01*
X342948Y374978D01*
X343017Y375500D01*
Y377500D01*
X343811Y378700D01*
X344193Y379000D01*
X404807D01*
X405189Y378700D01*
X405983Y377500D01*
Y375500D01*
X406051Y374978D01*
X406253Y374491D01*
X406574Y374074D01*
X406991Y373753D01*
X407478Y373551D01*
X408000Y373483D01*
X423000D01*
X423021Y373485D01*
X425803D01*
X426228Y373000D01*
Y371500D01*
X433250D01*
Y369000D01*
X435750D01*
Y362478D01*
X437750D01*
X438403Y362564D01*
X439011Y362816D01*
X439533Y363217D01*
X439934Y363739D01*
X440005Y363911D01*
X441030Y364316D01*
X441715Y364291D01*
X445457Y360549D01*
X445546Y360101D01*
X445936Y358953D01*
X446472Y357865D01*
X447146Y356857D01*
X447945Y355945D01*
X448857Y355146D01*
X449865Y354472D01*
X450953Y353936D01*
X452101Y353546D01*
X453290Y353310D01*
X454500Y353230D01*
X555160D01*
X567730Y340660D01*
Y290015D01*
X534750D01*
X534293Y289955D01*
X533867Y289779D01*
X533502Y289498D01*
X533221Y289132D01*
X533045Y288707D01*
X532985Y288250D01*
Y264250D01*
X533045Y263793D01*
X533221Y263367D01*
X533502Y263002D01*
X533867Y262721D01*
X534293Y262545D01*
X534750Y262485D01*
X624750D01*
X625207Y262545D01*
X625633Y262721D01*
X625998Y263002D01*
X626279Y263367D01*
X626455Y263793D01*
X626515Y264250D01*
Y288250D01*
X626455Y288707D01*
X626279Y289132D01*
X625998Y289498D01*
X625633Y289779D01*
X625207Y289955D01*
X624750Y290015D01*
X586270D01*
Y344500D01*
X586190Y345710D01*
X585954Y346899D01*
X585564Y348047D01*
X585028Y349135D01*
X584354Y350143D01*
X583555Y351055D01*
X565555Y369055D01*
X564643Y369854D01*
X563635Y370528D01*
X562547Y371064D01*
X561399Y371454D01*
X560210Y371690D01*
X559000Y371770D01*
X507927D01*
X507910Y371827D01*
X507469Y372652D01*
X506875Y373375D01*
X506152Y373969D01*
X505326Y374410D01*
X504431Y374681D01*
X503500Y374773D01*
X502569Y374681D01*
X501673Y374410D01*
X500848Y373969D01*
X500125Y373375D01*
X499531Y372652D01*
X499090Y371827D01*
X499073Y371770D01*
X456224D01*
X452497Y375497D01*
X451569Y376289D01*
X450529Y376927D01*
X449725Y377260D01*
X450028Y378784D01*
X530235D01*
Y375500D01*
X530295Y375043D01*
X530471Y374618D01*
X530752Y374252D01*
X531118Y373971D01*
X531543Y373795D01*
X532000Y373735D01*
X540966D01*
X541000Y373732D01*
X556500D01*
X556535Y373735D01*
X560821D01*
X561277Y373795D01*
X561703Y373971D01*
X562069Y374252D01*
X562349Y374618D01*
X562525Y375043D01*
X562586Y375500D01*
Y415500D01*
X562525Y415957D01*
X562349Y416383D01*
X562069Y416748D01*
X561703Y417029D01*
X561277Y417205D01*
X560821Y417265D01*
X556532D01*
X556500Y417268D01*
X541000D01*
X540966Y417265D01*
X532000D01*
X531543Y417205D01*
X531118Y417029D01*
X530752Y416748D01*
X530471Y416382D01*
X530295Y415957D01*
X530235Y415500D01*
Y389216D01*
X500545D01*
X500515Y389250D01*
Y397250D01*
X500455Y397707D01*
X500279Y398133D01*
X499998Y398498D01*
X499632Y398779D01*
X499207Y398955D01*
X498750Y399015D01*
X491480D01*
X490268Y400500D01*
X490232Y400961D01*
X490898Y401983D01*
X491504Y402485D01*
X498750D01*
X499207Y402545D01*
X499632Y402721D01*
X499998Y403002D01*
X500279Y403368D01*
X501302Y403898D01*
X502018Y403986D01*
X502569Y403819D01*
X503500Y403727D01*
X504431Y403819D01*
X505326Y404090D01*
X506152Y404531D01*
X506875Y405125D01*
X507469Y405848D01*
X507910Y406674D01*
X508181Y407569D01*
X508273Y408500D01*
X508181Y409431D01*
X507910Y410326D01*
X507469Y411152D01*
X506875Y411875D01*
X506152Y412469D01*
X505326Y412910D01*
X504431Y413181D01*
X503500Y413273D01*
X502569Y413181D01*
X501920Y412985D01*
X501593Y412923D01*
X500303Y413129D01*
X499998Y413498D01*
X499632Y413779D01*
X499207Y413955D01*
X498750Y414015D01*
X490920D01*
X490289Y415539D01*
X490875Y416125D01*
X490875Y416125D01*
X491469Y416848D01*
X491910Y417673D01*
X492181Y418569D01*
X492273Y419500D01*
X492273Y419500D01*
Y448050D01*
X492273Y448050D01*
X492181Y448981D01*
X491910Y449877D01*
X491469Y450702D01*
X490875Y451425D01*
X490875Y451425D01*
X489273Y453027D01*
Y463735D01*
X489500D01*
X489957Y463795D01*
X490383Y463971D01*
X490748Y464252D01*
X491029Y464617D01*
X491205Y465043D01*
X491265Y465500D01*
Y466148D01*
X491963Y466655D01*
X492789Y466983D01*
X493190Y466818D01*
X493875Y466727D01*
X499625D01*
X500310Y466818D01*
X500949Y467082D01*
X501497Y467503D01*
X501918Y468051D01*
X502182Y468690D01*
X502273Y469375D01*
Y474125D01*
X502182Y474810D01*
X501918Y475449D01*
X501497Y475997D01*
X500949Y476418D01*
X500310Y476682D01*
X499625Y476773D01*
X493875D01*
X493190Y476682D01*
X492789Y476516D01*
X491963Y476846D01*
X491265Y477352D01*
Y479000D01*
X491205Y479457D01*
X491029Y479883D01*
X490748Y480248D01*
X490383Y480529D01*
X489957Y480705D01*
X489500Y480765D01*
X479500D01*
X479043Y480705D01*
X478617Y480529D01*
X478252Y480248D01*
X477971Y479883D01*
X477795Y479457D01*
X477735Y479000D01*
Y465500D01*
X477795Y465043D01*
X477971Y464617D01*
X478252Y464252D01*
X478617Y463971D01*
X479043Y463795D01*
X479088Y463789D01*
X478988Y462265D01*
X476000D01*
X475543Y462205D01*
X475117Y462029D01*
X474752Y461748D01*
X474471Y461382D01*
X474295Y460957D01*
X474235Y460500D01*
Y451500D01*
X474295Y451043D01*
X474471Y450617D01*
X474752Y450252D01*
X475117Y449971D01*
X475543Y449795D01*
X475588Y449789D01*
X475488Y448265D01*
X473000D01*
X472543Y448205D01*
X472117Y448029D01*
X471752Y447748D01*
X471471Y447383D01*
X471295Y446957D01*
X471235Y446500D01*
Y437500D01*
X471295Y437043D01*
X471471Y436617D01*
X471752Y436252D01*
X472117Y435971D01*
X472543Y435795D01*
X473000Y435735D01*
X473232D01*
Y433765D01*
X471500D01*
X471043Y433705D01*
X470617Y433529D01*
X470289Y433277D01*
X470112Y433301D01*
X468765Y433814D01*
Y434500D01*
X468705Y434957D01*
X468529Y435382D01*
X468248Y435748D01*
X467566Y436573D01*
X467705Y437043D01*
X467765Y437500D01*
Y446500D01*
X467705Y446957D01*
X467529Y447383D01*
X467248Y447748D01*
X466883Y448029D01*
X466457Y448205D01*
X466412Y448211D01*
X466512Y449735D01*
X469000D01*
X469457Y449795D01*
X469883Y449971D01*
X470248Y450252D01*
X470529Y450617D01*
X470705Y451043D01*
X470765Y451500D01*
Y460500D01*
X470705Y460957D01*
X470529Y461382D01*
X470248Y461748D01*
X469883Y462029D01*
X469457Y462205D01*
X469412Y462211D01*
X469500Y463735D01*
X469957Y463795D01*
X470382Y463971D01*
X470748Y464252D01*
X471029Y464617D01*
X471205Y465043D01*
X471265Y465500D01*
Y479000D01*
X471205Y479457D01*
X471029Y479883D01*
X470748Y480248D01*
X470382Y480529D01*
X469957Y480705D01*
X469500Y480765D01*
X459500D01*
X459043Y480705D01*
X458617Y480529D01*
X458252Y480248D01*
X457971Y479883D01*
X457795Y479457D01*
X457735Y479000D01*
Y476771D01*
X452854D01*
X452390Y477166D01*
X451618Y477639D01*
X450782Y477985D01*
X449902Y478197D01*
X449000Y478268D01*
X448098Y478197D01*
X447218Y477985D01*
X446381Y477639D01*
X445610Y477166D01*
X445146Y476771D01*
X440765D01*
Y477500D01*
X440705Y477957D01*
X440529Y478383D01*
X440248Y478748D01*
X439883Y479029D01*
X439457Y479205D01*
X439000Y479265D01*
X432000D01*
X431543Y479205D01*
X431117Y479029D01*
X430752Y478748D01*
X430471Y478383D01*
X430295Y477957D01*
X430235Y477500D01*
Y467500D01*
X429000Y466738D01*
X427765Y467500D01*
Y477500D01*
X427705Y477957D01*
X427529Y478383D01*
X427248Y478748D01*
X426883Y479029D01*
X426457Y479205D01*
X426000Y479265D01*
X419000D01*
X418543Y479205D01*
X418117Y479029D01*
X417752Y478748D01*
X417471Y478383D01*
X417295Y477957D01*
X416848Y477713D01*
X416067Y477476D01*
X415711Y477468D01*
X415633Y477529D01*
X415207Y477705D01*
X414750Y477765D01*
X404750D01*
X404293Y477705D01*
X403867Y477529D01*
X403711Y477408D01*
X403274Y477248D01*
X402225D01*
X401790Y477408D01*
X401632Y477529D01*
X401207Y477705D01*
X400750Y477765D01*
X391898D01*
X391806Y477954D01*
X392757Y479478D01*
X393250D01*
Y485500D01*
Y491521D01*
X390750D01*
X390212Y491451D01*
X390186Y491653D01*
X389934Y492261D01*
X389533Y492783D01*
X389011Y493184D01*
X388403Y493436D01*
X387750Y493521D01*
X386250D01*
Y486500D01*
X383750D01*
Y484000D01*
X377228D01*
Y482000D01*
X377314Y481347D01*
X377566Y480739D01*
X377876Y480000D01*
X377566Y479261D01*
X377314Y478653D01*
X377228Y478000D01*
Y476000D01*
X383750D01*
Y471000D01*
X377228D01*
Y470690D01*
X375704Y470059D01*
X374515Y471248D01*
Y478000D01*
X374455Y478457D01*
X374279Y478883D01*
X374158Y479039D01*
X373998Y479476D01*
Y480524D01*
X374158Y480961D01*
X374279Y481117D01*
X374455Y481543D01*
X374515Y482000D01*
Y491000D01*
X374455Y491457D01*
X374279Y491883D01*
X373998Y492248D01*
X373633Y492529D01*
X373207Y492705D01*
X372750Y492765D01*
X364750D01*
X364293Y492705D01*
X363345Y492404D01*
X362998Y492748D01*
X362632Y493029D01*
X362207Y493205D01*
X362126Y493216D01*
X361777Y493491D01*
X361480Y493895D01*
X361096Y494789D01*
X361181Y495069D01*
X361273Y496000D01*
X361181Y496931D01*
X360910Y497826D01*
X360469Y498652D01*
X359875Y499375D01*
X359152Y499969D01*
X358326Y500410D01*
X357431Y500681D01*
X356500Y500773D01*
X355569Y500681D01*
X354674Y500410D01*
X354274Y500196D01*
X353356Y501434D01*
X354436Y502514D01*
X354877Y503088D01*
X355154Y503757D01*
X355215Y504220D01*
X355860Y504638D01*
X356773Y504881D01*
X357152Y504548D01*
X358214Y503838D01*
X359361Y503273D01*
X360571Y502862D01*
X361825Y502613D01*
X363100Y502529D01*
X364375Y502613D01*
X365629Y502862D01*
X366839Y503273D01*
X367985Y503838D01*
X369048Y504548D01*
X370009Y505391D01*
X370852Y506352D01*
X371562Y507415D01*
X372127Y508561D01*
X372538Y509771D01*
X372787Y511025D01*
X372871Y512300D01*
X372787Y513575D01*
X372538Y514829D01*
X372127Y516039D01*
X371562Y517186D01*
X370852Y518248D01*
X370009Y519209D01*
X369048Y520052D01*
X367985Y520762D01*
X366839Y521327D01*
X365629Y521738D01*
X364375Y521987D01*
X363100Y522071D01*
X361825Y521987D01*
X360571Y521738D01*
X359361Y521327D01*
X358214Y520762D01*
X357152Y520052D01*
X356773Y519719D01*
X355249Y520410D01*
Y529681D01*
X356773Y530371D01*
X357074Y530107D01*
X358115Y529412D01*
X359238Y528858D01*
X360423Y528456D01*
X361651Y528211D01*
X362900Y528130D01*
X363300D01*
X364549Y528211D01*
X365777Y528456D01*
X366963Y528858D01*
X368085Y529412D01*
X369126Y530107D01*
X370067Y530933D01*
X370893Y531874D01*
X371588Y532915D01*
X372142Y534038D01*
X372544Y535223D01*
X372789Y536451D01*
X372870Y537700D01*
X372789Y538949D01*
X372544Y540177D01*
X372142Y541362D01*
X371588Y542485D01*
X370893Y543526D01*
X370300Y544202D01*
X370550Y545162D01*
X370943Y545726D01*
X380572D01*
X380741Y545541D01*
X381234Y544202D01*
X380748Y543648D01*
X380038Y542585D01*
X379473Y541439D01*
X379062Y540229D01*
X378813Y538975D01*
X378729Y537700D01*
X378813Y536425D01*
X379062Y535171D01*
X379473Y533961D01*
X380038Y532814D01*
X380748Y531752D01*
X381591Y530791D01*
X382552Y529948D01*
X383165Y529538D01*
X382703Y528014D01*
X378171D01*
X377875Y528375D01*
X377152Y528969D01*
X376326Y529410D01*
X375431Y529681D01*
X374500Y529773D01*
X373569Y529681D01*
X372673Y529410D01*
X371848Y528969D01*
X371125Y528375D01*
X370531Y527652D01*
X370090Y526827D01*
X369819Y525931D01*
X369727Y525000D01*
X369819Y524069D01*
X370090Y523173D01*
X370531Y522348D01*
X371125Y521625D01*
X371848Y521031D01*
X372673Y520590D01*
X373569Y520319D01*
X374500Y520227D01*
X375431Y520319D01*
X376326Y520590D01*
X377152Y521031D01*
X377875Y521625D01*
X378171Y521986D01*
X381353D01*
X381765Y521242D01*
X381882Y520462D01*
X381059Y519740D01*
X380152Y518706D01*
X379387Y517561D01*
X378778Y516327D01*
X378336Y515023D01*
X378292Y514800D01*
X388500D01*
Y512300D01*
X391000D01*
Y502092D01*
X391223Y502136D01*
X392527Y502579D01*
X393761Y503187D01*
X394906Y503952D01*
X395941Y504859D01*
X396848Y505894D01*
X396930Y506017D01*
X397582Y506146D01*
X398756Y506006D01*
X398868Y505868D01*
X406368Y498368D01*
X406825Y497994D01*
X407346Y497715D01*
X407912Y497543D01*
X408500Y497486D01*
X418251D01*
X431868Y483868D01*
X432325Y483493D01*
X432846Y483215D01*
X433412Y483043D01*
X434000Y482985D01*
X533242D01*
X533432Y482854D01*
X533993Y482108D01*
X534263Y481461D01*
X534235Y481250D01*
Y471250D01*
X534295Y470793D01*
X534471Y470368D01*
X534752Y469786D01*
Y468964D01*
X534471Y468382D01*
X534295Y467957D01*
X534235Y467500D01*
Y457500D01*
X534295Y457043D01*
X534471Y456618D01*
X534752Y456252D01*
X535117Y455971D01*
X535543Y455795D01*
X536000Y455735D01*
X536485D01*
Y453265D01*
X536000D01*
X535543Y453205D01*
X535117Y453029D01*
X534752Y452748D01*
X534471Y452383D01*
X534295Y451957D01*
X534235Y451500D01*
Y441500D01*
X534295Y441043D01*
X534660Y440131D01*
X533835Y439035D01*
X533816Y439011D01*
X533564Y438403D01*
X533478Y437750D01*
Y435250D01*
X539500D01*
X545522D01*
Y437750D01*
X545436Y438403D01*
X545184Y439011D01*
X545165Y439035D01*
X544340Y440131D01*
X544705Y441043D01*
X544765Y441500D01*
Y448002D01*
X545827Y449064D01*
X547235Y448481D01*
Y441500D01*
X547295Y441043D01*
X547471Y440617D01*
X547752Y440036D01*
Y439214D01*
X547471Y438633D01*
X547295Y438207D01*
X547235Y437750D01*
Y427750D01*
X547295Y427293D01*
X547471Y426867D01*
X547752Y426502D01*
X548117Y426221D01*
X548543Y426045D01*
X549000Y425985D01*
X556000D01*
X556457Y426045D01*
X556883Y426221D01*
X557248Y426502D01*
X557529Y426867D01*
X557705Y427293D01*
X557765Y427750D01*
Y437750D01*
X557705Y438207D01*
X557529Y438633D01*
X557248Y439214D01*
Y440036D01*
X557529Y440617D01*
X557705Y441043D01*
X557765Y441500D01*
Y445186D01*
X563035D01*
Y444900D01*
X563095Y444443D01*
X563271Y444017D01*
X563552Y443652D01*
X563917Y443371D01*
X564343Y443195D01*
X564800Y443135D01*
X580000D01*
X580457Y443195D01*
X580883Y443371D01*
X581248Y443652D01*
X581529Y444017D01*
X581705Y444443D01*
X581765Y444900D01*
Y448927D01*
X583289Y449683D01*
X583985Y449153D01*
Y427015D01*
X583500D01*
X583043Y426955D01*
X582617Y426779D01*
X582252Y426498D01*
X581971Y426133D01*
X581795Y425707D01*
X581735Y425250D01*
Y425183D01*
X580211Y424552D01*
X577884Y426879D01*
Y430435D01*
X580000D01*
X580457Y430495D01*
X580883Y430671D01*
X581248Y430952D01*
X581529Y431317D01*
X581705Y431743D01*
X581765Y432200D01*
Y438200D01*
X581705Y438657D01*
X581529Y439083D01*
X581248Y439448D01*
X580883Y439729D01*
X580457Y439905D01*
X580000Y439965D01*
X564800D01*
X564343Y439905D01*
X563917Y439729D01*
X563552Y439448D01*
X563271Y439083D01*
X563095Y438657D01*
X563035Y438200D01*
Y432200D01*
X563095Y431743D01*
X563271Y431317D01*
X563552Y430952D01*
X563917Y430671D01*
X564343Y430495D01*
X564800Y430435D01*
X571856D01*
Y425630D01*
X571913Y425042D01*
X572085Y424476D01*
X572364Y423955D01*
X572738Y423498D01*
X577618Y418618D01*
X578075Y418243D01*
X578596Y417965D01*
X579162Y417793D01*
X579750Y417735D01*
X581735D01*
Y416250D01*
X581795Y415793D01*
X581971Y415367D01*
X582252Y415002D01*
X582617Y414721D01*
X583043Y414545D01*
X583500Y414485D01*
X591500D01*
X591957Y414545D01*
X592383Y414721D01*
X592748Y415002D01*
X593029Y415367D01*
X593205Y415793D01*
X593265Y416250D01*
Y425250D01*
X593205Y425707D01*
X593029Y426133D01*
X592748Y426498D01*
X592383Y426779D01*
X591957Y426955D01*
X591500Y427015D01*
X590014D01*
Y451000D01*
X589957Y451588D01*
X589785Y452154D01*
X589506Y452675D01*
X589132Y453132D01*
X585632Y456632D01*
X585175Y457006D01*
X584654Y457285D01*
X584634Y457291D01*
X584220Y458306D01*
X584191Y458511D01*
X584236Y458973D01*
X586132Y460868D01*
X586507Y461325D01*
X586785Y461846D01*
X586957Y462412D01*
X587015Y463000D01*
Y478000D01*
X586957Y478588D01*
X586785Y479154D01*
X586507Y479675D01*
X586132Y480132D01*
X583632Y482632D01*
X583175Y483007D01*
X582654Y483285D01*
X582088Y483457D01*
X581500Y483515D01*
X563249D01*
X549632Y497132D01*
X549175Y497506D01*
X548654Y497785D01*
X548088Y497957D01*
X547500Y498014D01*
X438328D01*
X433999Y502344D01*
X434898Y503600D01*
X435561Y503273D01*
X436771Y502862D01*
X438025Y502613D01*
X439300Y502529D01*
X440575Y502613D01*
X441829Y502862D01*
X443039Y503273D01*
X444185Y503838D01*
X445248Y504548D01*
X446209Y505391D01*
X447052Y506352D01*
X447762Y507415D01*
X448327Y508561D01*
X448738Y509771D01*
X448987Y511025D01*
X449071Y512300D01*
X448987Y513575D01*
X448738Y514829D01*
X448327Y516039D01*
X447762Y517186D01*
X447052Y518248D01*
X446209Y519209D01*
X445248Y520052D01*
X444185Y520762D01*
X443039Y521327D01*
X441829Y521738D01*
X440575Y521987D01*
X439300Y522071D01*
X438025Y521987D01*
X436771Y521738D01*
X435561Y521327D01*
X434414Y520762D01*
X433352Y520052D01*
X432391Y519209D01*
X431548Y518248D01*
X430838Y517186D01*
X430538Y516578D01*
X429015Y516933D01*
Y525600D01*
X428957Y526188D01*
X428785Y526754D01*
X428507Y527275D01*
X428132Y527732D01*
X422573Y533290D01*
X422942Y534038D01*
X423344Y535223D01*
X423589Y536451D01*
X423671Y537700D01*
X423589Y538949D01*
X423344Y540177D01*
X422942Y541362D01*
X422388Y542485D01*
X421693Y543526D01*
X421100Y544202D01*
X421351Y545162D01*
X421743Y545726D01*
X430346D01*
X431037Y544202D01*
X430952Y544106D01*
X430187Y542961D01*
X429579Y541727D01*
X429136Y540423D01*
X429092Y540200D01*
X449508D01*
X449464Y540423D01*
X449021Y541727D01*
X448413Y542961D01*
X447648Y544106D01*
X447563Y544202D01*
X448254Y545726D01*
X456857D01*
X457249Y545162D01*
X457500Y544202D01*
X456907Y543526D01*
X456212Y542485D01*
X455658Y541362D01*
X455256Y540177D01*
X455011Y538949D01*
X454930Y537700D01*
X455011Y536451D01*
X455256Y535223D01*
X455658Y534038D01*
X456212Y532915D01*
X456907Y531874D01*
X457733Y530933D01*
X458674Y530107D01*
X459715Y529412D01*
X460838Y528858D01*
X462023Y528456D01*
X463251Y528211D01*
X464500Y528130D01*
X464900D01*
X466149Y528211D01*
X467377Y528456D01*
X468563Y528858D01*
X469685Y529412D01*
X470726Y530107D01*
X471667Y530933D01*
X472493Y531874D01*
X473188Y532915D01*
X473742Y534038D01*
X474144Y535223D01*
X474389Y536451D01*
X474470Y537700D01*
X474389Y538949D01*
X474144Y540177D01*
X473742Y541362D01*
X473188Y542485D01*
X472493Y543526D01*
X471900Y544202D01*
X472150Y545162D01*
X472543Y545726D01*
X481146D01*
X481837Y544202D01*
X481752Y544106D01*
X480987Y542961D01*
X480378Y541727D01*
X479936Y540423D01*
X479892Y540200D01*
X490100D01*
Y537700D01*
X492600D01*
Y527492D01*
X492823Y527536D01*
X494127Y527979D01*
X495361Y528587D01*
X496506Y529352D01*
X497541Y530259D01*
X498448Y531294D01*
X499213Y532439D01*
X499822Y533673D01*
X500264Y534977D01*
X501726Y534631D01*
Y523300D01*
X501821Y522582D01*
X502098Y521913D01*
X502539Y521339D01*
X506924Y516954D01*
X506473Y516039D01*
X506062Y514829D01*
X505813Y513575D01*
X505729Y512300D01*
X505813Y511025D01*
X506062Y509771D01*
X506473Y508561D01*
X507038Y507415D01*
X507748Y506352D01*
X508591Y505391D01*
X509552Y504548D01*
X510615Y503838D01*
X511761Y503273D01*
X512971Y502862D01*
X514225Y502613D01*
X515500Y502529D01*
X516775Y502613D01*
X518029Y502862D01*
X519239Y503273D01*
X520386Y503838D01*
X521448Y504548D01*
X522409Y505391D01*
X523252Y506352D01*
X523962Y507415D01*
X524527Y508561D01*
X524938Y509771D01*
X525187Y511025D01*
X525271Y512300D01*
X525187Y513575D01*
X524938Y514829D01*
X524527Y516039D01*
X523962Y517186D01*
X523252Y518248D01*
X522409Y519209D01*
X521448Y520052D01*
X520386Y520762D01*
X519239Y521327D01*
X518029Y521738D01*
X516775Y521987D01*
X515500Y522071D01*
X514225Y521987D01*
X512971Y521738D01*
X511761Y521327D01*
X510846Y520876D01*
X507274Y524449D01*
Y530057D01*
X507838Y530449D01*
X508798Y530700D01*
X509474Y530107D01*
X510515Y529412D01*
X511637Y528858D01*
X512823Y528456D01*
X514051Y528211D01*
X515300Y528130D01*
X515700D01*
X516949Y528211D01*
X518177Y528456D01*
X519362Y528858D01*
X520485Y529412D01*
X521526Y530107D01*
X522467Y530933D01*
X523293Y531874D01*
X523988Y532915D01*
X524542Y534038D01*
X524944Y535223D01*
X525189Y536451D01*
X525271Y537700D01*
X525189Y538949D01*
X524944Y540177D01*
X524542Y541362D01*
X523988Y542485D01*
X523293Y543526D01*
X522700Y544202D01*
X522951Y545162D01*
X523343Y545726D01*
X532972D01*
X533141Y545541D01*
X533634Y544202D01*
X533148Y543648D01*
X532438Y542585D01*
X531873Y541439D01*
X531462Y540229D01*
X531213Y538975D01*
X531129Y537700D01*
X531213Y536425D01*
X531462Y535171D01*
X531873Y533961D01*
X532438Y532814D01*
X533148Y531752D01*
X533991Y530791D01*
X534952Y529948D01*
X536015Y529238D01*
X537161Y528673D01*
X538371Y528262D01*
X539625Y528013D01*
X540900Y527929D01*
X542175Y528013D01*
X543429Y528262D01*
X544639Y528673D01*
X545785Y529238D01*
X546848Y529948D01*
X547809Y530791D01*
X548652Y531752D01*
X549362Y532814D01*
X549927Y533961D01*
X550338Y535171D01*
X550587Y536425D01*
X550671Y537700D01*
X550587Y538975D01*
X550338Y540229D01*
X549927Y541439D01*
X549362Y542585D01*
X548652Y543648D01*
X548166Y544202D01*
X548659Y545541D01*
X548828Y545726D01*
X554011D01*
X557627Y542110D01*
X557258Y541362D01*
X556856Y540177D01*
X556611Y538949D01*
X556530Y537700D01*
X556611Y536451D01*
X556856Y535223D01*
X557258Y534038D01*
X557812Y532915D01*
X558507Y531874D01*
X559333Y530933D01*
X560274Y530107D01*
X561315Y529412D01*
X562438Y528858D01*
X563623Y528456D01*
X564851Y528211D01*
X566100Y528130D01*
X566500D01*
X567749Y528211D01*
X568977Y528456D01*
X570163Y528858D01*
X571285Y529412D01*
X572326Y530107D01*
X573267Y530933D01*
X574093Y531874D01*
X574788Y532915D01*
X575342Y534038D01*
X575744Y535223D01*
X575989Y536451D01*
X576071Y537700D01*
X575989Y538949D01*
X575744Y540177D01*
X575342Y541362D01*
X574788Y542485D01*
X574093Y543526D01*
X573267Y544467D01*
X572326Y545293D01*
X571285Y545988D01*
X570163Y546542D01*
X568977Y546944D01*
X567749Y547189D01*
X566500Y547271D01*
X566100D01*
X564851Y547189D01*
X563623Y546944D01*
X562438Y546542D01*
X561958Y546305D01*
X557632Y550632D01*
X557175Y551007D01*
X556654Y551285D01*
X556088Y551457D01*
X555500Y551515D01*
X554912Y551457D01*
X554346Y551285D01*
X554325Y551274D01*
X510000D01*
X509282Y551179D01*
X508613Y550902D01*
X508039Y550461D01*
X506851Y549274D01*
X503649D01*
X498937Y553985D01*
X498363Y554426D01*
X497694Y554703D01*
X496976Y554798D01*
X355221D01*
X354503Y554703D01*
X353834Y554426D01*
X353259Y553985D01*
X346539Y547265D01*
X346098Y546690D01*
X345821Y546021D01*
X345766Y545602D01*
X345433Y545317D01*
X345169Y545180D01*
X344202Y544966D01*
X343648Y545452D01*
X342585Y546162D01*
X341439Y546727D01*
X340229Y547138D01*
X338975Y547387D01*
X337700Y547471D01*
X336425Y547387D01*
X335171Y547138D01*
X333961Y546727D01*
X332814Y546162D01*
X331752Y545452D01*
X330791Y544609D01*
X329948Y543648D01*
X329238Y542585D01*
X328673Y541439D01*
X328262Y540229D01*
X328013Y538975D01*
X327929Y537700D01*
X328013Y536425D01*
X328262Y535171D01*
X328673Y533961D01*
X329238Y532814D01*
X329948Y531752D01*
X330791Y530791D01*
X331752Y529948D01*
X332814Y529238D01*
X333961Y528673D01*
X335171Y528262D01*
X336425Y528013D01*
X337700Y527929D01*
X338975Y528013D01*
X340229Y528262D01*
X341439Y528673D01*
X342585Y529238D01*
X343648Y529948D01*
X344202Y530434D01*
X345541Y529941D01*
X345726Y529772D01*
Y520228D01*
X345541Y520059D01*
X344202Y519566D01*
X343648Y520052D01*
X342585Y520762D01*
X341439Y521327D01*
X340229Y521738D01*
X338975Y521987D01*
X337700Y522071D01*
X336425Y521987D01*
X335171Y521738D01*
X333961Y521327D01*
X332814Y520762D01*
X331752Y520052D01*
X330791Y519209D01*
X329948Y518248D01*
X329238Y517186D01*
X328673Y516039D01*
X328262Y514829D01*
X328013Y513575D01*
X327929Y512300D01*
X328013Y511025D01*
X328262Y509771D01*
X328673Y508561D01*
X329238Y507415D01*
X329948Y506352D01*
X330791Y505391D01*
X331752Y504548D01*
X332814Y503838D01*
X333961Y503273D01*
X335171Y502862D01*
X336425Y502613D01*
X337700Y502529D01*
X338975Y502613D01*
X339011Y502620D01*
X339761Y501215D01*
X337320Y498774D01*
X317000D01*
X316282Y498679D01*
X315613Y498402D01*
X315039Y497961D01*
X312789Y495711D01*
X312348Y495137D01*
X312071Y494468D01*
X311976Y493750D01*
Y493265D01*
X309500D01*
X308900Y494723D01*
Y496500D01*
X308900Y496500D01*
X308801Y497251D01*
X308511Y497950D01*
X308050Y498550D01*
X308050Y498551D01*
X300900Y505701D01*
Y517000D01*
X300801Y517751D01*
X300511Y518450D01*
X300051Y519050D01*
X300050Y519051D01*
X293550Y525550D01*
X292950Y526011D01*
X292250Y526301D01*
X291500Y526400D01*
X291500Y526400D01*
X281701D01*
X275400Y532701D01*
Y541820D01*
X275301Y542570D01*
X275011Y543270D01*
X274550Y543870D01*
X274550Y543871D01*
X264370Y554050D01*
X263770Y554511D01*
X263071Y554801D01*
X262320Y554900D01*
D02*
G37*
G36*
X309800Y547744D02*
X309429Y547670D01*
X308150Y547236D01*
X306939Y546639D01*
X305816Y545889D01*
X304801Y544999D01*
X303911Y543984D01*
X303161Y542861D01*
X302564Y541650D01*
X302130Y540372D01*
X302096Y540200D01*
X309800D01*
Y547744D01*
D02*
G37*
G36*
X132000Y547908D02*
X131777Y547864D01*
X130473Y547421D01*
X129239Y546813D01*
X128094Y546048D01*
X127059Y545140D01*
X126152Y544106D01*
X125387Y542961D01*
X124778Y541727D01*
X124336Y540423D01*
X124292Y540200D01*
X132000D01*
Y547908D01*
D02*
G37*
G36*
X137000D02*
Y540200D01*
X144708D01*
X144664Y540423D01*
X144221Y541727D01*
X143613Y542961D01*
X142848Y544106D01*
X141941Y545140D01*
X140906Y546048D01*
X139761Y546813D01*
X138527Y547421D01*
X137223Y547864D01*
X137000Y547908D01*
D02*
G37*
G36*
X312300Y522071D02*
X311025Y521987D01*
X309771Y521738D01*
X308561Y521327D01*
X307414Y520762D01*
X306352Y520052D01*
X305391Y519209D01*
X304548Y518248D01*
X303838Y517186D01*
X303273Y516039D01*
X302862Y514829D01*
X302613Y513575D01*
X302529Y512300D01*
X302613Y511025D01*
X302862Y509771D01*
X303273Y508561D01*
X303838Y507415D01*
X304548Y506352D01*
X305391Y505391D01*
X306352Y504548D01*
X307414Y503838D01*
X308561Y503273D01*
X309771Y502862D01*
X311025Y502613D01*
X312300Y502529D01*
X313575Y502613D01*
X314829Y502862D01*
X316039Y503273D01*
X317185Y503838D01*
X318248Y504548D01*
X319209Y505391D01*
X320052Y506352D01*
X320762Y507415D01*
X321327Y508561D01*
X321738Y509771D01*
X321987Y511025D01*
X322071Y512300D01*
X321987Y513575D01*
X321738Y514829D01*
X321327Y516039D01*
X320762Y517186D01*
X320052Y518248D01*
X319209Y519209D01*
X318248Y520052D01*
X317185Y520762D01*
X316039Y521327D01*
X314829Y521738D01*
X313575Y521987D01*
X312300Y522071D01*
D02*
G37*
G36*
X464700D02*
X463425Y521987D01*
X462171Y521738D01*
X460961Y521327D01*
X459814Y520762D01*
X458752Y520052D01*
X457791Y519209D01*
X456948Y518248D01*
X456238Y517186D01*
X455673Y516039D01*
X455262Y514829D01*
X455013Y513575D01*
X454929Y512300D01*
X455013Y511025D01*
X455262Y509771D01*
X455673Y508561D01*
X456238Y507415D01*
X456948Y506352D01*
X457791Y505391D01*
X458752Y504548D01*
X459814Y503838D01*
X460961Y503273D01*
X462171Y502862D01*
X463425Y502613D01*
X464700Y502529D01*
X465975Y502613D01*
X467229Y502862D01*
X468439Y503273D01*
X469585Y503838D01*
X470648Y504548D01*
X471609Y505391D01*
X472452Y506352D01*
X473162Y507415D01*
X473727Y508561D01*
X474138Y509771D01*
X474387Y511025D01*
X474471Y512300D01*
X474387Y513575D01*
X474138Y514829D01*
X473727Y516039D01*
X473162Y517186D01*
X472452Y518248D01*
X471609Y519209D01*
X470648Y520052D01*
X469585Y520762D01*
X468439Y521327D01*
X467229Y521738D01*
X465975Y521987D01*
X464700Y522071D01*
D02*
G37*
G36*
X576508Y509800D02*
X568800D01*
Y502092D01*
X569023Y502136D01*
X570327Y502579D01*
X571561Y503187D01*
X572706Y503952D01*
X573741Y504859D01*
X574648Y505894D01*
X575413Y507039D01*
X576021Y508273D01*
X576464Y509577D01*
X576508Y509800D01*
D02*
G37*
G36*
X386000D02*
X378292D01*
X378336Y509577D01*
X378778Y508273D01*
X379387Y507039D01*
X380152Y505894D01*
X381059Y504859D01*
X382094Y503952D01*
X383239Y503187D01*
X384473Y502579D01*
X385777Y502136D01*
X386000Y502092D01*
Y509800D01*
D02*
G37*
G36*
X563800D02*
X556092D01*
X556136Y509577D01*
X556578Y508273D01*
X557187Y507039D01*
X557952Y505894D01*
X558859Y504859D01*
X559894Y503952D01*
X561039Y503187D01*
X562273Y502579D01*
X563577Y502136D01*
X563800Y502092D01*
Y509800D01*
D02*
G37*
G36*
X568800Y522508D02*
Y514800D01*
X576508D01*
X576464Y515023D01*
X576021Y516327D01*
X575413Y517561D01*
X574648Y518706D01*
X573741Y519740D01*
X572706Y520648D01*
X571561Y521413D01*
X570327Y522021D01*
X569023Y522464D01*
X568800Y522508D01*
D02*
G37*
G36*
X436800Y535200D02*
X429092D01*
X429136Y534977D01*
X429579Y533673D01*
X430187Y532439D01*
X430952Y531294D01*
X431860Y530259D01*
X432894Y529352D01*
X434039Y528587D01*
X435273Y527979D01*
X436577Y527536D01*
X436800Y527492D01*
Y535200D01*
D02*
G37*
G36*
X563800Y522508D02*
X563577Y522464D01*
X562273Y522021D01*
X561039Y521413D01*
X559894Y520648D01*
X558859Y519740D01*
X557952Y518706D01*
X557187Y517561D01*
X556578Y516327D01*
X556136Y515023D01*
X556092Y514800D01*
X563800D01*
Y522508D01*
D02*
G37*
G36*
X490100Y522071D02*
X488825Y521987D01*
X487571Y521738D01*
X486361Y521327D01*
X485215Y520762D01*
X484152Y520052D01*
X483191Y519209D01*
X482348Y518248D01*
X481638Y517186D01*
X481073Y516039D01*
X480662Y514829D01*
X480413Y513575D01*
X480329Y512300D01*
X480413Y511025D01*
X480662Y509771D01*
X481073Y508561D01*
X481638Y507415D01*
X482348Y506352D01*
X483191Y505391D01*
X484152Y504548D01*
X485215Y503838D01*
X486361Y503273D01*
X487571Y502862D01*
X488825Y502613D01*
X490100Y502529D01*
X491375Y502613D01*
X492629Y502862D01*
X493839Y503273D01*
X494986Y503838D01*
X496048Y504548D01*
X497009Y505391D01*
X497852Y506352D01*
X498562Y507415D01*
X499127Y508561D01*
X499538Y509771D01*
X499787Y511025D01*
X499871Y512300D01*
X499787Y513575D01*
X499538Y514829D01*
X499127Y516039D01*
X498562Y517186D01*
X497852Y518248D01*
X497009Y519209D01*
X496048Y520052D01*
X494986Y520762D01*
X493839Y521327D01*
X492629Y521738D01*
X491375Y521987D01*
X490100Y522071D01*
D02*
G37*
G36*
X540900D02*
X539625Y521987D01*
X538371Y521738D01*
X537161Y521327D01*
X536015Y520762D01*
X534952Y520052D01*
X533991Y519209D01*
X533148Y518248D01*
X532438Y517186D01*
X531873Y516039D01*
X531462Y514829D01*
X531213Y513575D01*
X531129Y512300D01*
X531213Y511025D01*
X531462Y509771D01*
X531873Y508561D01*
X532438Y507415D01*
X533148Y506352D01*
X533991Y505391D01*
X534952Y504548D01*
X536015Y503838D01*
X537161Y503273D01*
X538371Y502862D01*
X539625Y502613D01*
X540900Y502529D01*
X542175Y502613D01*
X543429Y502862D01*
X544639Y503273D01*
X545785Y503838D01*
X546848Y504548D01*
X547809Y505391D01*
X548652Y506352D01*
X549362Y507415D01*
X549927Y508561D01*
X550338Y509771D01*
X550587Y511025D01*
X550671Y512300D01*
X550587Y513575D01*
X550338Y514829D01*
X549927Y516039D01*
X549362Y517186D01*
X548652Y518248D01*
X547809Y519209D01*
X546848Y520052D01*
X545785Y520762D01*
X544639Y521327D01*
X543429Y521738D01*
X542175Y521987D01*
X540900Y522071D01*
D02*
G37*
G36*
X625100Y432700D02*
X617478D01*
Y432200D01*
X617564Y431547D01*
X617816Y430939D01*
X618217Y430417D01*
X618739Y430016D01*
X619347Y429764D01*
X620000Y429678D01*
X625100D01*
Y432700D01*
D02*
G37*
G36*
X637721D02*
X630100D01*
Y429678D01*
X635200D01*
X635853Y429764D01*
X636461Y430016D01*
X636983Y430417D01*
X637384Y430939D01*
X637636Y431547D01*
X637721Y432200D01*
Y432700D01*
D02*
G37*
G36*
X537000Y430250D02*
X533478D01*
Y427750D01*
X533564Y427097D01*
X533816Y426489D01*
X534217Y425967D01*
X534739Y425566D01*
X535347Y425314D01*
X536000Y425228D01*
X537000D01*
Y430250D01*
D02*
G37*
G36*
X545522D02*
X542000D01*
Y425228D01*
X543000D01*
X543653Y425314D01*
X544261Y425566D01*
X544783Y425967D01*
X545184Y426489D01*
X545436Y427097D01*
X545522Y427750D01*
Y430250D01*
D02*
G37*
G36*
X625100Y440722D02*
X620000D01*
X619347Y440636D01*
X618739Y440384D01*
X618217Y439983D01*
X617816Y439461D01*
X617564Y438853D01*
X617478Y438200D01*
Y437700D01*
X625100D01*
Y440722D01*
D02*
G37*
G36*
X637721Y445400D02*
X630100D01*
Y442378D01*
X635200D01*
X635853Y442464D01*
X636461Y442716D01*
X636983Y443117D01*
X637384Y443639D01*
X637636Y444247D01*
X637721Y444900D01*
Y445400D01*
D02*
G37*
G36*
X199500Y447265D02*
X191500D01*
X191043Y447205D01*
X190617Y447029D01*
X190252Y446748D01*
X189971Y446383D01*
X189795Y445957D01*
X189735Y445500D01*
Y445429D01*
X189193Y445208D01*
X188211Y445010D01*
X187652Y445469D01*
X186827Y445910D01*
X185931Y446181D01*
X185000Y446273D01*
X184069Y446181D01*
X183174Y445910D01*
X182348Y445469D01*
X181625Y444875D01*
X181031Y444152D01*
X180590Y443326D01*
X180319Y442431D01*
X180227Y441500D01*
X180319Y440569D01*
X180590Y439674D01*
X181031Y438848D01*
X181625Y438125D01*
X182348Y437531D01*
X183174Y437090D01*
X184069Y436819D01*
X185000Y436727D01*
X185931Y436819D01*
X186827Y437090D01*
X187652Y437531D01*
X188211Y437990D01*
X189193Y437792D01*
X189735Y437571D01*
Y436500D01*
X189795Y436043D01*
X189971Y435617D01*
X190252Y435252D01*
X190617Y434971D01*
X191043Y434795D01*
X191500Y434735D01*
X199500D01*
X199957Y434795D01*
X200383Y434971D01*
X200748Y435252D01*
X201029Y435617D01*
X201205Y436043D01*
X201265Y436500D01*
Y445500D01*
X201205Y445957D01*
X201029Y446383D01*
X200748Y446748D01*
X200383Y447029D01*
X199957Y447205D01*
X199500Y447265D01*
D02*
G37*
G36*
X635200Y440722D02*
X630100D01*
Y437700D01*
X637721D01*
Y438200D01*
X637636Y438853D01*
X637384Y439461D01*
X636983Y439983D01*
X636461Y440384D01*
X635853Y440636D01*
X635200Y440722D01*
D02*
G37*
G36*
X625100Y445400D02*
X617478D01*
Y444900D01*
X617564Y444247D01*
X617816Y443639D01*
X618217Y443117D01*
X618739Y442716D01*
X619347Y442464D01*
X620000Y442378D01*
X625100D01*
Y445400D01*
D02*
G37*
G36*
X609022Y418250D02*
X605000D01*
Y413728D01*
X606500D01*
X607153Y413814D01*
X607761Y414066D01*
X608283Y414467D01*
X608684Y414989D01*
X608936Y415597D01*
X609022Y416250D01*
Y418250D01*
D02*
G37*
G36*
X97000Y421272D02*
X94500D01*
X93847Y421186D01*
X93239Y420934D01*
X92717Y420533D01*
X92316Y420011D01*
X92064Y419403D01*
X91979Y418750D01*
Y414500D01*
X97000D01*
Y421272D01*
D02*
G37*
G36*
X275500Y414015D02*
X266500D01*
X266043Y413955D01*
X265618Y413779D01*
X265252Y413498D01*
X264971Y413133D01*
X264326Y412910D01*
X263431Y413181D01*
X262500Y413273D01*
X261569Y413181D01*
X260673Y412910D01*
X259848Y412469D01*
X259125Y411875D01*
X258531Y411152D01*
X258090Y410326D01*
X257819Y409431D01*
X257727Y408500D01*
X257819Y407569D01*
X258090Y406674D01*
X258531Y405848D01*
X259125Y405125D01*
X259848Y404531D01*
X260673Y404090D01*
X261569Y403819D01*
X262500Y403727D01*
X263431Y403819D01*
X264588Y403797D01*
X264971Y403367D01*
X265252Y403002D01*
X265618Y402721D01*
X266043Y402545D01*
X266500Y402485D01*
X275500D01*
X275957Y402545D01*
X276383Y402721D01*
X276748Y403002D01*
X277029Y403368D01*
X277205Y403793D01*
X277265Y404250D01*
Y412250D01*
X277205Y412707D01*
X277029Y413133D01*
X276748Y413498D01*
X276383Y413779D01*
X275957Y413955D01*
X275500Y414015D01*
D02*
G37*
G36*
X600000Y418250D02*
X595979D01*
Y416250D01*
X596064Y415597D01*
X596316Y414989D01*
X596717Y414467D01*
X597239Y414066D01*
X597847Y413814D01*
X598500Y413728D01*
X600000D01*
Y418250D01*
D02*
G37*
G36*
X104500Y421272D02*
X102000D01*
Y414500D01*
X107022D01*
Y418750D01*
X106936Y419403D01*
X106684Y420011D01*
X106283Y420533D01*
X105761Y420934D01*
X105153Y421186D01*
X104500Y421272D01*
D02*
G37*
G36*
X606500Y427771D02*
X605000D01*
Y423250D01*
X609022D01*
Y425250D01*
X608936Y425903D01*
X608684Y426511D01*
X608283Y427033D01*
X607761Y427434D01*
X607153Y427686D01*
X606500Y427771D01*
D02*
G37*
G36*
X144000Y444365D02*
X128000D01*
X127543Y444305D01*
X127117Y444129D01*
X126752Y443848D01*
X126471Y443483D01*
X126295Y443057D01*
X126235Y442600D01*
Y426600D01*
X126295Y426143D01*
X126471Y425717D01*
X126752Y425352D01*
X127117Y425071D01*
X127543Y424895D01*
X128000Y424835D01*
X144000D01*
X144457Y424895D01*
X144882Y425071D01*
X145248Y425352D01*
X145529Y425717D01*
X145705Y426143D01*
X145765Y426600D01*
Y442600D01*
X145705Y443057D01*
X145529Y443483D01*
X145248Y443848D01*
X144882Y444129D01*
X144457Y444305D01*
X144000Y444365D01*
D02*
G37*
G36*
X185500Y431273D02*
X184569Y431181D01*
X183673Y430910D01*
X182848Y430469D01*
X182125Y429875D01*
X181531Y429152D01*
X181090Y428326D01*
X180819Y427431D01*
X180727Y426500D01*
X180819Y425569D01*
X181090Y424674D01*
X181531Y423848D01*
X182125Y423125D01*
X182848Y422531D01*
X183673Y422090D01*
X184569Y421819D01*
X185500Y421727D01*
X186431Y421819D01*
X187327Y422090D01*
X188152Y422531D01*
X188875Y423125D01*
X188949Y423215D01*
X246640D01*
X247125Y422625D01*
X247848Y422031D01*
X248673Y421590D01*
X249569Y421319D01*
X250500Y421227D01*
X251431Y421319D01*
X252327Y421590D01*
X253152Y422031D01*
X253875Y422625D01*
X254469Y423348D01*
X254910Y424174D01*
X255181Y425069D01*
X255273Y426000D01*
X255181Y426931D01*
X254910Y427827D01*
X254469Y428652D01*
X253875Y429375D01*
X253152Y429969D01*
X252327Y430410D01*
X251431Y430681D01*
X250500Y430773D01*
X249569Y430681D01*
X248673Y430410D01*
X247848Y429969D01*
X247125Y429375D01*
X247018Y429244D01*
X189393D01*
X188875Y429875D01*
X188152Y430469D01*
X187327Y430910D01*
X186431Y431181D01*
X185500Y431273D01*
D02*
G37*
G36*
X600000Y427771D02*
X598500D01*
X597847Y427686D01*
X597239Y427434D01*
X596717Y427033D01*
X596316Y426511D01*
X596064Y425903D01*
X595979Y425250D01*
Y423250D01*
X600000D01*
Y427771D01*
D02*
G37*
G36*
X26208Y467500D02*
X18500D01*
Y459792D01*
X18723Y459836D01*
X20027Y460279D01*
X21261Y460887D01*
X22406Y461652D01*
X23440Y462560D01*
X24348Y463594D01*
X25113Y464739D01*
X25721Y465973D01*
X26164Y467277D01*
X26208Y467500D01*
D02*
G37*
G36*
X13500D02*
X5792D01*
X5836Y467277D01*
X6278Y465973D01*
X6887Y464739D01*
X7652Y463594D01*
X8559Y462560D01*
X9594Y461652D01*
X10739Y460887D01*
X11973Y460279D01*
X13277Y459836D01*
X13500Y459792D01*
Y467500D01*
D02*
G37*
G36*
X637721Y458100D02*
X630100D01*
Y455078D01*
X635200D01*
X635853Y455164D01*
X636461Y455416D01*
X636983Y455817D01*
X637384Y456339D01*
X637636Y456947D01*
X637721Y457600D01*
Y458100D01*
D02*
G37*
G36*
X635200Y453422D02*
X630100D01*
Y450400D01*
X637721D01*
Y450900D01*
X637636Y451553D01*
X637384Y452161D01*
X636983Y452683D01*
X636461Y453084D01*
X635853Y453336D01*
X635200Y453422D01*
D02*
G37*
G36*
X625100Y458100D02*
X617478D01*
Y457600D01*
X617564Y456947D01*
X617816Y456339D01*
X618217Y455817D01*
X618739Y455416D01*
X619347Y455164D01*
X620000Y455078D01*
X625100D01*
Y458100D01*
D02*
G37*
G36*
X635200Y466121D02*
X630100D01*
Y463100D01*
X637721D01*
Y463600D01*
X637636Y464253D01*
X637384Y464861D01*
X636983Y465383D01*
X636461Y465784D01*
X635853Y466036D01*
X635200Y466121D01*
D02*
G37*
G36*
X625100Y470800D02*
X617478D01*
Y470300D01*
X617564Y469647D01*
X617816Y469039D01*
X618217Y468517D01*
X618739Y468116D01*
X619347Y467864D01*
X620000Y467778D01*
X625100D01*
Y470800D01*
D02*
G37*
G36*
Y466121D02*
X620000D01*
X619347Y466036D01*
X618739Y465784D01*
X618217Y465383D01*
X617816Y464861D01*
X617564Y464253D01*
X617478Y463600D01*
Y463100D01*
X625100D01*
Y466121D01*
D02*
G37*
G36*
X133500Y470208D02*
X133277Y470164D01*
X131973Y469721D01*
X130739Y469113D01*
X129594Y468348D01*
X128559Y467440D01*
X127652Y466406D01*
X126887Y465261D01*
X126278Y464027D01*
X125836Y462723D01*
X125792Y462500D01*
X133500D01*
Y470208D01*
D02*
G37*
G36*
X138500Y470208D02*
Y462500D01*
X146208D01*
X146164Y462723D01*
X145722Y464027D01*
X145113Y465261D01*
X144348Y466406D01*
X143441Y467440D01*
X142406Y468348D01*
X141261Y469113D01*
X140027Y469721D01*
X138723Y470164D01*
X138500Y470208D01*
D02*
G37*
G36*
X625100Y453422D02*
X620000D01*
X619347Y453336D01*
X618739Y453084D01*
X618217Y452683D01*
X617816Y452161D01*
X617564Y451553D01*
X617478Y450900D01*
Y450400D01*
X625100D01*
Y453422D01*
D02*
G37*
G36*
X146208Y457500D02*
X138500D01*
Y449792D01*
X138723Y449836D01*
X140027Y450279D01*
X141261Y450887D01*
X142406Y451652D01*
X143441Y452559D01*
X144348Y453594D01*
X145113Y454739D01*
X145722Y455973D01*
X146164Y457277D01*
X146208Y457500D01*
D02*
G37*
G36*
X133500D02*
X125792D01*
X125836Y457277D01*
X126278Y455973D01*
X126887Y454739D01*
X127652Y453594D01*
X128559Y452559D01*
X129594Y451652D01*
X130739Y450887D01*
X131973Y450279D01*
X133277Y449836D01*
X133500Y449792D01*
Y457500D01*
D02*
G37*
%LPD*%
G36*
X409500Y295451D02*
X427938D01*
Y287500D01*
X387938D01*
Y295400D01*
X388000Y295451D01*
X406500D01*
Y307000D01*
X409500D01*
Y295451D01*
D02*
G37*
G36*
X343500Y295451D02*
X361961D01*
Y287500D01*
X321961D01*
Y295419D01*
X322000Y295451D01*
X340500D01*
Y307000D01*
X343500D01*
Y295451D01*
D02*
G37*
G36*
X116201Y369500D02*
X125500D01*
Y368000D01*
X127000D01*
Y360451D01*
X128340D01*
Y358767D01*
X128145Y358475D01*
X128041Y357951D01*
X125590Y355500D01*
X114472D01*
X113693Y356500D01*
X107750D01*
Y359500D01*
X113204D01*
X113090Y360073D01*
X112805Y360500D01*
X113090Y360927D01*
X113204Y361500D01*
X107750D01*
Y363000D01*
X106250D01*
Y366804D01*
X105054D01*
Y368000D01*
X101250D01*
Y371000D01*
X105054D01*
Y372250D01*
X105464Y372750D01*
X116201D01*
Y369500D01*
D02*
G37*
G36*
X73527Y365400D02*
X74093Y364500D01*
X79750D01*
Y361500D01*
X74292D01*
X74321Y361282D01*
X74598Y360613D01*
X74685Y360500D01*
X74598Y360387D01*
X74321Y359718D01*
X74292Y359500D01*
X79750D01*
Y356500D01*
X74292D01*
X74321Y356282D01*
X74598Y355613D01*
X74685Y355500D01*
X74598Y355387D01*
X74321Y354718D01*
X74292Y354500D01*
X79750D01*
Y351500D01*
X73528D01*
X72849Y351015D01*
X68401D01*
X68105Y351375D01*
X67382Y351969D01*
X66557Y352410D01*
X65661Y352681D01*
X64730Y352773D01*
X64606Y352761D01*
X60000Y357367D01*
X60000Y364685D01*
X61078Y365763D01*
X73104D01*
X73527Y365400D01*
D02*
G37*
%LPC*%
G36*
X124000Y366500D02*
X116201D01*
Y363000D01*
X116395Y362025D01*
X116947Y361198D01*
X117774Y360645D01*
X118750Y360451D01*
X124000D01*
Y366500D01*
D02*
G37*
G36*
X110500Y366804D02*
X109250D01*
Y364500D01*
X113204D01*
X113090Y365073D01*
X112483Y365983D01*
X111573Y366590D01*
X110500Y366804D01*
D02*
G37*
%LPD*%
G36*
X260127Y549032D02*
X260305Y548733D01*
X260225Y548245D01*
X259514Y547082D01*
X258823Y546944D01*
X257638Y546542D01*
X256515Y545988D01*
X255474Y545293D01*
X254533Y544467D01*
X253707Y543526D01*
X253012Y542485D01*
X252458Y541362D01*
X252056Y540177D01*
X251811Y538949D01*
X251730Y537700D01*
X251811Y536451D01*
X252056Y535223D01*
X252458Y534038D01*
X253012Y532915D01*
X253707Y531874D01*
X254533Y530933D01*
X255474Y530107D01*
X256515Y529412D01*
X257638Y528858D01*
X258823Y528456D01*
X260051Y528211D01*
X261300Y528130D01*
X261700D01*
X262949Y528211D01*
X264177Y528456D01*
X265362Y528858D01*
X266485Y529412D01*
X267526Y530107D01*
X268172Y530673D01*
X268769Y530703D01*
X269048Y530660D01*
X269903Y530258D01*
X269989Y530050D01*
X270450Y529450D01*
X278449Y521450D01*
X278449Y521450D01*
X279050Y520989D01*
X279545Y520784D01*
X279873Y519874D01*
X279929Y519138D01*
X279148Y518248D01*
X278438Y517186D01*
X277873Y516039D01*
X277462Y514829D01*
X277213Y513575D01*
X277129Y512300D01*
X277213Y511025D01*
X277462Y509771D01*
X277873Y508561D01*
X278438Y507415D01*
X279148Y506352D01*
X279991Y505391D01*
X280952Y504548D01*
X282015Y503838D01*
X283161Y503273D01*
X284371Y502862D01*
X285625Y502613D01*
X286900Y502529D01*
X288175Y502613D01*
X289429Y502862D01*
X290639Y503273D01*
X291786Y503838D01*
X292848Y504548D01*
X293576Y505187D01*
X294437Y504983D01*
X295100Y504552D01*
Y504500D01*
X295100Y504500D01*
X295199Y503750D01*
X295489Y503050D01*
X295949Y502449D01*
X303100Y495299D01*
Y483500D01*
X303100Y483500D01*
X303199Y482749D01*
X303489Y482050D01*
X303950Y481450D01*
X304699Y480700D01*
X304699Y480700D01*
X305266Y480265D01*
X306081Y479450D01*
X306081Y479450D01*
X306682Y478989D01*
X307381Y478699D01*
X307755Y478650D01*
X307735Y478500D01*
Y471613D01*
X307492Y471403D01*
X306274Y470918D01*
X300464Y476728D01*
Y486000D01*
X300407Y486578D01*
X300239Y487134D01*
X299965Y487647D01*
X299596Y488096D01*
X296346Y491346D01*
X295897Y491715D01*
X295384Y491989D01*
X294828Y492157D01*
X294250Y492214D01*
X292015D01*
Y492750D01*
X291955Y493207D01*
X291779Y493633D01*
X291498Y493998D01*
X291133Y494279D01*
X290707Y494455D01*
X290250Y494515D01*
X283586D01*
X275400Y502701D01*
Y517500D01*
X275400Y517500D01*
X275301Y518251D01*
X275011Y518950D01*
X274550Y519551D01*
X274550Y519551D01*
X268550Y525550D01*
X267950Y526011D01*
X267250Y526301D01*
X266500Y526400D01*
X266500Y526400D01*
X248201D01*
X245600Y529001D01*
X245000Y529461D01*
X244903Y529501D01*
X244385Y530759D01*
X244428Y531271D01*
X244448Y531294D01*
X245213Y532439D01*
X245821Y533673D01*
X246264Y534977D01*
X246308Y535200D01*
X236100D01*
Y540200D01*
X246308D01*
X246264Y540423D01*
X245821Y541727D01*
X245213Y542961D01*
X244448Y544106D01*
X243541Y545140D01*
X242506Y546048D01*
X241361Y546813D01*
X240127Y547421D01*
X239671Y547576D01*
X239923Y549100D01*
X259999D01*
X260127Y549032D01*
D02*
G37*
G36*
X560821Y375500D02*
X552549D01*
Y394000D01*
X541000D01*
Y397000D01*
X552549D01*
Y415500D01*
X552549Y415500D01*
X560821D01*
Y375500D01*
D02*
G37*
G36*
X456606Y453407D02*
X457162Y452951D01*
X457796Y452612D01*
X458484Y452403D01*
X459200Y452332D01*
X459235D01*
Y451500D01*
X459295Y451043D01*
X459471Y450617D01*
X459752Y450252D01*
X460117Y449971D01*
X460543Y449795D01*
X460588Y449789D01*
X460488Y448265D01*
X458000D01*
X457543Y448205D01*
X457117Y448029D01*
X456752Y447748D01*
X456471Y447383D01*
X456295Y446957D01*
X456235Y446500D01*
Y437500D01*
X456295Y437043D01*
X456471Y436618D01*
X456752Y435748D01*
X456471Y435382D01*
X456295Y434957D01*
X456235Y434500D01*
Y428498D01*
X454173Y426436D01*
X452765Y427019D01*
Y432000D01*
X452705Y432457D01*
X452529Y432882D01*
X452248Y433248D01*
X451883Y433529D01*
X451457Y433705D01*
X451000Y433765D01*
X441000D01*
X440543Y433705D01*
X440117Y433529D01*
X439278Y433437D01*
X438498Y433748D01*
X438133Y434029D01*
X437707Y434205D01*
X437250Y434265D01*
X432020D01*
X431436Y435673D01*
X432007Y436243D01*
X432382Y436700D01*
X432660Y437221D01*
X432816Y437735D01*
X437250D01*
X437707Y437795D01*
X437724Y437802D01*
X438634Y437652D01*
X439470Y437120D01*
X439471Y437117D01*
X439752Y436752D01*
X440117Y436471D01*
X440543Y436295D01*
X441000Y436235D01*
X451000D01*
X451457Y436295D01*
X451883Y436471D01*
X452248Y436752D01*
X452529Y437117D01*
X452705Y437543D01*
X452765Y438000D01*
Y445000D01*
X452705Y445457D01*
X452529Y445883D01*
X452248Y446248D01*
X451883Y446529D01*
X451457Y446705D01*
X451021Y446762D01*
Y448770D01*
X451207Y448795D01*
X451633Y448971D01*
X451998Y449252D01*
X452279Y449617D01*
X452455Y450043D01*
X452515Y450500D01*
Y455507D01*
X453923Y456090D01*
X456606Y453407D01*
D02*
G37*
G36*
X203451Y416500D02*
Y398000D01*
X215000D01*
Y395000D01*
X203451D01*
Y376500D01*
X195500D01*
Y416500D01*
X203451D01*
X203451Y416500D01*
D02*
G37*
G36*
X284231Y470471D02*
X284531Y469461D01*
X284471Y469383D01*
X284295Y468957D01*
X284235Y468500D01*
Y458500D01*
X284295Y458043D01*
X284471Y457617D01*
X284752Y457252D01*
X285117Y456971D01*
X285638Y456615D01*
X286228Y455500D01*
Y453000D01*
X295500D01*
Y450500D01*
X298000D01*
Y442979D01*
X302250D01*
X302903Y443064D01*
X302954Y443086D01*
X304256Y442408D01*
X304478Y442138D01*
Y440500D01*
X304564Y439847D01*
X304816Y439239D01*
X305217Y438717D01*
X305739Y438316D01*
X306347Y438064D01*
X307000Y437978D01*
X309000D01*
Y444500D01*
X311500D01*
Y447000D01*
X318522D01*
Y447060D01*
X320046Y447691D01*
X325485Y442251D01*
Y434450D01*
X325478Y434449D01*
X324991Y434247D01*
X324574Y433926D01*
X324253Y433509D01*
X324052Y433022D01*
X323983Y432500D01*
Y430500D01*
X324052Y429978D01*
X324211Y429593D01*
X324039Y429461D01*
X323598Y428887D01*
X323321Y428218D01*
X323307Y428112D01*
X321771Y427492D01*
X319632Y429632D01*
X319175Y430006D01*
X318654Y430285D01*
X318088Y430457D01*
X317765Y430488D01*
Y433500D01*
X317705Y433957D01*
X317529Y434383D01*
X317248Y434748D01*
X316883Y435029D01*
X316457Y435205D01*
X316000Y435265D01*
X307000D01*
X306543Y435205D01*
X306117Y435029D01*
X305752Y434748D01*
X305539Y434471D01*
X305379Y434462D01*
X304015Y435199D01*
Y435500D01*
X303955Y435957D01*
X303779Y436382D01*
X303498Y436748D01*
X303132Y437029D01*
X302707Y437205D01*
X302250Y437265D01*
X288750D01*
X288293Y437205D01*
X287867Y437029D01*
X287502Y436748D01*
X285952Y437087D01*
X280771Y442269D01*
Y445750D01*
X280688Y446583D01*
X280445Y447384D01*
X280051Y448123D01*
X279520Y448770D01*
X278771Y449519D01*
Y452481D01*
X279520Y453230D01*
X280051Y453877D01*
X280445Y454616D01*
X280688Y455417D01*
X280771Y456250D01*
Y456925D01*
X280882Y456971D01*
X281248Y457252D01*
X281529Y457617D01*
X281705Y458043D01*
X281765Y458500D01*
Y468500D01*
X281705Y468957D01*
X281529Y469383D01*
X281469Y469461D01*
X281769Y470471D01*
X282140Y470985D01*
X283860D01*
X284231Y470471D01*
D02*
G37*
G36*
X406450Y545162D02*
X406700Y544202D01*
X406107Y543526D01*
X405412Y542485D01*
X404858Y541362D01*
X404456Y540177D01*
X404211Y538949D01*
X404129Y537700D01*
X404211Y536451D01*
X404456Y535223D01*
X404858Y534038D01*
X405412Y532915D01*
X406107Y531874D01*
X406933Y530933D01*
X407874Y530107D01*
X408915Y529412D01*
X410037Y528858D01*
X411223Y528456D01*
X412451Y528211D01*
X413700Y528130D01*
X414100D01*
X415349Y528211D01*
X416577Y528456D01*
X417762Y528858D01*
X418242Y529095D01*
X422985Y524351D01*
Y518995D01*
X422258Y518588D01*
X421461Y518465D01*
X420809Y519209D01*
X419848Y520052D01*
X418786Y520762D01*
X417639Y521327D01*
X416429Y521738D01*
X415175Y521987D01*
X413900Y522071D01*
X412625Y521987D01*
X411371Y521738D01*
X410161Y521327D01*
X409015Y520762D01*
X407952Y520052D01*
X406991Y519209D01*
X406148Y518248D01*
X405538Y517336D01*
X404923Y517299D01*
X404544Y517383D01*
X403994Y517704D01*
X403957Y518088D01*
X403785Y518654D01*
X403507Y519175D01*
X403132Y519632D01*
X395632Y527132D01*
X395175Y527506D01*
X394654Y527785D01*
X394125Y527946D01*
X394091Y528004D01*
X394071Y528047D01*
X393802Y529516D01*
X394448Y529948D01*
X395409Y530791D01*
X396252Y531752D01*
X396962Y532814D01*
X397527Y533961D01*
X397938Y535171D01*
X398187Y536425D01*
X398271Y537700D01*
X398187Y538975D01*
X397938Y540229D01*
X397527Y541439D01*
X396962Y542585D01*
X396252Y543648D01*
X395766Y544202D01*
X396259Y545541D01*
X396428Y545726D01*
X406057D01*
X406450Y545162D01*
D02*
G37*
%LPC*%
G36*
X318522Y442000D02*
X314000D01*
Y437978D01*
X316000D01*
X316653Y438064D01*
X317261Y438316D01*
X317783Y438717D01*
X318184Y439239D01*
X318436Y439847D01*
X318522Y440500D01*
Y442000D01*
D02*
G37*
G36*
X293000Y448000D02*
X286228D01*
Y445500D01*
X286314Y444847D01*
X286566Y444239D01*
X286967Y443717D01*
X287489Y443316D01*
X288097Y443064D01*
X288750Y442979D01*
X293000D01*
Y448000D01*
D02*
G37*
%LPD*%
D10*
X100250Y49250D02*
D03*
Y110250D02*
D03*
X210250Y49250D02*
D03*
Y110250D02*
D03*
D11*
X29000Y179000D02*
D03*
X15000D02*
D03*
X40000Y82000D02*
D03*
X54000D02*
D03*
D12*
X44500Y151500D02*
D03*
X29500D02*
D03*
X338000Y100000D02*
D03*
X353000D02*
D03*
X395500D02*
D03*
X410500D02*
D03*
X475500D02*
D03*
X460500D02*
D03*
X514000D02*
D03*
X529000D02*
D03*
X225000Y475500D02*
D03*
X240000D02*
D03*
X14500Y165500D02*
D03*
X29500D02*
D03*
X349500Y345500D02*
D03*
X364500D02*
D03*
X368750Y486500D02*
D03*
X383750D02*
D03*
X368750Y473500D02*
D03*
X383750D02*
D03*
X384500Y345500D02*
D03*
X399500D02*
D03*
X480000Y456000D02*
D03*
X465000D02*
D03*
X431250Y400500D02*
D03*
X446250D02*
D03*
X462000Y442000D02*
D03*
X477000D02*
D03*
X431750Y455000D02*
D03*
X446750D02*
D03*
X587500Y420750D02*
D03*
X602500D02*
D03*
X195500Y441000D02*
D03*
X210500D02*
D03*
D13*
X40500Y381500D02*
D03*
Y405500D02*
D03*
D14*
X89000Y214250D02*
D03*
X69000D02*
D03*
Y256750D02*
D03*
X89000D02*
D03*
X339000Y116000D02*
D03*
X359000D02*
D03*
X389500D02*
D03*
X409500D02*
D03*
X461000D02*
D03*
X481000D02*
D03*
X508500Y115750D02*
D03*
X528500D02*
D03*
X484500Y472250D02*
D03*
X464500D02*
D03*
X99500Y391000D02*
D03*
X79500D02*
D03*
X99500Y412000D02*
D03*
X79500D02*
D03*
D15*
X171250Y276250D02*
D03*
Y210250D02*
D03*
X300500Y172000D02*
D03*
Y238000D02*
D03*
X450917Y172000D02*
D03*
Y238000D02*
D03*
X579750Y210250D02*
D03*
Y276250D02*
D03*
D16*
X272000Y307000D02*
D03*
X342000D02*
D03*
X478000Y307000D02*
D03*
X408000D02*
D03*
D17*
X215000Y326500D02*
D03*
Y396500D02*
D03*
X541000Y325500D02*
D03*
Y395500D02*
D03*
D18*
X323500Y117250D02*
D03*
Y99750D02*
D03*
X426000Y117000D02*
D03*
Y99500D02*
D03*
X446000Y117250D02*
D03*
Y99750D02*
D03*
X543500Y117000D02*
D03*
Y99500D02*
D03*
D19*
X107750Y353000D02*
D03*
Y348000D02*
D03*
X79750D02*
D03*
Y358000D02*
D03*
Y363000D02*
D03*
Y353000D02*
D03*
X107750Y358000D02*
D03*
Y363000D02*
D03*
D20*
X101250Y341500D02*
D03*
X96250D02*
D03*
X91250D02*
D03*
X86250D02*
D03*
Y369500D02*
D03*
X91250D02*
D03*
X101250D02*
D03*
X96250D02*
D03*
D21*
X93750Y355500D02*
D03*
D22*
X250500Y441000D02*
D03*
Y460000D02*
D03*
X224500Y450500D02*
D03*
Y441000D02*
D03*
Y460000D02*
D03*
D23*
X251500Y475500D02*
D03*
Y490500D02*
D03*
X263500Y456000D02*
D03*
Y441000D02*
D03*
X286250Y418500D02*
D03*
Y403500D02*
D03*
X311500Y429500D02*
D03*
Y444500D02*
D03*
X299250Y418500D02*
D03*
Y403500D02*
D03*
X271000Y408250D02*
D03*
Y393250D02*
D03*
X312500Y384000D02*
D03*
Y369000D02*
D03*
X368000Y280500D02*
D03*
Y265500D02*
D03*
X383000D02*
D03*
Y280500D02*
D03*
X433250Y369000D02*
D03*
Y384000D02*
D03*
X494250Y393250D02*
D03*
Y408250D02*
D03*
X462500Y430500D02*
D03*
Y415500D02*
D03*
X432750Y443500D02*
D03*
Y428500D02*
D03*
X135000Y338500D02*
D03*
Y353500D02*
D03*
X121750Y346250D02*
D03*
Y331250D02*
D03*
X179500Y465000D02*
D03*
Y480000D02*
D03*
D24*
X28500Y82000D02*
D03*
X15500D02*
D03*
X42500Y165500D02*
D03*
X55500D02*
D03*
X57500Y151500D02*
D03*
X70500D02*
D03*
X109000Y325500D02*
D03*
X96000D02*
D03*
X86000D02*
D03*
X73000D02*
D03*
X289500Y463500D02*
D03*
X276500D02*
D03*
X435500Y472500D02*
D03*
X422500D02*
D03*
X475750Y400750D02*
D03*
X462750D02*
D03*
X539500Y432750D02*
D03*
X552500D02*
D03*
Y476250D02*
D03*
X539500D02*
D03*
X552500Y462500D02*
D03*
X539500D02*
D03*
X552500Y446500D02*
D03*
X539500D02*
D03*
D25*
X525500Y167000D02*
D03*
X555500D02*
D03*
X196000Y167500D02*
D03*
X226000D02*
D03*
D26*
X16900Y135050D02*
D03*
Y122350D02*
D03*
Y109650D02*
D03*
Y96950D02*
D03*
X72100D02*
D03*
Y109650D02*
D03*
Y122350D02*
D03*
Y135050D02*
D03*
X627600Y435200D02*
D03*
Y447900D02*
D03*
Y460600D02*
D03*
Y473300D02*
D03*
X572400D02*
D03*
Y460600D02*
D03*
Y447900D02*
D03*
Y435200D02*
D03*
D27*
X374500Y404000D02*
D03*
D28*
X402000Y363000D02*
D03*
X397000D02*
D03*
X392000D02*
D03*
X387000D02*
D03*
X382000D02*
D03*
X377000D02*
D03*
X372000D02*
D03*
X367000D02*
D03*
X362000D02*
D03*
X357000D02*
D03*
X352000D02*
D03*
X347000D02*
D03*
Y445000D02*
D03*
X352000D02*
D03*
X357000D02*
D03*
X362000D02*
D03*
X367000D02*
D03*
X372000D02*
D03*
X377000D02*
D03*
X382000D02*
D03*
X387000D02*
D03*
X392000D02*
D03*
X397000D02*
D03*
X402000D02*
D03*
D29*
X333500Y376500D02*
D03*
Y381500D02*
D03*
Y386500D02*
D03*
Y391500D02*
D03*
Y396500D02*
D03*
Y401500D02*
D03*
Y406500D02*
D03*
Y411500D02*
D03*
Y416500D02*
D03*
Y421500D02*
D03*
Y426500D02*
D03*
Y431500D02*
D03*
X415500D02*
D03*
Y426500D02*
D03*
Y421500D02*
D03*
Y416500D02*
D03*
Y411500D02*
D03*
Y406500D02*
D03*
Y401500D02*
D03*
Y396500D02*
D03*
Y391500D02*
D03*
Y386500D02*
D03*
Y381500D02*
D03*
Y376500D02*
D03*
D30*
X147500Y388000D02*
D03*
Y368000D02*
D03*
X295500Y430500D02*
D03*
Y450500D02*
D03*
X125500Y388000D02*
D03*
Y368000D02*
D03*
D31*
X342500Y475000D02*
D03*
Y488000D02*
D03*
X314500Y475000D02*
D03*
Y488000D02*
D03*
X328500Y475000D02*
D03*
Y488000D02*
D03*
X271500Y476000D02*
D03*
Y489000D02*
D03*
X285250Y476250D02*
D03*
Y489250D02*
D03*
X356750Y475000D02*
D03*
Y488000D02*
D03*
X395750Y472500D02*
D03*
Y485500D02*
D03*
X409750D02*
D03*
Y472500D02*
D03*
X476500Y428500D02*
D03*
Y415500D02*
D03*
X446000Y441500D02*
D03*
Y428500D02*
D03*
X206500Y479000D02*
D03*
Y466000D02*
D03*
X193000D02*
D03*
Y479000D02*
D03*
D32*
X496750Y471750D02*
D03*
X492750D02*
D03*
D33*
X503500Y479500D02*
X530500D01*
X500500Y476500D02*
X503500Y479500D01*
X500500Y466000D02*
X506500Y460000D01*
X382000Y345250D02*
Y363000D01*
X387000Y342750D02*
Y363000D01*
X134750Y353500D02*
X136250Y355000D01*
X86250Y378750D02*
X88090D01*
X134250Y353000D02*
X134750Y353500D01*
X133750Y352500D02*
X134250Y353000D01*
X101250Y369500D02*
X113500D01*
X345375Y404000D02*
X374500D01*
X342875Y406500D02*
X345375Y404000D01*
X333500Y406500D02*
X342875D01*
X402500Y404000D02*
X404500Y406000D01*
X374500Y404000D02*
X402500D01*
X352000Y353852D02*
Y363000D01*
X101639Y332750D02*
X102250D01*
X91250Y336750D02*
X94250Y333750D01*
X91250Y336750D02*
Y341500D01*
X86250Y326750D02*
Y341500D01*
X301000Y459500D02*
X312500D01*
X297000Y463500D02*
X301000Y459500D01*
X291500Y463500D02*
X297000D01*
X325038Y426500D02*
X333500D01*
X321500Y430038D02*
X325038Y426500D01*
X384000Y474500D02*
X384000Y474500D01*
X382500Y471000D02*
X383250Y472750D01*
X382000Y463500D02*
X384000Y465500D01*
X328500Y475000D02*
Y475500D01*
X312500Y459500D02*
X328500Y443500D01*
X402000Y353852D02*
Y362998D01*
X399500Y351352D02*
X402000Y353852D01*
X397000Y353852D02*
X399500Y351352D01*
X349500D02*
X352000Y353852D01*
X347000Y353852D02*
X349500Y351352D01*
X347000Y353852D02*
Y363000D01*
X293250Y396500D02*
X333500D01*
X286250Y403500D02*
X293250Y396500D01*
X286250Y403500D02*
Y404000D01*
X302250Y401500D02*
X333500D01*
X328500Y475750D02*
Y477250D01*
X308999Y417999D02*
Y418999D01*
X308999Y419000D02*
X308999Y418999D01*
X342875Y406500D02*
X344795Y408420D01*
X88090Y378750D02*
X91250Y375590D01*
Y369500D02*
Y375590D01*
X132750Y351500D02*
X133750Y352500D01*
X146000Y351500D02*
X148000Y353500D01*
X121750Y331250D02*
X123500Y329500D01*
X96250Y370500D02*
Y379250D01*
X437080Y495000D02*
X547500D01*
X464100Y430600D02*
X464500Y430500D01*
X462618Y430971D02*
X464100Y430600D01*
X462500Y431000D02*
X462618Y430971D01*
X464300Y430800D02*
X464500Y431000D01*
X464100Y430600D02*
X464300Y430800D01*
X464000Y430500D02*
X464100Y430600D01*
X464000Y430500D02*
X464500D01*
X453500Y421500D02*
X461500Y429500D01*
X415500Y421500D02*
X453500D01*
X402000Y445000D02*
X405500D01*
X289750Y299250D02*
Y302750D01*
X286500Y237000D02*
X299500D01*
X411250Y114250D02*
X411250Y114250D01*
X136500Y354250D02*
Y355000D01*
X364749Y342482D02*
X364750Y342483D01*
X551750Y461000D02*
X551850Y460900D01*
X413900Y537700D02*
X426000Y525600D01*
X326500Y369000D02*
X332500Y363000D01*
X426000Y506079D02*
Y525600D01*
Y506079D02*
X437080Y495000D01*
X288750Y300250D02*
X289750Y299250D01*
X364750Y342483D02*
Y342500D01*
X433250Y369000D02*
X436250D01*
X278500Y300250D02*
X288750D01*
X538750Y434000D02*
X539500Y433250D01*
X572400Y435200D02*
X574870D01*
X552000Y447500D02*
X552700Y448200D01*
X541500Y449000D02*
X547000Y454500D01*
X574870Y425630D02*
X579750Y420750D01*
X415500Y401500D02*
X431250D01*
X416000Y416500D02*
X432500D01*
X415500Y411500D02*
X426500D01*
X349500Y344000D02*
Y345500D01*
X401000Y508000D02*
X408500Y500500D01*
X419500D01*
X434000Y486000D01*
X382000Y445000D02*
X382000Y463500D01*
X397000Y445000D02*
Y454000D01*
X400000Y457000D01*
X392000Y445000D02*
Y456000D01*
X399500Y463500D01*
X547500Y495000D02*
X562000Y480500D01*
X415500Y376500D02*
X440500D01*
X126000Y368000D02*
X126250D01*
X136250Y355000D02*
X136500D01*
X348750Y343250D02*
X349500Y344000D01*
X362000Y348000D02*
Y363000D01*
X367000Y348000D02*
Y363000D01*
X316000Y386500D02*
X331000D01*
X314000Y381500D02*
X329000D01*
X414500Y386500D02*
X415500D01*
X429500D01*
X414500Y381500D02*
X415500D01*
X429500D01*
X207250Y43250D02*
X207500Y43500D01*
X190500Y479000D02*
X191000D01*
X250270Y426230D02*
X250500Y426000D01*
X185500Y426500D02*
X185770Y426230D01*
X250270D01*
X579750Y420750D02*
X587000D01*
X434000Y486000D02*
X536000D01*
X539500Y482500D01*
Y446500D02*
Y462500D01*
Y476250D01*
Y482500D01*
X547000Y454500D02*
X583500D01*
X587000Y451000D01*
X374500Y525000D02*
X393500D01*
X401000Y517500D01*
Y508000D02*
Y517500D01*
X368000Y280500D02*
Y315500D01*
X372000Y319500D01*
Y363000D01*
X377000Y319500D02*
Y363000D01*
Y319500D02*
X382000Y314500D01*
X426500Y411500D02*
X429500Y408500D01*
X387000Y445000D02*
Y459500D01*
X395375Y467875D01*
X400000Y457000D02*
X402500D01*
X409500Y464000D01*
X562000Y480500D02*
X581500D01*
X581900Y460900D02*
X584000Y463000D01*
Y478000D01*
X581500Y480500D02*
X584000Y478000D01*
X415500Y431500D02*
X423000D01*
X413900Y512300D02*
X435858Y490342D01*
X438626D01*
X439000Y490500D02*
X546000D01*
X552900Y483600D01*
X321500Y430038D02*
Y441500D01*
X323500Y421500D02*
X333500D01*
X317500Y427500D02*
X323500Y421500D01*
X335000Y443500D02*
X344795Y433705D01*
X335000Y443500D02*
Y444500D01*
X312000Y427500D02*
X317500D01*
X372000Y445000D02*
Y459000D01*
X367000Y445000D02*
Y454911D01*
X350500Y468500D02*
X353411D01*
X367000Y454911D01*
X309000Y408000D02*
X317000D01*
X323500Y406500D02*
X333500D01*
X322000Y408000D02*
X323500Y406500D01*
X317000Y408000D02*
X322000D01*
X357750Y470250D02*
X362500Y465500D01*
X365500D01*
X383780Y473987D02*
X384000Y474500D01*
X383780Y473987D02*
X384000Y474500D01*
X429500Y408500D02*
X455000D01*
X462750Y400750D01*
X86000Y326500D02*
X86250Y326750D01*
X64730Y348000D02*
X79750D01*
X109000Y326000D02*
Y337000D01*
X56500Y317000D02*
X57750Y318250D01*
X135000Y337500D02*
Y338500D01*
X109000Y337000D02*
X111000Y339000D01*
X204750Y43250D02*
X207250D01*
X251500Y441000D02*
X251500Y441000D01*
X409500Y473000D02*
Y473500D01*
X368750Y472750D02*
X377000Y464500D01*
Y445000D02*
Y464500D01*
X368750Y472750D02*
Y473500D01*
Y485000D01*
X402000Y362998D02*
Y363000D01*
X397000Y353852D02*
Y363000D01*
X494500Y408500D02*
X503500D01*
X415500Y391500D02*
X492500D01*
X494000Y393000D01*
X423000Y431500D02*
X429875Y438375D01*
Y440625D01*
X432750Y443500D01*
X433750Y444500D01*
X461500Y430500D02*
X464000D01*
X462000Y428500D02*
X463250Y429750D01*
X464000Y430500D01*
X288000Y463500D02*
X291500D01*
X328500Y431500D02*
Y443500D01*
X415500Y426500D02*
X433500D01*
X434625Y427625D01*
X444125D02*
X446750Y430250D01*
X299750Y404000D02*
X302250Y401500D01*
X552900Y473600D02*
Y483600D01*
Y473600D02*
X574870D01*
X107750Y348000D02*
X122500D01*
X124000Y346500D01*
X382000Y280500D02*
Y314500D01*
X551850Y460900D02*
X581900D01*
X270000Y391500D02*
X333500D01*
X552000Y433750D02*
Y447500D01*
X552700Y448200D02*
X574870D01*
X477500Y441500D02*
X479000Y443000D01*
X342000Y477000D02*
X350500Y468500D01*
X357750Y470250D02*
Y475000D01*
X365500Y465500D02*
X372000Y459000D01*
X433750Y443500D02*
Y444500D01*
X555500Y548500D02*
X566300Y537700D01*
X574870Y425630D02*
Y435200D01*
Y435500D01*
X587000Y420750D02*
Y451000D01*
X96250Y334000D02*
Y341500D01*
Y334000D02*
X96500Y333750D01*
X94250D02*
X96500D01*
X100639D01*
X101250Y333139D02*
Y341500D01*
X100639Y333750D02*
X101250Y333139D01*
X101639Y332750D01*
X80499Y369500D02*
X86250D01*
X78500Y371499D02*
X80499Y369500D01*
X86250D02*
Y378750D01*
X395375Y467875D02*
Y472875D01*
X395750Y473250D01*
X409500Y464000D02*
Y473000D01*
X422750D01*
X344795Y408420D02*
Y433705D01*
X383250Y472750D02*
Y474000D01*
Y472750D02*
X383599Y473565D01*
X384000Y465500D02*
Y474500D01*
X383599Y473565D02*
X383780Y473987D01*
X383599Y473565D02*
X383780Y473987D01*
X446250Y399500D02*
X446750D01*
X409250Y485500D02*
Y486500D01*
D34*
X500500Y466000D02*
Y471500D01*
X85500Y426500D02*
X85500D01*
X300500Y243000D02*
X302000Y241500D01*
X357000Y336500D02*
Y363000D01*
X392000Y339500D02*
Y363000D01*
X303000Y376500D02*
X333500D01*
X339500D01*
X72500Y326500D02*
Y336000D01*
X111000Y339000D02*
X128889D01*
X263500Y441000D02*
X265000D01*
X251500D02*
X263500D01*
X332500Y363000D02*
X347000D01*
X351500D01*
X86000Y326000D02*
X96000D01*
X185000Y441500D02*
X197000D01*
X128889Y339000D02*
X135000D01*
X398250Y362998D02*
X402000D01*
X413997D01*
X500500Y471500D02*
Y476500D01*
D35*
X541000Y411500D02*
X556500D01*
X541000Y395000D02*
X556500D01*
X541000Y379500D02*
X556500D01*
X408000Y293000D02*
Y308500D01*
X424000Y292500D02*
Y308000D01*
X392000Y291500D02*
Y307000D01*
X342000Y291500D02*
Y302000D01*
X199500Y412500D02*
X215000D01*
X201500Y380500D02*
X217000D01*
X126250Y368000D02*
X147500D01*
X79500Y390500D02*
Y391000D01*
Y389500D02*
Y390500D01*
X96500Y446000D02*
Y494500D01*
X200500Y396500D02*
X214500D01*
X326000Y291500D02*
Y302000D01*
X358000Y291500D02*
Y302000D01*
X214500Y397000D02*
X215000Y396500D01*
X63900Y444600D02*
X79500Y429000D01*
X15500Y444600D02*
X16000D01*
X63900D01*
X79500Y391000D02*
Y420500D01*
Y429000D01*
X96500Y446000D01*
X89000Y214250D02*
X108250D01*
X89000Y256750D02*
X107750D01*
D36*
X216000Y395500D02*
X216500Y396000D01*
X211667Y401333D02*
X215750Y397250D01*
X210167Y390167D02*
X216500Y396500D01*
X364750Y342500D02*
Y345500D01*
X126000Y359500D02*
Y368000D01*
X40500Y380500D02*
X53500D01*
X113500Y369500D02*
X115000Y368000D01*
X29500Y143000D02*
Y152500D01*
Y165500D02*
X42500D01*
X44500Y151500D02*
X57500D01*
X14500Y165500D02*
X15000Y166000D01*
X29000D02*
X29500Y165500D01*
X29500Y165500D02*
X29500Y165500D01*
X29500Y151500D02*
Y165500D01*
X14500Y135500D02*
Y165500D01*
X29500Y143000D02*
X29500Y143000D01*
X16900Y135050D02*
X29450D01*
X29350Y122350D02*
X29500Y122500D01*
X16900Y122350D02*
X29350D01*
X86650Y96950D02*
X99350Y109650D01*
X72100Y96950D02*
X86650D01*
X72100Y109650D02*
X99350D01*
X28500Y82000D02*
X28500Y82000D01*
X125500Y368000D02*
X126000D01*
X147500D02*
X147500Y368000D01*
X115000Y368000D02*
X125500D01*
X43500Y406500D02*
X46000Y404000D01*
X79500Y391000D02*
X80000D01*
X462500Y415500D02*
X476500D01*
X432500D02*
X462500D01*
X96500Y494500D02*
Y525100D01*
X109100Y537700D01*
X83700D02*
X96400Y525000D01*
X278500Y163000D02*
X286500Y171000D01*
X524000Y174750D02*
X524750Y175500D01*
X526000Y176750D01*
X525500Y159750D02*
X526000Y159250D01*
X523750Y161500D02*
X525500Y159750D01*
X215000Y396500D02*
X216500D01*
X213000Y441000D02*
X224500D01*
X218000Y460000D02*
X224500D01*
X210500Y452500D02*
X218000Y460000D01*
X476500Y415500D02*
X483500D01*
X487500Y419500D01*
X16900Y109650D02*
X30650D01*
X96000Y110950D02*
X98050D01*
X210500Y441000D02*
Y452500D01*
X484500Y451050D02*
X487500Y448050D01*
Y419500D02*
Y448050D01*
X484500Y451050D02*
Y472250D01*
X37024Y116024D02*
Y127476D01*
X30650Y109650D02*
X37024Y116024D01*
X29450Y135050D02*
X37024Y127476D01*
X224500Y460500D02*
Y475500D01*
D37*
X384750Y323750D02*
Y345500D01*
X70250Y363750D02*
X71000Y363000D01*
X46000Y404000D02*
X52500D01*
X65500Y391000D01*
X79500D01*
X53500Y380500D02*
X63500Y370500D01*
X433320Y359680D02*
Y368594D01*
X312359Y358859D02*
Y368500D01*
X353500Y307000D02*
Y312000D01*
X364500Y323000D01*
Y342500D01*
X384750Y323750D02*
X401497Y307003D01*
X406750D01*
X319500Y345500D02*
X349500D01*
X399500D02*
X429500D01*
X63500Y370500D02*
X70250Y363750D01*
X63500Y360000D02*
Y370500D01*
X433250Y368820D02*
X433820D01*
D38*
X147497Y367718D02*
X148000Y367713D01*
X147496Y367718D02*
X147497Y367718D01*
D39*
X125512Y367922D02*
X126000Y368000D01*
X125499Y367920D02*
X125512Y367922D01*
X68750Y283999D02*
X90500D01*
X68750Y272000D02*
X90500D01*
X68750Y229500D02*
X90500D01*
X68750D02*
Y272000D01*
X72000Y125500D02*
Y183000D01*
X68750Y186250D02*
Y229500D01*
X79555Y309524D02*
X130524D01*
X68750Y283999D02*
Y298719D01*
X79555Y309524D01*
X98050Y110950D02*
X99350Y109650D01*
X68750Y186250D02*
X72000Y183000D01*
X148000Y327000D02*
Y353500D01*
Y367713D01*
X229500Y176000D02*
X281500D01*
X68750Y272000D02*
Y283999D01*
X273000Y307000D02*
X281000D01*
X281500Y176000D02*
X286500Y171000D01*
X278500Y307500D02*
X317000Y346000D01*
X525500Y159750D02*
Y167000D01*
X555500D02*
Y208500D01*
Y149000D02*
Y167000D01*
X458750Y41250D02*
X481000Y63500D01*
X280500Y327000D02*
X312359Y358859D01*
X349500Y330000D02*
X350500D01*
X353000Y332500D01*
X398500Y333500D02*
X401500Y330500D01*
X433320Y359680D02*
X466500Y326500D01*
X389500Y60500D02*
X408750Y41250D01*
X352000Y129500D02*
X359000Y122500D01*
X365500Y146000D02*
X389500Y122000D01*
X481000Y116000D02*
Y124000D01*
X508750Y123750D02*
X515500Y130500D01*
X537000D01*
X555500Y149000D01*
X525500Y153000D02*
Y159750D01*
X481000Y124000D02*
X504500Y147500D01*
X520000D01*
X525500Y153000D01*
X282000Y68000D02*
X308750Y41250D01*
X231500Y68000D02*
X282000D01*
X226000Y154000D02*
Y167500D01*
Y154000D02*
X234000Y146000D01*
X365500D01*
X196000Y154000D02*
X220500Y129500D01*
X352000D01*
X389500Y60500D02*
Y122000D01*
X196000Y154000D02*
Y209500D01*
X359000Y42000D02*
Y122500D01*
X508750Y41250D02*
Y123750D01*
X481000Y63500D02*
Y116000D01*
X449500Y175500D02*
X524750D01*
X69250Y241500D02*
X79500D01*
X90500D01*
X99350Y109650D02*
X100250Y108750D01*
X429500Y345500D02*
X433500D01*
X472500Y306500D01*
X476750D01*
X130524Y309524D02*
X148000Y327000D01*
X199500D02*
X280500D01*
X466500Y326500D02*
X556500D01*
D40*
X135000Y353500D02*
X146000D01*
X134750D02*
X135000D01*
X133750D02*
X134750D01*
X15000Y166000D02*
Y179000D01*
X29000Y166000D02*
Y179000D01*
X28500Y82000D02*
Y95000D01*
X26550Y96950D02*
X28500Y95000D01*
X16900Y96950D02*
X26550D01*
X28500Y82000D02*
X40000D01*
X54000D02*
Y86000D01*
X30650Y109350D02*
X54000Y86000D01*
X356500Y490250D02*
Y496000D01*
X79500Y420500D02*
X85500Y426500D01*
X135000Y330000D02*
Y337500D01*
Y329500D02*
Y330000D01*
X132750Y352500D02*
X133750D01*
X384000Y474500D02*
Y484750D01*
X392000Y339500D02*
X398000Y333500D01*
X353000Y332500D02*
X357000Y336500D01*
X432250Y444500D02*
Y453500D01*
X193000Y479000D02*
X204000D01*
X477000Y429500D02*
Y441500D01*
X312000Y442500D02*
Y443000D01*
X295500Y451000D02*
X298000Y453500D01*
X285500Y440500D02*
X295500D01*
X298500Y453000D02*
X306000D01*
X309500D01*
X311500Y451000D01*
Y444500D02*
Y451000D01*
X295250Y430500D02*
X295500D01*
X299250Y418500D02*
X308999D01*
X123500Y330000D02*
X135000D01*
X30650Y109350D02*
Y109650D01*
X184000Y457000D02*
X203000D01*
X206500Y460500D01*
Y466000D02*
X209000D01*
X193000Y488500D02*
X198000Y493500D01*
X433625Y427625D02*
X434625D01*
X443125D01*
X446750Y399500D02*
X454500D01*
X462500Y431000D02*
Y442500D01*
X262500Y408500D02*
X271250D01*
X283500Y442500D02*
X285500Y440500D01*
X283500Y442500D02*
Y450500D01*
X191000Y479000D02*
X193000D01*
Y488500D01*
X206500Y460500D02*
Y466000D01*
X209000D02*
X216500Y473500D01*
Y481500D01*
X276500Y418500D02*
X286250D01*
X299250D01*
X161100Y434100D02*
X184000Y457000D01*
X309000Y446000D02*
X312000Y443000D01*
X298000Y453500D02*
X298500Y453000D01*
X295500Y429500D02*
X309000D01*
Y430500D02*
X312000Y427500D01*
X475750Y400500D02*
X484500D01*
D41*
X323500Y100000D02*
X338000D01*
X411250Y99250D02*
X426000D01*
X529000Y99500D02*
X543500D01*
X430500Y239500D02*
X436000Y234000D01*
X251500Y475500D02*
Y476000D01*
X252000D02*
Y476500D01*
X79500Y379750D02*
Y389500D01*
X78500D02*
X79500Y390500D01*
X77500Y388500D02*
X78500Y389500D01*
X79500D01*
X252000Y476000D02*
X261500D01*
X88500Y214250D02*
X89000D01*
X462555Y430994D02*
X462555D01*
X462500Y431000D02*
X462555Y430994D01*
X446750Y441750D02*
Y454000D01*
X302000Y238250D02*
X333750D01*
X312500Y369000D02*
X326500D01*
X96400Y525000D02*
X96500Y525100D01*
X300750Y238250D02*
X302000D01*
X429250Y240750D02*
X430500Y239500D01*
X298500Y372000D02*
X303000Y376500D01*
X440500D02*
X447000Y370000D01*
X349500Y344000D02*
Y345500D01*
Y351352D01*
X399500Y345500D02*
Y351352D01*
X413997Y362998D02*
X419820Y368820D01*
X340750Y238250D02*
Y245750D01*
X360500Y265500D01*
X390000D02*
X416750Y238750D01*
X429250D01*
X324000Y117250D02*
X338500D01*
X446500Y100000D02*
X460500D01*
X461000D01*
X531000Y117000D02*
X543000D01*
X360500Y265500D02*
X367000D01*
X383000D02*
X390000D01*
X88500Y256750D02*
X89000D01*
X286500Y430500D02*
X295250D01*
X276500Y440500D02*
X286500Y430500D01*
X274500Y447750D02*
Y454250D01*
X266500Y465500D02*
X274500D01*
X276500Y463500D01*
X179500Y465000D02*
X180500Y466000D01*
X173900Y459400D02*
X179500Y465000D01*
X174700Y484800D02*
X179500Y480000D01*
X485000Y472250D02*
X485500Y471750D01*
X437000Y472500D02*
X449000D01*
X465000Y456000D02*
Y471750D01*
X449000Y472500D02*
X463750D01*
X485500Y471750D02*
X491750D01*
X492250D01*
X462555Y430994D02*
X464300Y430800D01*
X274500Y447750D02*
X276500Y445750D01*
Y440500D02*
Y445750D01*
X274500Y454250D02*
X276500Y456250D01*
Y461500D01*
X261500Y476500D02*
X261500Y476500D01*
X262000Y470000D02*
X266500Y465500D01*
X180500Y466000D02*
X193000D01*
X161150Y459400D02*
X173900D01*
X134000Y483050D02*
X137500D01*
X79500Y390500D02*
X80000Y391000D01*
X132500Y434100D02*
X136500D01*
X158500Y484800D02*
X174700D01*
X419820Y368820D02*
X433250D01*
X251500Y460000D02*
Y475500D01*
X262000Y470000D02*
Y476000D01*
Y476500D01*
X261500D02*
X262000D01*
Y476000D02*
X285750D01*
D42*
X99350Y109650D02*
X99650D01*
X100250Y110250D01*
X345500Y326000D02*
X349500Y330000D01*
X317500Y326000D02*
X345500D01*
X310000Y318500D02*
X317500Y326000D01*
X432201D02*
X440000Y318201D01*
Y237000D02*
X443000Y234000D01*
X183000Y350500D02*
X195500Y363000D01*
X183000Y279250D02*
Y350500D01*
X178500Y274750D02*
X183000Y279250D01*
X310000Y240500D02*
Y318500D01*
X577000Y280750D02*
Y344500D01*
X559000Y362500D02*
X577000Y344500D01*
X406000Y326000D02*
X432201D01*
X401500Y330500D02*
X406000Y326000D01*
X100500Y51000D02*
Y108750D01*
X440000Y237000D02*
Y318201D01*
X454500Y362500D02*
X559000D01*
X572500Y276250D02*
X577000Y280750D01*
X195500Y363000D02*
X289500D01*
X128500Y23000D02*
X240500D01*
X258750Y41250D01*
X100500Y51000D02*
X128500Y23000D01*
D43*
X107750Y353000D02*
X134250D01*
X328500Y470500D02*
Y475000D01*
X314500Y463500D02*
X327500Y450500D01*
X288750Y489250D02*
X294250D01*
X316500Y467500D02*
X328500Y455500D01*
X343500Y465500D02*
X344920Y464080D01*
X303500Y463500D02*
X314500D01*
X305500Y467500D02*
X316500D01*
X328500Y470500D02*
X333500Y465500D01*
X343500D01*
X352000Y445000D02*
Y452771D01*
X349271Y455500D02*
X352000Y452771D01*
X328500Y455500D02*
X349271D01*
X357000Y449500D02*
Y453484D01*
X350984Y459500D02*
X357000Y453484D01*
X331213Y459500D02*
X350984D01*
X362000Y445000D02*
Y454198D01*
X352118Y464080D02*
X362000Y454198D01*
X344920Y464080D02*
X352118D01*
X294250Y489250D02*
X297500Y486000D01*
Y475500D02*
X305500Y467500D01*
X297500Y475500D02*
Y486000D01*
X293500Y473500D02*
X303500Y463500D01*
X293500Y473500D02*
Y480889D01*
X291389Y483000D02*
X293500Y480889D01*
X279000Y483000D02*
X291389D01*
X327500Y450500D02*
X347000D01*
X272000Y490000D02*
X279000Y483000D01*
X284250Y489750D02*
X287250D01*
X314857Y475857D02*
X331213Y459500D01*
D44*
X109100Y512300D02*
X123750Y526950D01*
X134500Y512300D02*
X145270Y523070D01*
X249000Y509500D02*
X257500Y501000D01*
X306000Y483500D02*
X306750Y482750D01*
X306882D01*
X308132Y481500D01*
X321500D01*
X266500Y523500D02*
X272500Y517500D01*
Y501500D02*
Y517500D01*
Y501500D02*
X284250Y489750D01*
X257500Y501000D02*
X267500D01*
X272000Y496500D01*
Y490000D02*
Y496500D01*
X298000Y504500D02*
Y517000D01*
Y504500D02*
X306000Y496500D01*
Y483500D02*
Y496500D01*
X291500Y523500D02*
X298000Y517000D01*
X272500Y531500D02*
Y541820D01*
Y531500D02*
X280500Y523500D01*
X291500D01*
X145270Y523070D02*
X241930D01*
X249000Y516000D01*
Y509500D02*
Y516000D01*
X123750Y526950D02*
X243550D01*
X247000Y523500D01*
X266500D01*
X102250Y318500D02*
Y332750D01*
X210700Y537700D02*
X225000Y552000D01*
X262320D01*
X272500Y541820D01*
X321500Y481500D02*
X328500Y488500D01*
D45*
X302000Y238250D02*
Y241500D01*
X289500Y363000D02*
X298500Y372000D01*
X447000Y370000D02*
X454500Y362500D01*
X302000Y237000D02*
Y238250D01*
X430500Y238000D02*
Y239500D01*
D46*
X216500Y384000D02*
X312500D01*
X433250D02*
X538500D01*
D47*
X342500Y494500D02*
X352475Y504475D01*
X342500Y488000D02*
Y494500D01*
X352475Y504475D02*
Y543975D01*
X348500Y506031D02*
Y545303D01*
X338469Y496000D02*
X348500Y506031D01*
X314750Y490250D02*
Y493750D01*
X317000Y496000D01*
X338469D01*
X352475Y543975D02*
X357000Y548500D01*
X504500Y523300D02*
X515500Y512300D01*
X348500Y545303D02*
X355221Y552024D01*
X357000Y548500D02*
X495500D01*
X504500Y539500D01*
Y523300D02*
Y539500D01*
X355221Y552024D02*
X496976D01*
X502500Y546500D01*
X508000D01*
X510000Y548500D01*
X555500D01*
D48*
X459200Y456000D02*
X465000D01*
X452200Y463000D02*
X459200Y456000D01*
X405500Y445000D02*
X423500Y463000D01*
X452200D01*
D49*
X155250Y94250D02*
D03*
X566300Y512300D02*
D03*
X540900D02*
D03*
X515500D02*
D03*
X490100D02*
D03*
X464700D02*
D03*
X413900D02*
D03*
X439300D02*
D03*
X363100D02*
D03*
X388500D02*
D03*
X312300D02*
D03*
X337700D02*
D03*
X261500D02*
D03*
X286900D02*
D03*
X210700D02*
D03*
X236100D02*
D03*
X159900D02*
D03*
X185300D02*
D03*
X134500D02*
D03*
X109100D02*
D03*
X134500Y537700D02*
D03*
X83700D02*
D03*
X185300D02*
D03*
X236100D02*
D03*
X286900D02*
D03*
X337700D02*
D03*
X388500D02*
D03*
X439300D02*
D03*
X490100D02*
D03*
X540900D02*
D03*
X16000Y470000D02*
D03*
X161650Y485300D02*
D03*
Y459900D02*
D03*
X136000Y485400D02*
D03*
Y460000D02*
D03*
D50*
X155250Y49250D02*
D03*
D51*
X83700Y512300D02*
D03*
D52*
X109100Y537700D02*
D03*
X159900D02*
D03*
X210700D02*
D03*
X261500D02*
D03*
X312300D02*
D03*
X363100D02*
D03*
X413900D02*
D03*
X464700D02*
D03*
X515500D02*
D03*
X566300D02*
D03*
D53*
X16000Y444600D02*
D03*
X161650Y434500D02*
D03*
X136000Y434600D02*
D03*
D54*
X615000Y35000D02*
D03*
X35000D02*
D03*
X615000Y525000D02*
D03*
X35000D02*
D03*
D55*
X308750Y41250D02*
D03*
X408750D02*
D03*
X508750D02*
D03*
D56*
X258750D02*
D03*
X358750D02*
D03*
X458750D02*
D03*
D57*
X436000Y89000D02*
D03*
X156250Y191500D02*
D03*
X130000D02*
D03*
X594000Y230500D02*
D03*
X566500D02*
D03*
X539000D02*
D03*
Y257500D02*
D03*
X621500Y230500D02*
D03*
X565500Y257500D02*
D03*
X490500Y191000D02*
D03*
X463667D02*
D03*
X436833D02*
D03*
X410000D02*
D03*
Y219000D02*
D03*
X463667D02*
D03*
X342500Y190000D02*
D03*
X316500D02*
D03*
X289000D02*
D03*
X262500D02*
D03*
X236000D02*
D03*
X273500Y117500D02*
D03*
X244500Y117000D02*
D03*
X25500Y70500D02*
D03*
X72500Y35000D02*
D03*
X85500Y67500D02*
D03*
X84000Y178000D02*
D03*
X55000Y181000D02*
D03*
X80000Y200000D02*
D03*
X51000Y140000D02*
D03*
X44000Y108500D02*
D03*
X171000Y378000D02*
D03*
Y389500D02*
D03*
X346500Y89000D02*
D03*
X402500D02*
D03*
X468000D02*
D03*
X570000Y107500D02*
D03*
X158375Y257500D02*
D03*
X210125D02*
D03*
X316000Y217500D02*
D03*
X262667D02*
D03*
X236000D02*
D03*
X509000Y161500D02*
D03*
X242500D02*
D03*
X132500Y257500D02*
D03*
X236000D02*
D03*
X184250D02*
D03*
X621500D02*
D03*
X593500D02*
D03*
X489500Y345000D02*
D03*
X473000D02*
D03*
X245000Y310500D02*
D03*
X231500D02*
D03*
X277000Y345000D02*
D03*
X261833D02*
D03*
X246667D02*
D03*
X231500D02*
D03*
X522500D02*
D03*
X523500Y309500D02*
D03*
X506000Y345000D02*
D03*
X507000Y309500D02*
D03*
X539000Y152000D02*
D03*
X540000Y191000D02*
D03*
X403000Y267500D02*
D03*
X350000Y268500D02*
D03*
X180000Y129500D02*
D03*
X204500D02*
D03*
X211000Y159500D02*
D03*
Y189500D02*
D03*
X123000Y79500D02*
D03*
X61000Y62500D02*
D03*
X94500Y128500D02*
D03*
X122500Y49500D02*
D03*
Y109500D02*
D03*
X85500Y426500D02*
D03*
Y87000D02*
D03*
X57500Y201000D02*
D03*
X426000Y129000D02*
D03*
X141000Y400000D02*
D03*
X126000D02*
D03*
X424000Y291500D02*
D03*
X256000D02*
D03*
X266667D02*
D03*
X199500Y342500D02*
D03*
Y310500D02*
D03*
X199500Y391167D02*
D03*
X556500Y379500D02*
D03*
X288000Y291500D02*
D03*
X277333D02*
D03*
X556500Y320167D02*
D03*
Y309500D02*
D03*
Y330833D02*
D03*
X484500Y400500D02*
D03*
X199500Y380500D02*
D03*
Y401833D02*
D03*
X494000Y291500D02*
D03*
X483333D02*
D03*
X472667D02*
D03*
X462000D02*
D03*
X199500Y412500D02*
D03*
X409500Y129000D02*
D03*
X446000D02*
D03*
X461000D02*
D03*
X308500Y117500D02*
D03*
Y107500D02*
D03*
X559000D02*
D03*
X570000Y117500D02*
D03*
X180000Y109000D02*
D03*
X231500Y110000D02*
D03*
X205000Y88500D02*
D03*
X180000Y47500D02*
D03*
X205000Y68000D02*
D03*
X538409Y7500D02*
D03*
X491318D02*
D03*
X444227D02*
D03*
X397136D02*
D03*
X350045D02*
D03*
X302954D02*
D03*
X255863D02*
D03*
X231500Y49500D02*
D03*
X180000Y68000D02*
D03*
X231500D02*
D03*
X231000Y88500D02*
D03*
X180000Y88500D02*
D03*
X205273Y7500D02*
D03*
X111091D02*
D03*
X158182D02*
D03*
X62500Y7500D02*
D03*
X500500Y471500D02*
D03*
X494500Y101500D02*
D03*
Y115000D02*
D03*
X374000Y101000D02*
D03*
X413333Y291500D02*
D03*
X392000D02*
D03*
X98500Y29000D02*
D03*
X57500Y229000D02*
D03*
X88000Y143000D02*
D03*
X374000Y116500D02*
D03*
X347333Y291500D02*
D03*
X336667D02*
D03*
X199500Y321167D02*
D03*
Y331833D02*
D03*
X57500Y241000D02*
D03*
X556500Y341500D02*
D03*
Y411500D02*
D03*
X111000Y411000D02*
D03*
X261500Y476000D02*
D03*
X57500Y284000D02*
D03*
Y272000D02*
D03*
X402667Y291500D02*
D03*
X111000Y400000D02*
D03*
Y388000D02*
D03*
X126000Y411000D02*
D03*
X102000Y261000D02*
D03*
Y252500D02*
D03*
X112500Y261000D02*
D03*
Y252500D02*
D03*
X113000Y209500D02*
D03*
Y218500D02*
D03*
X102500Y209500D02*
D03*
Y218500D02*
D03*
X358000Y291500D02*
D03*
X326000D02*
D03*
X556500Y400833D02*
D03*
Y390167D02*
D03*
X462500Y266000D02*
D03*
X473000D02*
D03*
X483500D02*
D03*
X494000D02*
D03*
X592000Y341000D02*
D03*
Y330500D02*
D03*
Y320000D02*
D03*
Y309500D02*
D03*
X288000Y269000D02*
D03*
X277333D02*
D03*
X256000D02*
D03*
X266667D02*
D03*
X168000Y331667D02*
D03*
Y321000D02*
D03*
Y310333D02*
D03*
Y342333D02*
D03*
X426000Y140000D02*
D03*
X409500D02*
D03*
X446000D02*
D03*
X461000D02*
D03*
X585500Y7500D02*
D03*
X297000Y107500D02*
D03*
Y117500D02*
D03*
X559000D02*
D03*
X522000Y89000D02*
D03*
X180000Y155000D02*
D03*
X182500Y191500D02*
D03*
X367500Y223500D02*
D03*
X384000Y171500D02*
D03*
X385000Y223500D02*
D03*
X367500Y171500D02*
D03*
X289333Y217500D02*
D03*
X342667D02*
D03*
X436833Y219000D02*
D03*
X490500D02*
D03*
X568000Y190500D02*
D03*
X569000Y153000D02*
D03*
X141000Y411000D02*
D03*
X156000Y400000D02*
D03*
Y411000D02*
D03*
X171000Y400000D02*
D03*
Y411000D02*
D03*
X324500Y256500D02*
D03*
X425000D02*
D03*
X375000Y309500D02*
D03*
X449000Y472500D02*
D03*
D58*
X78500Y371499D02*
D03*
X588000Y498000D02*
D03*
X72000Y526500D02*
D03*
X8000Y186500D02*
D03*
X577500Y34500D02*
D03*
X587500Y62500D02*
D03*
X6500Y143500D02*
D03*
X29500Y143000D02*
D03*
Y122500D02*
D03*
X528500Y524500D02*
D03*
X295500Y440500D02*
D03*
X321500Y442000D02*
D03*
X309000Y408000D02*
D03*
X317000Y418000D02*
D03*
X294000Y499500D02*
D03*
X356500Y496000D02*
D03*
X308999Y417999D02*
D03*
X61500Y499000D02*
D03*
X68500Y402000D02*
D03*
X250500Y426000D02*
D03*
X206500Y487500D02*
D03*
X223500Y517000D02*
D03*
X239500Y499500D02*
D03*
X240000Y486500D02*
D03*
X56500Y317000D02*
D03*
Y336000D02*
D03*
X28500Y371500D02*
D03*
X56500Y352500D02*
D03*
X125500Y448000D02*
D03*
X203000Y432500D02*
D03*
X226500D02*
D03*
X71000Y381000D02*
D03*
X97000Y430000D02*
D03*
X105500Y450000D02*
D03*
X79500Y442000D02*
D03*
X96250Y379250D02*
D03*
X132600Y299500D02*
D03*
X120450D02*
D03*
X147500Y311000D02*
D03*
X84000Y299500D02*
D03*
X96150D02*
D03*
X108300D02*
D03*
X374500Y525000D02*
D03*
X422500Y486000D02*
D03*
X529000Y501500D02*
D03*
X503000Y501000D02*
D03*
X477500D02*
D03*
X452000D02*
D03*
X148000Y498500D02*
D03*
X87500D02*
D03*
X79500Y379750D02*
D03*
X351500Y386500D02*
D03*
X363000D02*
D03*
X374500D02*
D03*
X397500D02*
D03*
X386100Y421500D02*
D03*
X374600D02*
D03*
X363100D02*
D03*
X351600D02*
D03*
X397500Y409833D02*
D03*
X386100D02*
D03*
X374600D02*
D03*
X363100D02*
D03*
X351600D02*
D03*
X397500Y398167D02*
D03*
X386100D02*
D03*
X374600D02*
D03*
X363100D02*
D03*
X351600D02*
D03*
X530500Y433000D02*
D03*
X602500Y410500D02*
D03*
X614500Y473500D02*
D03*
X615000Y461000D02*
D03*
X565000Y487000D02*
D03*
X615000Y435500D02*
D03*
X396000Y495500D02*
D03*
X409500Y494500D02*
D03*
X384000Y497000D02*
D03*
X399500Y463500D02*
D03*
X343500Y465500D02*
D03*
X283500Y450500D02*
D03*
X105500Y498500D02*
D03*
X106000Y474000D02*
D03*
X68000Y424500D02*
D03*
X86500Y474000D02*
D03*
X6500Y59000D02*
D03*
X7000Y378000D02*
D03*
Y458000D02*
D03*
Y501000D02*
D03*
Y418000D02*
D03*
X6500Y89500D02*
D03*
X397500Y421500D02*
D03*
X602500Y431500D02*
D03*
X614500Y448000D02*
D03*
X590000Y458000D02*
D03*
X238500Y450500D02*
D03*
Y460500D02*
D03*
X642500Y107273D02*
D03*
Y183818D02*
D03*
Y260364D02*
D03*
Y336909D02*
D03*
Y413455D02*
D03*
X642500Y495000D02*
D03*
X642500Y451727D02*
D03*
Y375182D02*
D03*
Y298636D02*
D03*
Y222091D02*
D03*
Y145545D02*
D03*
X642500Y62000D02*
D03*
X454500Y399500D02*
D03*
X124500Y498500D02*
D03*
X276500Y418500D02*
D03*
X262500Y408500D02*
D03*
X503500D02*
D03*
X591500Y553500D02*
D03*
X562000D02*
D03*
X229500Y393500D02*
D03*
X286500Y375500D02*
D03*
X229500D02*
D03*
X262500Y370500D02*
D03*
X503500Y370000D02*
D03*
X526500Y375000D02*
D03*
X386000Y386500D02*
D03*
X47000Y418000D02*
D03*
X28000D02*
D03*
X34500Y489000D02*
D03*
X261500Y490500D02*
D03*
X179000Y492000D02*
D03*
X451500Y524500D02*
D03*
X477000D02*
D03*
X553500Y525000D02*
D03*
X530500Y479500D02*
D03*
X526500Y392500D02*
D03*
X511000D02*
D03*
X497500Y417500D02*
D03*
Y456000D02*
D03*
X531000Y454500D02*
D03*
X562000Y427000D02*
D03*
X567500Y411500D02*
D03*
Y379500D02*
D03*
X229500Y413500D02*
D03*
X526500Y413000D02*
D03*
X458500Y375500D02*
D03*
X135000Y330000D02*
D03*
X88500Y350000D02*
D03*
Y361000D02*
D03*
X99000D02*
D03*
Y350000D02*
D03*
X420000Y448500D02*
D03*
X253000Y393000D02*
D03*
X506500Y460000D02*
D03*
X497500Y438500D02*
D03*
X409500Y438000D02*
D03*
X238500Y439500D02*
D03*
X185500Y426500D02*
D03*
X185000Y441500D02*
D03*
X149000Y448000D02*
D03*
X30000Y453500D02*
D03*
X51000D02*
D03*
X68000D02*
D03*
X30000Y435000D02*
D03*
X51000Y435500D02*
D03*
X7000Y398000D02*
D03*
X198000Y493500D02*
D03*
X87000Y450000D02*
D03*
X254000Y450500D02*
D03*
X121000Y430000D02*
D03*
X125000Y473500D02*
D03*
X369000Y497000D02*
D03*
X404500Y524500D02*
D03*
X51000Y368000D02*
D03*
X93750Y355500D02*
D03*
X304500Y477000D02*
D03*
X311500Y499500D02*
D03*
X539500Y422000D02*
D03*
X401000Y432000D02*
D03*
X374000D02*
D03*
X335000Y444500D02*
D03*
X317000Y408000D02*
D03*
X325000Y524000D02*
D03*
X169000Y472000D02*
D03*
X347500Y432000D02*
D03*
X306000Y453000D02*
D03*
X369000Y462500D02*
D03*
X72500Y336000D02*
D03*
X89500Y391000D02*
D03*
Y412000D02*
D03*
X64730Y348000D02*
D03*
X121500Y321000D02*
D03*
X265000Y417500D02*
D03*
X216500Y481500D02*
D03*
X202500Y450000D02*
D03*
X505499Y553499D02*
D03*
X198000D02*
D03*
X274000D02*
D03*
X96000D02*
D03*
X62000D02*
D03*
D59*
X90500Y284000D02*
D03*
X79500D02*
D03*
X90500Y272000D02*
D03*
X79500D02*
D03*
X90500Y241500D02*
D03*
X79500Y241500D02*
D03*
Y229500D02*
D03*
X90500D02*
D03*
M02*
