M48
;Layer_Color=9474304
;FILE_FORMAT=4:4
METRIC
;TYPE=PLATED
T1F00S00C0.3000
T2F00S00C0.4000
T3F00S00C0.5000
T4F00S00C1.0000
T5F00S00C1.5000
;TYPE=NON_PLATED
T6F00S00C1.6000
T7F00S00C1.8000
T8F00S00C2.7500
%
T01
X00006500Y00059000
Y00089500
X00006500Y00143500
X00029500Y00143000
Y00122500
X00008000Y00186500
X00056500Y00317000
Y00336000
X00072500
X00064730Y00348000
X00088500Y00350000
X00099000
X00121500Y00321000
X00135000Y00330000
X00147500Y00311000
X00132600Y00299500
X00120450
X00108300
X00096150
X00084000
X00642500Y00298636
Y00260364
Y00222091
Y00183818
Y00145545
Y00107273
X00642500Y00062000
X00587500Y00062500
X00577500Y00034500
X00642500Y00336909
Y00375182
Y00413455
Y00451727
X00614500Y00448000
X00615000Y00435500
X00602500Y00431500
Y00410500
X00567500Y00411500
X00562000Y00427000
X00539500Y00422000
X00530500Y00433000
X00531000Y00454500
X00530500Y00479500
X00529000Y00501500
X00528500Y00524500
X00553500Y00525000
X00562000Y00553500
X00591500
X00588000Y00498000
X00565000Y00487000
X00590000Y00458000
X00615000Y00461000
X00614500Y00473500
X00642500Y00495000
X00503000Y00501000
X00477500
X00477000Y00524500
X00451500
X00452000Y00501000
X00422500Y00486000
X00409500Y00494500
X00396000Y00495500
X00384000Y00497000
X00369000
X00356500Y00496000
X00343500Y00465500
X00369000Y00462500
X00399500Y00463500
X00401000Y00432000
X00397500Y00421500
X00386100Y00421500
X00374600
X00374000Y00432000
X00363100Y00421500
X00351600
Y00409833
X00363100
X00374600
X00386100
X00397500
Y00398167
X00386100
X00374600
X00363100
X00351600
X00351500Y00386500
X00363000
X00374500
X00386000
X00397500
X00409500Y00438000
X00420000Y00448500
X00454500Y00399500
X00458500Y00375500
X00503500Y00370000
X00526500Y00375000
Y00392500
X00511000
X00503500Y00408500
X00497500Y00417500
Y00438500
Y00456000
X00506500Y00460000
X00526500Y00413000
X00567500Y00379500
X00505499Y00553499
X00404500Y00524500
X00374500Y00525000
X00325000Y00524000
X00311500Y00499500
X00294000
X00304500Y00477000
X00306000Y00453000
X00295500Y00440500
X00283500Y00450500
X00254000Y00450500
X00265000Y00417500
X00262500Y00408500
X00276500Y00418500
X00308999Y00417999
X00317000Y00418000
Y00408000
X00309000
X00321500Y00442000
X00335000Y00444500
X00347500Y00432000
X00286500Y00375500
X00262500Y00370500
X00261500Y00490500
X00274000Y00553499
X00198000
X00198000Y00493500
X00206500Y00487500
X00216500Y00481500
X00240000Y00486500
X00239500Y00499500
X00223500Y00517000
X00179000Y00492000
X00169000Y00472000
X00149000Y00448000
X00125500
X00105500Y00450000
X00087000
X00079500Y00442000
X00068000Y00453500
X00051000
Y00435500
X00047000Y00418000
X00028000
X00030000Y00435000
Y00453500
X00007000Y00458000
Y00418000
Y00398000
Y00378000
X00028500Y00371500
X00051000Y00368000
X00056500Y00352500
X00093750Y00355500
X00088500Y00361000
X00099000
X00096250Y00379250
X00079500Y00379750
X00078500Y00371499
X00071000Y00381000
X00068500Y00402000
X00068000Y00424500
X00089500Y00412000
Y00391000
X00097000Y00430000
X00121000
X00125000Y00473500
X00106000Y00474000
X00086500
X00087500Y00498500
X00105500
X00124500
X00148000
X00061500Y00499000
X00034500Y00489000
X00007000Y00501000
X00072000Y00526500
X00062000Y00553499
X00096000
X00185000Y00441500
X00185500Y00426500
X00203000Y00432500
X00202500Y00450000
X00238500Y00450500
Y00460500
Y00439500
X00226500Y00432500
X00229500Y00413500
Y00393500
Y00375500
X00253000Y00393000
X00250500Y00426000
T02
X00062500Y00007500
X00072500Y00035000
X00098500Y00029000
X00111091Y00007500
X00158182
X00205273
X00205000Y00068000
Y00088500
X00180000
Y00109000
Y00129500
X00204500
X00211000Y00159500
Y00189500
X00236000Y00190000
Y00217500
Y00257500
X00210125
X00184250
X00158375
X00132500
X00112500Y00261000
Y00252500
X00102000
Y00261000
X00102500Y00218500
Y00209500
X00113000
Y00218500
X00130000Y00191500
X00156250
X00182500
X00180000Y00155000
X00242500Y00161500
X00244500Y00117000
X00231500Y00110000
X00231000Y00088500
X00231500Y00068000
Y00049500
X00180000Y00047500
Y00068000
X00123000Y00079500
X00122500Y00049500
X00085500Y00067500
Y00087000
X00061000Y00062500
X00025500Y00070500
X00044000Y00108500
X00051000Y00140000
X00088000Y00143000
X00094500Y00128500
X00122500Y00109500
X00084000Y00178000
X00080000Y00200000
X00057500Y00201000
X00055000Y00181000
X00057500Y00229000
Y00241000
Y00272000
Y00284000
X00168000Y00310333
Y00321000
Y00331667
Y00342333
X00199500Y00342500
Y00331833
Y00321167
Y00310500
X00231500
X00245000
X00246667Y00345000
X00231500
X00261833
X00277000
X00277333Y00291500
X00266667
X00256000
Y00269000
X00266667
X00277333
X00288000
Y00291500
X00326000
X00336667
X00347333
X00358000
X00350000Y00268500
X00324500Y00256500
X00316000Y00217500
X00289333
X00262667
X00262500Y00190000
X00289000
X00316500
X00342500
X00342667Y00217500
X00367500Y00223500
X00385000
X00410000Y00219000
X00436833
X00463667
X00490500
Y00191000
X00463667
X00436833
X00410000
X00384000Y00171500
X00367500
X00374000Y00116500
Y00101000
X00346500Y00089000
X00402500
X00436000
X00468000
X00494500Y00101500
Y00115000
X00461000Y00129000
Y00140000
X00446000
Y00129000
X00426000
Y00140000
X00409500
Y00129000
X00308500Y00117500
Y00107500
X00297000
Y00117500
X00273500
X00255863Y00007500
X00302954
X00350045
X00397136
X00444227
X00491318
X00538409
X00585500Y00007500
X00570000Y00107500
Y00117500
X00559000
Y00107500
X00522000Y00089000
X00539000Y00152000
X00569000Y00153000
X00568000Y00190500
X00540000Y00191000
X00539000Y00230500
Y00257500
X00565500
X00566500Y00230500
X00594000
X00621500
Y00257500
X00593500
X00592000Y00309500
Y00320000
Y00330500
Y00341000
X00556500Y00341500
Y00330833
Y00320167
Y00309500
X00523500
X00507000
X00494000Y00291500
X00483333
X00472667
X00462000
X00462500Y00266000
X00473000
X00483500
X00494000
X00425000Y00256500
X00403000Y00267500
X00402667Y00291500
X00413333
X00424000
X00392000
X00375000Y00309500
X00473000Y00345000
X00489500
X00506000
X00522500
X00509000Y00161500
X00484500Y00400500
X00556500Y00400833
Y00411500
Y00390167
Y00379500
X00500500Y00471500
X00449000Y00472500
X00261500Y00476000
X00199500Y00412500
Y00401833
Y00391167
Y00380500
X00171000Y00378000
Y00389500
Y00400000
Y00411000
X00156000
Y00400000
X00141000
Y00411000
X00126000
Y00400000
X00111000
Y00411000
Y00388000
X00085500Y00426500
T03
X00079500Y00229500
X00090500
Y00241500
X00079500Y00241500
Y00272000
X00090500
Y00284000
X00079500
T04
X00261500Y00512300
X00286900
X00312300
X00337700
X00363100
X00388500
X00413900
X00439300
X00464700
X00490100
X00515500
X00540900
X00566300
Y00537700
X00540900
X00515500
X00490100
X00464700
X00439300
X00413900
X00388500
X00363100
X00337700
X00312300
X00286900
X00261500
X00236100
Y00512300
X00210700
X00185300
X00159900
X00134500
X00109100
X00083700
Y00537700
X00109100
X00134500
X00159900
X00185300
X00210700
X00161650Y00485300
Y00459900
Y00434500
X00136000Y00434600
Y00460000
Y00485400
X00016000Y00470000
Y00444600
T05
X00258750Y00041250
X00308750
X00358750
X00408750
X00458750
X00508750
T06
X00155250Y00049250
T07
X00155250Y00094250
T08
X00035000Y00035000
X00615000
Y00525000
X00035000
M30
